<?xml version="1.0" encoding="utf-8"?>
<!-- Generator: Adobe Illustrator 19.1.0, SVG Export Plug-In . SVG Version: 6.00 Build 0)  -->
<svg version="1.1" id="Layer_1" xmlns="http://www.w3.org/2000/svg" xmlns:xlink="http://www.w3.org/1999/xlink" x="0px" y="0px"
	 viewBox="-181 133 36 36" style="enable-background:new -181 133 36 36;" xml:space="preserve">
<style type="text/css">
	.st0{fill:#1A333A;}
</style>
<path class="st0" d="M-163,134.8c-8.9,0-16.2,7.3-16.2,16.2s7.3,16.2,16.2,16.2c8.9,0,16.2-7.3,16.2-16.2S-154,134.8-163,134.8z
	 M-167.7,154.6c-2,0-3.6-1.6-3.6-3.6s1.6-3.6,3.6-3.6s3.6,1.6,3.6,3.6C-164,153-165.7,154.6-167.7,154.6z M-158.3,154.6
	c-2,0-3.6-1.6-3.6-3.6s1.6-3.6,3.6-3.6s3.6,1.6,3.6,3.6C-154.7,153-156.3,154.6-158.3,154.6z"/>
</svg>
