<?xml version="1.0" encoding="utf-8"?>
<!-- Generator: Adobe Illustrator 19.1.0, SVG Export Plug-In . SVG Version: 6.00 Build 0)  -->
<svg version="1.1" id="Layer_1" xmlns="http://www.w3.org/2000/svg" xmlns:xlink="http://www.w3.org/1999/xlink" x="0px" y="0px"
	 viewBox="0 0 36 36" style="enable-background:new 0 0 36 36;" xml:space="preserve">
<style type="text/css">
	.st0{fill:#1A333A;}
</style>
<path class="st0" d="M18,1.8C9.1,1.8,1.8,9.1,1.8,18S9.1,34.2,18,34.2S34.2,26.9,34.2,18S27,1.8,18,1.8z M25.6,22.4
	c-0.2,0.1-0.5,0.2-0.7,0.3c-0.3,0.1-0.6,0.1-0.9,0.2c-0.2,0-0.3,0.1-0.4,0.3c-0.1,0.2-0.1,0.4-0.2,0.7c0,0.1-0.1,0.1-0.2,0.1
	c-0.3,0-0.6-0.1-0.9-0.1c-0.7-0.1-1.4,0.1-2.1,0.5c-0.3,0.2-0.5,0.4-0.8,0.5c-1.1,0.7-2.2,0.7-3.3,0c-0.3-0.2-0.5-0.3-0.8-0.5
	c-0.7-0.5-1.5-0.6-2.3-0.5c-0.2,0-0.4,0.1-0.6,0.1c-0.1,0-0.2,0-0.2-0.1c0-0.2-0.1-0.4-0.1-0.6c-0.1-0.2-0.2-0.4-0.4-0.4
	c-0.5-0.1-0.9-0.2-1.4-0.4c-0.1,0-0.2-0.1-0.3-0.2c-0.1,0-0.1-0.1-0.2-0.2c0.1,0,0.2,0,0.3-0.1c0.9-0.2,1.7-0.7,2.3-1.4
	c0.4-0.5,0.8-1,1-1.6c0.1-0.1,0.1-0.3,0.1-0.4c0-0.3-0.1-0.6-0.3-0.8c-0.2-0.2-0.5-0.3-0.8-0.4c-0.2-0.1-0.4-0.2-0.6-0.2
	c-0.1,0-0.2-0.1-0.3-0.2c-0.1-0.1-0.1-0.2,0-0.2c0.1-0.1,0.4-0.2,0.6-0.1c0.3,0.1,0.6,0.2,1,0.2c0.1,0,0.2,0,0.2-0.1
	c0.3-0.1,0.3-0.2,0.3-0.4c0-0.7-0.1-1.3-0.1-2c0-0.4,0-0.8,0.1-1.2c0.2-0.7,0.6-1.3,1.2-1.8c0.7-0.6,1.5-0.9,2.4-0.9
	c0.9-0.1,1.9,0.1,2.7,0.6c0.8,0.5,1.4,1.2,1.7,2.1c0.1,0.3,0.1,0.7,0.1,1c0,0.6,0,1.2,0,1.8c0,0.2,0,0.4,0,0.5c0,0.1,0,0.1,0.1,0.2
	c0.2,0.2,0.5,0.2,0.7,0.1c0.2,0,0.4-0.1,0.6-0.2c0.2-0.1,0.4,0,0.6,0.1c0.1,0.1,0.1,0.2,0,0.3c-0.2,0.2-0.4,0.3-0.6,0.3
	c-0.2,0.1-0.4,0.1-0.5,0.2c-0.1,0-0.2,0.1-0.3,0.2c-0.5,0.3-0.6,0.7-0.4,1.2c0.2,0.5,0.4,0.9,0.7,1.3c0.6,0.7,1.2,1.3,2.1,1.6
	c0.2,0.1,0.5,0.1,0.8,0.2C25.8,22.3,25.7,22.4,25.6,22.4z"/>
</svg>
