<?xml version="1.0" encoding="utf-8"?>
<!-- Generator: Adobe Illustrator 19.1.0, SVG Export Plug-In . SVG Version: 6.00 Build 0)  -->
<svg version="1.1" id="Layer_1" xmlns="http://www.w3.org/2000/svg" xmlns:xlink="http://www.w3.org/1999/xlink" x="0px" y="0px"
	 viewBox="-181 133 36 36" style="enable-background:new -181 133 36 36;" xml:space="preserve">
<style type="text/css">
	.st0{fill:#1A333A;}
</style>
<path class="st0" d="M-163,134.8c-8.9,0-16.2,7.3-16.2,16.2s7.3,16.2,16.2,16.2s16.2-7.3,16.2-16.2S-154.1,134.8-163,134.8z
	 M-159.3,150.7h-2.8v2.6c0,0.7,0,1,0.1,1.2c0.1,0.2,0.2,0.4,0.4,0.5c0.2,0.1,0.5,0.2,0.9,0.2c0.6,0,0.9-0.1,1.5-0.4v1.7
	c-0.5,0.2-0.9,0.4-1.3,0.5c-0.4,0.1-0.8,0.1-1.3,0.1c-0.5,0-0.8-0.1-1.2-0.2c-0.4-0.1-0.7-0.3-1-0.6c-0.3-0.2-0.5-0.5-0.6-0.8
	c-0.1-0.3-0.2-0.7-0.2-1.2v-4h-1.5v-1.6c0.4-0.1,0.9-0.4,1.3-0.6c0.3-0.3,0.6-0.6,0.8-1c0.2-0.4,0.3-0.9,0.4-1.4h1.8v2.8h2.8
	L-159.3,150.7L-159.3,150.7z"/>
</svg>
