<?xml version="1.0" encoding="utf-8"?>
<!-- Generator: Adobe Illustrator 19.1.0, SVG Export Plug-In . SVG Version: 6.00 Build 0)  -->
<svg version="1.1" id="Layer_1" xmlns="http://www.w3.org/2000/svg" xmlns:xlink="http://www.w3.org/1999/xlink" x="0px" y="0px"
	 viewBox="-251 272 360 320" style="enable-background:new -251 272 360 320;" xml:space="preserve">
<style type="text/css">
	.st0{fill:#D15028;}
	.st1{fill:#1A333A;}
</style>
<g>
	<g>
		<g>
			<path class="st0" d="M88.2,590.2h-318.6c-9,0-16.3-7.3-16.3-16.3V443.7c0-9,7.3-16.3,16.3-16.3H88.4c9,0,16.3,7.3,16.3,16.3V574
				C104.5,583.1,97.2,590.2,88.2,590.2z M-226.1,569.7H83.8V448.1h-309.9V569.7z"/>
			<g>
				<path class="st0" d="M92.6,446.5h-326.7v-10.3c0-80.8,56.5-162.5,164.4-162.5c47.9,0,89,17.1,119.2,49.6
					c27.9,29.9,43.2,70.1,43.2,112.9L92.6,446.5L92.6,446.5z M-213.3,426H71.7c-2.2-33.8-15.3-64.8-37.4-88.7
					c-26.2-28.1-62.2-43-104.1-43c-43.3,0-80.1,14.9-106.5,43C-198.1,360.9-211,392.1-213.3,426z"/>
				<rect x="-206.9" y="441.4" class="st0" width="20.5" height="134.6"/>
				<path class="st0" d="M-144,586.4h-62.9V431.2h62.9V586.4z M-186.4,565.8h21.8V451.8h-21.8V565.8z"/>
				<path class="st0" d="M-101.7,586.4h-62.9V431.2h62.9V586.4z M-144,565.8h21.8V451.8H-144C-144,451.8-144,565.8-144,565.8z"/>
				<path class="st0" d="M-59.5,586.4h-62.9V431.2h62.9L-59.5,586.4L-59.5,586.4z M-101.7,565.8h21.8V451.8h-21.8V565.8z"/>
				<path class="st0" d="M-17.1,586.4H-80V431.2h62.9V586.4z M-59.5,565.8h21.8V451.8h-21.8V565.8z"/>
				<path class="st0" d="M25.2,586.4h-62.9V431.2h62.9V586.4z M-17.1,565.8H4.6V451.8h-21.8V565.8z"/>
				<path class="st0" d="M67.5,586.4H4.6V431.2h62.9V586.4z M25.2,565.8H47V451.8H25.2L25.2,565.8L25.2,565.8z"/>
				<rect x="47" y="441.4" class="st0" width="20.5" height="134.6"/>
			</g>
		</g>
		<g>
			<path class="st1" d="M88.2,590.2h-318.6c-9,0-16.3-7.3-16.3-16.3V443.7c0-9,7.3-16.3,16.3-16.3H88.4c9,0,16.3,7.3,16.3,16.3V574
				C104.5,583.1,97.2,590.2,88.2,590.2z M-226.1,569.7H83.8V448.1h-309.9V569.7z"/>
			<g>
				<path class="st1" d="M92.6,446.5h-326.7v-10.3c0-80.8,56.5-162.5,164.4-162.5c47.9,0,89,17.1,119.2,49.6
					c27.9,29.9,43.2,70.1,43.2,112.9L92.6,446.5L92.6,446.5z M-213.3,426H71.7c-2.2-33.8-15.3-64.8-37.4-88.7
					c-26.2-28.1-62.2-43-104.1-43c-43.3,0-80.1,14.9-106.5,43C-198.1,360.9-211,392.1-213.3,426z"/>
				<rect x="-206.9" y="441.4" class="st1" width="20.5" height="134.6"/>
				<path class="st1" d="M-144,586.4h-62.9V431.2h62.9V586.4z M-186.4,565.8h21.8V451.8h-21.8V565.8z"/>
				<path class="st1" d="M-101.7,586.4h-62.9V431.2h62.9V586.4z M-144,565.8h21.8V451.8H-144C-144,451.8-144,565.8-144,565.8z"/>
				<path class="st1" d="M-59.5,586.4h-62.9V431.2h62.9L-59.5,586.4L-59.5,586.4z M-101.7,565.8h21.8V451.8h-21.8V565.8z"/>
				<path class="st1" d="M-17.1,586.4H-80V431.2h62.9V586.4z M-59.5,565.8h21.8V451.8h-21.8V565.8z"/>
				<path class="st1" d="M25.2,586.4h-62.9V431.2h62.9V586.4z M-17.1,565.8H4.6V451.8h-21.8V565.8z"/>
				<path class="st1" d="M67.5,586.4H4.6V431.2h62.9V586.4z M25.2,565.8H47V451.8H25.2L25.2,565.8L25.2,565.8z"/>
				<rect x="47" y="441.4" class="st1" width="20.5" height="134.6"/>
			</g>
		</g>
	</g>
</g>
</svg>
