<?xml version="1.0" encoding="utf-8"?>
<!-- Generator: Adobe Illustrator 19.1.0, SVG Export Plug-In . SVG Version: 6.00 Build 0)  -->
<svg version="1.1" id="Layer_1" xmlns="http://www.w3.org/2000/svg" xmlns:xlink="http://www.w3.org/1999/xlink" x="0px" y="0px"
	 viewBox="0 0 360 360" style="enable-background:new 0 0 360 360;" xml:space="preserve">
<style type="text/css">
	.st0{fill:#D15028;}
	.st1{fill:#1A333A;}
	.st2{font-family:'FuturaPT-Book';}
	.st3{font-size:75.0369px;}
</style>
<g>
	<g>
		<g>
			<path class="st0" d="M294.8,242.1H63.8c-6.5,0-11.8-5.3-11.8-11.8v-94.5c0-6.5,5.3-11.8,11.8-11.8h231.1
				c6.5,0,11.8,5.3,11.8,11.8v94.5C306.6,236.9,301.3,242.1,294.8,242.1z M66.9,227.2h224.7V139H66.9V227.2z"/>
			<g>
				<path class="st0" d="M298,137.9H61.1v-7.5c0-58.6,41-117.8,119.2-117.8c34.7,0,64.5,12.4,86.4,36c20.2,21.7,31.3,50.8,31.3,81.9
					V137.9z M76.2,123h206.6c-1.6-24.5-11.1-47-27.1-64.3c-19-20.4-45.1-31.2-75.5-31.2c-31.4,0-58.1,10.8-77.2,31.2
					C87.2,75.8,77.8,98.4,76.2,123z"/>
				<rect x="80.8" y="134.2" class="st0" width="14.9" height="97.6"/>
				<path class="st0" d="M126.4,239.3H80.8V126.8h45.6V239.3z M95.7,224.4h15.8v-82.7H95.7V224.4z"/>
				<path class="st0" d="M157.1,239.3h-45.6V126.8h45.6V239.3z M126.4,224.4h15.8v-82.7h-15.8V224.4z"/>
				<path class="st0" d="M187.7,239.3h-45.6V126.8h45.6V239.3z M157.1,224.4h15.8v-82.7h-15.8V224.4z"/>
				<path class="st0" d="M218.4,239.3h-45.6V126.8h45.6V239.3z M187.7,224.4h15.8v-82.7h-15.8V224.4z"/>
				<path class="st0" d="M249.1,239.3h-45.6V126.8h45.6V239.3z M218.4,224.4h15.8v-82.7h-15.8V224.4z"/>
				<path class="st0" d="M279.8,239.3h-45.6V126.8h45.6V239.3z M249.1,224.4h15.8v-82.7h-15.8V224.4z"/>
				<rect x="264.9" y="134.2" class="st0" width="14.9" height="97.6"/>
			</g>
		</g>
		<g>
			<text transform="matrix(1 0 0 1 68.585 349.3799)" class="st1 st2 st3">ABOUT</text>
		</g>
		<g>
			<path class="st1" d="M294.8,242.1H63.8c-6.5,0-11.8-5.3-11.8-11.8v-94.5c0-6.5,5.3-11.8,11.8-11.8h231.1
				c6.5,0,11.8,5.3,11.8,11.8v94.5C306.6,236.9,301.3,242.1,294.8,242.1z M66.9,227.2h224.7V139H66.9V227.2z"/>
			<g>
				<path class="st1" d="M298,137.9H61.1v-7.5c0-58.6,41-117.8,119.2-117.8c34.7,0,64.5,12.4,86.4,36c20.2,21.7,31.3,50.8,31.3,81.9
					V137.9z M76.2,123h206.6c-1.6-24.5-11.1-47-27.1-64.3c-19-20.4-45.1-31.2-75.5-31.2c-31.4,0-58.1,10.8-77.2,31.2
					C87.2,75.8,77.8,98.4,76.2,123z"/>
				<rect x="80.8" y="134.2" class="st1" width="14.9" height="97.6"/>
				<path class="st1" d="M126.4,239.3H80.8V126.8h45.6V239.3z M95.7,224.4h15.8v-82.7H95.7V224.4z"/>
				<path class="st1" d="M157.1,239.3h-45.6V126.8h45.6V239.3z M126.4,224.4h15.8v-82.7h-15.8V224.4z"/>
				<path class="st1" d="M187.7,239.3h-45.6V126.8h45.6V239.3z M157.1,224.4h15.8v-82.7h-15.8V224.4z"/>
				<path class="st1" d="M218.4,239.3h-45.6V126.8h45.6V239.3z M187.7,224.4h15.8v-82.7h-15.8V224.4z"/>
				<path class="st1" d="M249.1,239.3h-45.6V126.8h45.6V239.3z M218.4,224.4h15.8v-82.7h-15.8V224.4z"/>
				<path class="st1" d="M279.8,239.3h-45.6V126.8h45.6V239.3z M249.1,224.4h15.8v-82.7h-15.8V224.4z"/>
				<rect x="264.9" y="134.2" class="st1" width="14.9" height="97.6"/>
			</g>
		</g>
	</g>
</g>
</svg>
