<?xml version="1.0" encoding="utf-8"?>
<!-- Generator: Adobe Illustrator 19.1.0, SVG Export Plug-In . SVG Version: 6.00 Build 0)  -->
<svg version="1.1" id="Layer_1" xmlns="http://www.w3.org/2000/svg" xmlns:xlink="http://www.w3.org/1999/xlink" x="0px" y="0px"
	 viewBox="-215 217 288 288" style="enable-background:new -215 217 288 288;" xml:space="preserve">
<style type="text/css">
	.st0{opacity:0.9;fill:#2F414F;}
	.st1{fill:#F7C5B1;}
	.st2{fill:#1E1411;}
	.st3{fill:#6D131D;}
	.st4{opacity:0.3;}
	.st5{fill:#821A20;}
</style>
<circle class="st0" cx="-70" cy="362" r="143.6"/>
<g>
	<rect x="-108.8" y="406.9" class="st1" width="72.3" height="32"/>
	<path class="st2" d="M-136.4,401.7v55.2c0,5.4,4.3,9.8,9.5,9.8h112c5.3,0,9.5-4.4,9.5-9.8v-55.2c0-5.4-4.3-9.8-9.5-9.8h-112
		C-132.2,391.9-136.4,396.2-136.4,401.7z M-82.2,420.9c0-2.8,0.6-5,3.4-5h15.7c2.8,0,3.4,2.2,3.4,5v0.6c0,2.8-0.6,5-3.4,5h-15.7
		c-2.8,0-3.4-2.2-3.4-5V420.9z"/>
	<rect x="-136.4" y="340.8" class="st1" width="131" height="59.9"/>
	<path class="st3" d="M-138.7,303.6c0,0,30.2,0,67.6,0c37.3,0,67.6,0,67.6,0c0-31.1-30.2-56.3-67.6-56.3
		C-108.3,247.3-138.7,272.5-138.7,303.6z"/>
	<g class="st4">
		<g>
			<path class="st5" d="M-138.3,336.2c0,2.8,4.4,5,9.7,5h115c5.4,0,9.7-2.2,9.7-5v-28.4c0-2.8-4.4-5-9.7-5h-115
				c-5.4,0-9.7,2.2-9.7,5V336.2z"/>
		</g>
	</g>
	<path class="st5" d="M-143.2,336.2c0,2.8,4.6,5,10.4,5H-9.3c5.8,0,10.4-2.2,10.4-5v-28.4c0-2.8-4.6-5-10.4-5h-123.5
		c-5.8,0-10.4,2.2-10.4,5C-143.2,307.8-143.2,336.2-143.2,336.2z"/>
</g>
</svg>
