<?xml version="1.0" encoding="utf-8"?>
<!-- Generator: Adobe Illustrator 19.1.0, SVG Export Plug-In . SVG Version: 6.00 Build 0)  -->
<svg version="1.1" id="Layer_1" xmlns="http://www.w3.org/2000/svg" xmlns:xlink="http://www.w3.org/1999/xlink" x="0px" y="0px"
	 viewBox="0 0 701.2 102" style="enable-background:new 0 0 701.2 102;" xml:space="preserve">
<style type="text/css">
	.st0{opacity:0.5;fill:url(#SVGID_1_);}
</style>
<linearGradient id="SVGID_1_" gradientUnits="userSpaceOnUse" x1="8.0999" y1="51.0051" x2="693.0999" y2="51.0051">
	<stop  offset="0" style="stop-color:#FFFFFF"/>
	<stop  offset="0.1684" style="stop-color:#FEFDFC;stop-opacity:0.7439"/>
	<stop  offset="0.3091" style="stop-color:#FBF6F1;stop-opacity:0.5299"/>
	<stop  offset="0.4393" style="stop-color:#F6EAE0;stop-opacity:0.3318"/>
	<stop  offset="0.5259" style="stop-color:#F2DFD0;stop-opacity:0.2"/>
	<stop  offset="0.5932" style="stop-color:#F6E8DD;stop-opacity:0.3135"/>
	<stop  offset="0.7236" style="stop-color:#FBF5F0;stop-opacity:0.5336"/>
	<stop  offset="0.8577" style="stop-color:#FEFCFB;stop-opacity:0.7598"/>
	<stop  offset="1" style="stop-color:#FFFFFF"/>
</linearGradient>
<path class="st0" d="M514.6,70.5c-2.3,0-4.2-2-4-4.4c0.2-2.1,2.1-3.6,4.2-3.6l93.5,0c5.3,0,10-4,10.3-9.3c0.4-5.8-4.2-10.7-10-10.7
	l-144.3,0c-2.9,0-5.4-2.1-5.7-5c-0.3-3.3,2.3-6,5.5-6h182.2c5.3,0,10-4,10.3-9.3c0.4-5.8-4.2-10.7-10-10.7h-188h-107h-1h-107H18.1
	c-5.5,0-10,4.5-10,10v0c0,5.5,4.5,10,10,10l169.3,0c2.1,0,4,1.5,4.2,3.6c0.2,2.4-1.6,4.4-4,4.4H93.9c-5.3,0-10,4-10.3,9.3
	c-0.4,5.8,4.2,10.7,10,10.7l144.3,0c2.9,0,5.4,2.1,5.7,5c0.3,3.3-2.3,6-5.5,6l-182.2,0c-5.3,0-10,4-10.3,9.3
	c-0.4,5.8,4.2,10.7,10,10.7h188h107h1h107h224.5c5.5,0,10-4.5,10-10v0c0-5.5-4.5-10-10-10H514.6z"/>
</svg>
