<?xml version="1.0" encoding="utf-8"?>
<!-- Generator: Adobe Illustrator 19.1.0, SVG Export Plug-In . SVG Version: 6.00 Build 0)  -->
<svg version="1.1" id="Layer_1" xmlns="http://www.w3.org/2000/svg" xmlns:xlink="http://www.w3.org/1999/xlink" x="0px" y="0px"
	 viewBox="0 0 240.9 35.5" style="enable-background:new 0 0 240.9 35.5;" xml:space="preserve">
<style type="text/css">
	.st0{fill:url(#SVGID_1_);}
	.st1{fill:url(#SVGID_2_);}
</style>
<g>
	
		<linearGradient id="SVGID_1_" gradientUnits="userSpaceOnUse" x1="100.9576" y1="70.59" x2="231.5978" y2="70.59" gradientTransform="matrix(1 0 0 -1 0 87.09)">
		<stop  offset="0" style="stop-color:#F2DFD0;stop-opacity:0"/>
		<stop  offset="0.3395" style="stop-color:#F9F1EA;stop-opacity:0.3549"/>
		<stop  offset="0.6696" style="stop-color:#FFFFFF;stop-opacity:0.7"/>
	</linearGradient>
	<path class="st0" d="M231.6,25.2c-0.1-1.6-1.5-2.8-3.1-2.8h-54.3c-0.7,0-1.2-0.5-1.2-1.2s0.5-1.2,1.2-1.2h28.5c1.6,0,3-1.2,3.1-2.8
		c0.1-1.8-1.3-3.3-3-3.3h-43.9c-0.9,0-1.7-0.8-1.7-1.7s0.8-1.7,1.7-1.7h55.4c1.6,0,3-1.2,3.1-2.8c0.1-1.8-1.3-3.3-3-3.3h-57.1H101
		v24h56.2h71.4C230.3,28.5,231.7,27,231.6,25.2z"/>
	
		<linearGradient id="SVGID_2_" gradientUnits="userSpaceOnUse" x1="2.9576" y1="70.59" x2="133.5978" y2="70.59" gradientTransform="matrix(-1 0 0 -1 144.0238 87.09)">
		<stop  offset="0" style="stop-color:#F2DFD0;stop-opacity:0"/>
		<stop  offset="0.3395" style="stop-color:#F9F1EA;stop-opacity:0.3549"/>
		<stop  offset="0.6696" style="stop-color:#FFFFFF;stop-opacity:0.7"/>
	</linearGradient>
	<path class="st1" d="M13.5,28.5h71.4h56.2v-24H84.9H27.7c-1.8,0-3.2,1.5-3,3.3c0.1,1.6,1.5,2.8,3.1,2.8h55.4c0.9,0,1.7,0.8,1.7,1.7
		s-0.8,1.7-1.7,1.7H39.3c-1.8,0-3.2,1.5-3,3.3c0.1,1.6,1.5,2.8,3.1,2.8h28.5c0.7,0,1.2,0.5,1.2,1.2s-0.5,1.2-1.2,1.2H13.6
		c-1.6,0-3,1.2-3.1,2.8C10.3,27,11.7,28.5,13.5,28.5z"/>
</g>
</svg>
