<?xml version="1.0" encoding="utf-8"?>
<!-- Generator: Adobe Illustrator 19.1.0, SVG Export Plug-In . SVG Version: 6.00 Build 0)  -->
<svg version="1.1" id="Layer_1" xmlns="http://www.w3.org/2000/svg" xmlns:xlink="http://www.w3.org/1999/xlink" x="0px" y="0px"
	 viewBox="0 0 360 360" style="enable-background:new 0 0 360 360;" xml:space="preserve">
<style type="text/css">
	.st0{fill:#1A333A;}
	.st1{font-family:'FuturaPT-Book';}
	.st2{font-size:75.0369px;}
</style>
<g>
	<g>
		<g>
			<path class="st0" d="M198.6,189c-0.7,0-1.4,0-2.1,0c-6.3-0.2-15.8-3.1-17.7-3.7L14,135.1l160.6-50c1.1-0.6,2.2-1,3.2-1.2
				c43-10,65.8,16.1,71.9,31.2c2.3,6.3,3.5,12.7,3.5,19.2c0,15-5.9,29-16.8,39.4C226.2,183.6,212.8,189,198.6,189z M72.6,134.9
				l111.2,33.8c3.8,1.2,10.3,2.9,13.3,3c10.3,0.4,20-3.3,27.4-10.4c7.4-7.1,11.5-16.7,11.5-27c0-4.4-0.8-8.8-2.3-12.9
				c-0.9-2.2-13.5-29.4-51.2-21l-0.8,0.5l-1,0.3L72.6,134.9z"/>
		</g>
		<g>
			<circle class="st0" cx="274.8" cy="30" r="3.2"/>
		</g>
		<g>
			<path class="st0" d="M308.6,114.8l-13.8-3.2c1.4,4.9,2,6.9,3.7,11.7c2.6,7.4,3.9,15.2,3.9,23.1c0,18.2-6.8,35.2-19.3,47.9
				c-12.4,12.6-28.8,19.2-46,18.5c-6-0.2-17.6-3.7-21.6-5L45.1,147.5l165.6-60.2l0.9-0.4c0,0,1.5-0.8,2.3-1.2
				c19.3-9.1,31.7-29.5,31.7-52c0-9.8,6.2-18.3,14.8-20.2c5.7-1.3,11.5,0.2,16,4.1c4.4,3.7,6.9,9.2,6.9,14.9c0,0.6,0,1.3-0.1,1.9
				c-0.1,0.9-0.1,1.8-0.1,2.7c0,2.2,0.1,2.2,0.1,4.4l12.3,2.8c-0.1-3.1-0.2-4.1-0.2-7.2c0-0.6,0-1.2,0.1-1.8
				c0.1-0.9,0.1-1.8,0.1-2.8c0-9.6-4.2-18.7-11.4-24.9c-7.4-6.3-16.9-8.7-26.2-6.7c-14.2,3.2-24.5,17-24.5,32.9
				c0,17.4-9.6,33.2-24.5,40.2c-0.6,0.3-1.7,0.8-2.3,1.1L3.6,147.7l208.3,72.5c1.6,0.5,16,5.2,24.7,5.6c1,0,2,0.1,3,0.1
				c19.5,0,37.9-7.8,52-22.2c14.8-15.1,23-35.4,23-57.2c0-9.5-1.6-18.8-4.7-27.6C309.1,116.6,309.3,117.1,308.6,114.8z"/>
		</g>
		<g>
			<circle class="st0" cx="255.4" cy="30" r="3.2"/>
		</g>
		<rect x="106" y="107" class="st0" width="15" height="53"/>
		<polygon class="st0" points="149,160 131,160 131,104.5 149,96.5 		"/>
		<g>
			<polygon class="st0" points="195.9,214.6 195.8,218.3 185.7,218.3 166.4,204.4 138,194.5 182.9,226.9 204.4,226.9 204.5,217.6 
							"/>
		</g>
		<path class="st0" d="M270.4,42.3l-4.3,2.9l-4.3-2.9c-2-1.3-2.9-4-1.8-6.1c0.8-1.5,2.4-2.6,4.3-2.6h3.5c2,0,3.5,1.1,4.3,2.6
			C273.3,38.2,272.4,40.9,270.4,42.3z"/>
		<path class="st0" d="M322.8,52.7l-49-11.3c-0.5,1.2-1.3,2.2-2.4,3L266,48l-5.4-3.6c-2.2-1.5-3.3-4.2-2.6-6.6l-1.8-0.4
			c-3.3-0.7-6.5,0.7-8.2,3.7c-1.7,3-1.4,6.7,0.9,9.3l0,0l27.6,31c1.5,1.7,3.7,2.6,5.9,2.6c1,0,2-0.2,3-0.6l38.4-15.8
			c3.2-1.3,5.1-4.5,4.9-8C328.4,56.3,326.2,53.6,322.8,52.7z M282.8,74.5l-24.1-27.1l57.7,13.3L282.8,74.5z"/>
		<path class="st0" d="M322.7,52.7l-48.9-11.3l0,0c-0.5,1.2-1.3,2.2-2.4,3L266,48l-5.4-3.6c-2.1-1.4-3.3-4-2.7-6.4
			c0-0.1,0-0.2-0.2-0.3l-1.1-0.2c-1.8-0.4-3.7-0.4-5.4,0.3c-2.8,1.1-4.8,3.4-5.4,6.3l-9.7,42.1c-0.4,1.8-0.4,3.7,0.3,5.4
			c1.1,2.8,3.4,4.8,6.3,5.4l66.3,15.3c0.7,0.2,1.3,0.2,2,0.2c4,0,7.7-2.8,8.6-6.8l9.8-42.4C330.4,58.5,327.5,53.8,322.7,52.7z
			 M310.7,103.2l-65.5-15.1l9.6-41.6l65.5,15.1L310.7,103.2z"/>
	</g>
	<g>
		<text transform="matrix(1 0 0 1 20.1731 349.3799)" class="st0 st1 st2">CONTACT</text>
	</g>
</g>
</svg>
