<?xml version="1.0" encoding="utf-8"?>
<!-- Generator: Adobe Illustrator 19.1.0, SVG Export Plug-In . SVG Version: 6.00 Build 0)  -->
<svg version="1.1" id="Layer_1" xmlns="http://www.w3.org/2000/svg" xmlns:xlink="http://www.w3.org/1999/xlink" x="0px" y="0px"
	 viewBox="-251 273 360 320" style="enable-background:new -251 273 360 320;" xml:space="preserve">
<style type="text/css">
	.st0{fill:#1A333A;}
</style>
<g>
	<g>
		<g>
			<path class="st0" d="M-35.6,516.4c-0.8,0-1.5,0-2.3,0c-7-0.2-17.5-3.4-19.6-4.1l-182.2-55.5l177.6-55.3c1.2-0.7,2.4-1.1,3.5-1.3
				c47.6-11.1,72.8,17.8,79.5,34.5c2.5,7,3.9,14,3.9,21.2c0,16.6-6.5,32.1-18.6,43.6C-5.1,510.5-19.9,516.4-35.6,516.4z M-175,456.6
				L-52,494c4.2,1.3,11.4,3.2,14.7,3.3c11.4,0.4,22.1-3.6,30.3-11.5c8.2-7.9,12.7-18.5,12.7-29.9c0-4.9-0.9-9.7-2.5-14.3
				c-1-2.4-14.9-32.5-56.6-23.2l-0.9,0.6l-1.1,0.3L-175,456.6z"/>
		</g>
		<g>
			<circle class="st0" cx="48.7" cy="340.6" r="3.5"/>
		</g>
		<g>
			<path class="st0" d="M86,434.4l-15.3-3.5c1.5,5.4,2.2,7.6,4.1,12.9c2.9,8.2,4.3,16.8,4.3,25.5c0,20.1-7.5,38.9-21.3,53
				C44.1,536.2,26,543.5,7,542.8c-6.6-0.2-19.5-4.1-23.9-5.5l-188.4-66.7L-22.2,404l1-0.4c0,0,1.7-0.9,2.5-1.3
				c21.3-10.1,35.1-32.6,35.1-57.5c0-10.8,6.9-20.2,16.4-22.3c6.3-1.4,12.7,0.2,17.7,4.5c4.9,4.1,7.6,10.2,7.6,16.5
				c0,0.7,0,1.4-0.1,2.1c-0.1,1-0.1,2-0.1,3c0,2.4,0.1,2.4,0.1,4.9l13.6,3.1c-0.1-3.4-0.2-4.5-0.2-8c0-0.7,0-1.3,0.1-2
				c0.1-1,0.1-2,0.1-3.1c0-10.6-4.6-20.7-12.6-27.5c-8.2-7-18.7-9.6-29-7.4C14.3,312,2.9,327.2,2.9,344.8
				c0,19.2-10.6,36.7-27.1,44.5c-0.7,0.3-1.9,0.9-2.5,1.2l-224.5,80.3l230.4,80.2c1.8,0.6,17.7,5.8,27.3,6.2c1.1,0,2.2,0.1,3.3,0.1
				c21.6,0,41.9-8.6,57.5-24.6c16.4-16.7,25.4-39.1,25.4-63.3c0-10.5-1.8-20.8-5.2-30.5C86.6,436.4,86.8,436.9,86,434.4z"/>
		</g>
		<g>
			<circle class="st0" cx="27.2" cy="340.6" r="3.5"/>
		</g>
		<rect x="-138" y="425.7" class="st0" width="16.6" height="58.6"/>
		<polygon class="st0" points="-90.5,484.4 -110.4,484.4 -110.4,423 -90.5,414.1 		"/>
		<g>
			<polygon class="st0" points="-38.6,544.7 -38.7,548.8 -49.9,548.8 -71.2,533.5 -102.6,522.5 -53,558.3 -29.2,558.3 -29.1,548.1 
							"/>
		</g>
		<path class="st0" d="M43.8,354.2l-4.8,3.2l-4.8-3.2c-2.2-1.4-3.2-4.4-2-6.7c0.9-1.7,2.7-2.9,4.8-2.9h3.9c2.2,0,3.9,1.2,4.8,2.9
			C47,349.7,46,352.7,43.8,354.2z"/>
		<path class="st0" d="M101.7,365.7l-54.2-12.5c-0.6,1.3-1.4,2.4-2.7,3.3l-6,4l-6-4c-2.4-1.7-3.6-4.6-2.9-7.3l-2-0.4
			c-3.6-0.8-7.2,0.8-9.1,4.1c-1.9,3.3-1.5,7.4,1,10.3l0,0l30.5,34.3c1.7,1.9,4.1,2.9,6.5,2.9c1.1,0,2.2-0.2,3.3-0.7l42.5-17.5
			c3.5-1.4,5.6-5,5.4-8.8C107.9,369.7,105.5,366.7,101.7,365.7z M57.5,389.8l-26.7-30l63.8,14.7L57.5,389.8z"/>
		<path class="st0" d="M101.6,365.7l-54.1-12.5l0,0c-0.6,1.3-1.4,2.4-2.7,3.3l-6,4l-6-4c-2.3-1.5-3.6-4.4-3-7.1c0-0.1,0-0.2-0.2-0.3
			l-1.2-0.2c-2-0.4-4.1-0.4-6,0.3c-3.1,1.2-5.3,3.8-6,7L5.9,402.7c-0.4,2-0.4,4.1,0.3,6c1.2,3.1,3.8,5.3,7,6l73.3,16.9
			c0.8,0.2,1.4,0.2,2.2,0.2c4.4,0,8.5-3.1,9.5-7.5l10.8-46.9C110.1,372.1,106.9,366.9,101.6,365.7z M88.4,421.5l-72.4-16.7l10.6-46
			L99,375.5L88.4,421.5z"/>
	</g>
</g>
</svg>
