<?xml version="1.0" encoding="utf-8"?>
<!-- Generator: Adobe Illustrator 19.1.0, SVG Export Plug-In . SVG Version: 6.00 Build 0)  -->
<svg version="1.1" id="Layer_1" xmlns="http://www.w3.org/2000/svg" xmlns:xlink="http://www.w3.org/1999/xlink" x="0px" y="0px"
	 viewBox="-341 343 36 36" style="enable-background:new -341 343 36 36;" xml:space="preserve">
<style type="text/css">
	.st0{fill:#2F414F;}
</style>
<path class="st0" d="M-323,344.8c-8.9,0-16.2,7.3-16.2,16.2s7.3,16.2,16.2,16.2s16.2-7.3,16.2-16.2S-314,344.8-323,344.8z
	 M-331.7,354.6h17.4c1,0,1.8,0.7,1.9,1.6l-10.6,4.5l-10.5-4.5C-333.5,355.3-332.7,354.6-331.7,354.6L-331.7,354.6z M-312.5,366.6
	c0,1-0.8,1.7-1.9,1.7h-17.4c-1,0-1.9-0.8-1.9-1.7V357l10.6,4.5l0,0l10.6-4.5C-312.5,357-312.5,366.6-312.5,366.6z"/>
</svg>
