<?xml version="1.0" encoding="utf-8"?>
<!-- Generator: Adobe Illustrator 19.1.0, SVG Export Plug-In . SVG Version: 6.00 Build 0)  -->
<svg version="1.1" id="Layer_1" xmlns="http://www.w3.org/2000/svg" xmlns:xlink="http://www.w3.org/1999/xlink" x="0px" y="0px"
	 viewBox="-341 343 36 36" style="enable-background:new -341 343 36 36;" xml:space="preserve">
<style type="text/css">
	.st0{fill:#2F414F;}
</style>
<path class="st0" d="M-323,344.8c-8.9,0-16.2,7.3-16.2,16.2s7.3,16.2,16.2,16.2s16.2-7.3,16.2-16.2S-314,344.8-323,344.8z
	 M-327.7,364.6c-2,0-3.6-1.6-3.6-3.6s1.6-3.6,3.6-3.6s3.6,1.6,3.6,3.6C-324,363-325.7,364.6-327.7,364.6z M-318.3,364.6
	c-2,0-3.6-1.6-3.6-3.6s1.6-3.6,3.6-3.6s3.6,1.6,3.6,3.6S-316.3,364.6-318.3,364.6z"/>
</svg>
