<?xml version="1.0" encoding="utf-8"?>
<!-- Generator: Adobe Illustrator 19.1.0, SVG Export Plug-In . SVG Version: 6.00 Build 0)  -->
<svg version="1.1" id="Layer_1" xmlns="http://www.w3.org/2000/svg" xmlns:xlink="http://www.w3.org/1999/xlink" x="0px" y="0px"
	 viewBox="312 -340 1024 463.5" style="enable-background:new 312 -340 1024 463.5;" xml:space="preserve">
<style type="text/css">
	.st0{clip-path:url(#SVGID_2_);}
	.st1{fill:none;}
	.st2{fill:#D15028;}
	.st3{clip-path:url(#SVGID_4_);}
	.st4{clip-path:url(#SVGID_6_);}
</style>
<g>
	<g>
		<defs>
			<rect id="SVGID_1_" x="644" y="1548.5" width="1024" height="981"/>
		</defs>
		<clipPath id="SVGID_2_">
			<use xlink:href="#SVGID_1_"  style="overflow:visible;"/>
		</clipPath>
		<g class="st0">
			<polygon class="st1" points="1611.2,1633.2 1612.6,1630.1 1609,1627.9 1609.4,1629.4 			"/>
			<polygon class="st1" points="1612.7,1636.5 1614.9,1633.1 1615.3,1631.8 1611.3,1633.6 			"/>
			<path class="st1" d="M1643.7,1618.4L1643.7,1618.4L1643.7,1618.4z"/>
			<polygon class="st1" points="1058.4,1639.3 1058.7,1638.7 1058.1,1638.3 			"/>
			<polygon class="st1" points="1038.5,1643.3 1038.9,1642 1037.9,1641.2 1038,1642.1 			"/>
			<polygon class="st1" points="1421.5,1629.4 1421.9,1627.9 1418.3,1630.1 1419.7,1633.2 			"/>
			<polygon class="st1" points="1580.7,1633 1580.3,1632.8 1580.5,1633.6 			"/>
			<polygon class="st1" points="1504.3,1629.6 1504.7,1628.2 1503.8,1628.7 1504.3,1629.7 			"/>
			<polygon class="st1" points="1534.2,1633.6 1534.5,1632.4 1532.9,1633.6 1533.6,1635.5 			"/>
			<polygon class="st1" points="1418.2,1636.5 1419.6,1633.6 1415.6,1631.8 1416,1633.1 			"/>
			<polygon class="st1" points="1197.3,1639.1 1197.6,1638.1 1195.2,1639.6 1196.1,1641.7 			"/>
			<polygon class="st1" points="1274,1642.1 1274.1,1641.2 1273.1,1642 1273.5,1643.3 			"/>
			<polygon class="st1" points="1253.6,1639.3 1253.9,1638.3 1253.3,1638.7 			"/>
			<path class="st1" d="M1166.8,1641.6L1166.8,1641.6L1166.8,1641.6z"/>
			<polygon class="st1" points="1195.1,1644 1196,1642 1193.4,1640.8 1193.7,1641.7 			"/>
			<polygon class="st1" points="1116.9,1644 1118.3,1641.7 1118.6,1640.8 1116,1642 			"/>
			<polygon class="st1" points="1115.9,1641.7 1116.8,1639.6 1114.4,1638.1 1114.7,1639.1 			"/>
			<polygon class="st1" points="1006.7,1641.4 1006.4,1641.6 1006.6,1642 			"/>
			<polygon class="st1" points="731.7,1632.8 731.3,1633 731.5,1633.6 			"/>
			<polygon class="st1" points="778.4,1635.5 779.1,1633.6 777.5,1632.4 777.8,1633.6 			"/>
			<polygon class="st1" points="702.6,1629.4 703,1627.9 699.4,1630.1 700.8,1633.2 			"/>
			<polygon class="st1" points="807.7,1629.7 808.2,1628.7 807.3,1628.2 807.7,1629.6 			"/>
			<polygon class="st1" points="892.3,1633.2 893.7,1630.1 890.1,1627.9 890.5,1629.4 			"/>
			<polygon class="st1" points="699.3,1636.5 700.7,1633.6 696.7,1631.8 697.1,1633.1 			"/>
			<polygon class="st1" points="668.4,1618.3 668.3,1618.4 668.3,1618.4 			"/>
			<polygon class="st1" points="1326.3,1641.7 1327.3,1639.6 1324.8,1638.1 1325.1,1639.1 			"/>
			<polygon class="st1" points="1348.4,1631.6 1348.3,1631.6 1348.3,1631.7 			"/>
			<polygon class="st1" points="893.8,1636.5 896,1633.1 896.4,1631.8 892.4,1633.6 			"/>
			<polygon class="st1" points="1327.3,1644 1328.8,1641.7 1329.1,1640.8 1326.4,1642 			"/>
			<polygon class="st1" points="1305.6,1641.6 1305.3,1641.4 1305.4,1642 			"/>
			<polygon class="st1" points="986.9,1639.1 987.2,1638.1 984.7,1639.6 985.7,1641.7 			"/>
			<polygon class="st1" points="984.7,1644 985.6,1642 982.9,1640.8 983.2,1641.7 			"/>
			<polygon class="st1" points="963.7,1631.6 963.6,1631.6 963.7,1631.7 			"/>
			<path class="st2" d="M1701.5,1659.5l-6.9-13.5v-0.1l4.9,1.9l-13.3-26.9l-0.6-1.7l4.4,1.1l-6.9-14.2l-0.2-0.4l3.2,1.3l-19.7-44.9
				l-0.3,0.7l-0.3-0.7l-1.6,4.3l-18.1,36l5.3-1l-6.8,14.7L1631,1585l-0.3,0.5l-0.2-0.5l-1.2,3.3l-13.9,27.5l4.1-0.7l-6.9,14.9
				l-7.2-21.3l3.4,0.8l-11.6-31.5l-1-3.8l-0.2,0.6l-0.2-0.6l-12.6,39.2l2.1-1.1l-0.1,0.3l-4.4,12.4l2.8-1l-0.4,1.5l-1.5,4.2
				l-4.5-13.4l2.9,0.7l-9.8-26.6l-0.8-3.2l-0.1,0.5l-0.2-0.5l-10.6,33.1l1.7-1l-0.1,0.3l-3.7,10.5l2.4-0.8l-0.3,1.2l-3.9,10.9
				l-3.2-11.3l-0.2-1.2l1.9,0.8l-2.9-10.6l-0.1-0.3l1.4,1l-8.4-33.6l-0.1,0.5l-0.1-0.5l-0.7,3.2l-7.7,26.9l2.3-0.7l-4.3,16.5
				l-2.4-6.5l-0.4-1.5l2.8,1l-4.3-12.3l-0.1-0.3l2,1.1l-12.5-38.9l-0.2,0.6l-0.2-0.6l-1,3.7l-11.5,31.2l3.4-0.8l-5,14.7l-10.3-23.5
				l-0.2,0.4l-0.2-0.4l-1,2.6l-11,21.8l3.2-0.6l-2.2,4.8l-4.7-12.1l3.3,0.7l-11.2-26.4l-1-3.2l-0.2,0.5l-0.2-0.5l-12.1,32.9l2-0.9
				l-0.1,0.3l-4.2,10.4l2.7-0.8l-0.3,1.2l-3.3,7.9l-4.8-13.3l-0.4-1.5l2.8,1l-4.4-12.4l-0.1-0.3l2.1,1.1l-12.6-39.2l-0.2,0.6
				l-0.2-0.6l-1,3.8l-11.6,31.5l3.4-0.8l-7.2,21.3l-6.9-14.9l4.1,0.7l-13.9-27.5l-1.2-3.3l-0.2,0.5l-0.3-0.5l-15.1,34.3l2.5-1
				l-0.1,0.3l-5.3,10.8l3.4-0.9l-0.4,1.3l-4.7,9.4l-2.9-5.8l-0.4-1.3l3,0.8l-4.7-9.6l-0.1-0.3l2.2,0.9l-13.4-30.5l-0.2,0.5l-0.2-0.5
				l-1.1,2.9l-12.3,24.5l3.6-0.7l-4.6,10l-9.3-21.2l-0.2,0.3l-0.1-0.3l-0.8,2.2l-9.4,18.7l2.8-0.5l-4.7,10.2l-4.9-14.5l2.3,0.6
				l-7.9-21.4l-0.7-2.6l-0.1,0.4l-0.1-0.4l-8.5,26.7l1.4-0.8l-0.1,0.2l-3,8.4l1.9-0.7l-0.3,1.1l-1,2.8l-3.1-9.1l1.9,0.5l-6.6-18.1
				l-0.6-2.2l-0.1,0.3l-0.1-0.3l-7.2,22.5l1.2-0.7l-0.1,0.2l-2.5,7.1l1.6-0.6l-0.2,0.9l-2.6,7.3l0,0l-2.1-7.5l-0.2-0.9l1.3,0.6
				l-2-7.2v-0.2l0.9,0.7l-5.7-22.8l-0.1,0.3l-0.1-0.3l-0.5,2.2l-5.2,18.3l1.5-0.5l-2.9,11.2l-1.6-4.3l-0.3-1.1l1.9,0.7l-3-8.3
				l-0.1-0.2l1.4,0.8l-8.5-26.4l-0.1,0.4l-0.1-0.4l-0.7,2.5l-7.5,21.5l2.3-0.6l-3.4,10l-7-16l-0.1,0.3l-0.1-0.3l-0.6,1.8l-7.5,14.8
				l2.2-0.4l-1.5,3.2l-3.2-8.2l2.2,0.5l-7.6-17.9l-0.7-2.1l-0.1,0.3l-0.1-0.3l-8.2,22.4l1.3-0.6l-0.1,0.2l-2.9,7.1l1.8-0.6l-0.3,0.9
				l-2.2,5.3l-3.2-8.9l-0.3-1.1l1.9,0.7l-3-8.4l-0.1-0.2l1.4,0.8l-8.5-26.7l-0.1,0.4l-0.1-0.4l-0.7,2.6l-7.9,21.4l2.3-0.6l-4.9,14.5
				l-4.7-10.2l2.8,0.5l-9.4-18.7l-0.8-2.2l-0.1,0.3l-0.2-0.3l-9,20.5l-0.6-1.1l-0.5-1.4l-0.1,0.2l-0.1-0.2l0,0l0,0l-6,13.7l-3-6.5
				l2.3,0.4l-8-15.8l-0.7-1.9l-0.1,0.3l-0.1-0.3l0,0l0,0l-8.6,19.7l1.4-0.6l-0.1,0.2l-3,6.2l1.9-0.5l-0.3,0.9l-2.3,4.6h-2.2
				l-3.9-7.9l-0.3-1l2.3,0.6l-3.6-7.4l-0.1-0.2l1.7,0.7l-10.2-23.3l-0.2,0.3l-0.1-0.3l-0.8,2.2l-9.4,18.7l2.8-0.5l-4.7,10.2
				l-4.9-14.5l2.3,0.6l-7.9-21.4l-0.7-2.6l-0.1,0.4l-0.1-0.4l-8.5,26.7l1.4-0.8l-0.1,0.2l-3,8.4l1.9-0.7l-0.3,1.1l-3.2,8.9l-2.2-5.3
				l-0.3-0.9l1.8,0.6l-2.9-7.1l-0.1-0.2l1.3,0.6l-8.2-22.4l-0.1,0.3l-0.1-0.3l-0.7,2.1l-7.6,17.9l2.2-0.5l-3.2,8.2l-1.5-3.2l2.2,0.4
				l-7.5-14.8l-0.6-1.8l-0.1,0.3l-0.1-0.3l-7,16l-3.4-10l2.3,0.6l-7.8-21.2l-0.7-2.5l-0.1,0.4l-0.1-0.4l-8.5,26.4l1.4-0.8l-0.1,0.2
				l-3,8.3l1.9-0.7l-0.3,1.1l-1.6,4.3l-2.9-11.2l1.5,0.5l-5.2-18.3l-0.5-2.2l-0.1,0.3l-0.1-0.3l-5.7,22.8l0.9-0.7v0.2l-2,7.2
				l1.3-0.6l-0.2,0.9l-2.1,7.5l0,0l-2.6-7.3l-0.2-0.9l1.6,0.6l-2.5-7.1l-0.1-0.2l1.2,0.7l-7.2-22.5l-0.1,0.3l-0.1-0.3l-0.6,2.2
				l-6.6,18.1l1.9-0.5l-3.1,9.1l-1-2.8l-0.3-1.1l1.9,0.7l-3-8.4l-0.1-0.2l1.4,0.8l-8.5-26.7l-0.1,0.4l-0.1-0.4l-0.7,2.6l-7.9,21.4
				l2.3-0.6l-4.9,14.5l-4.7-10.2l2.8,0.5l-9.4-18.7l-0.8-2.2l-0.1,0.3l-0.2-0.3l-9.3,21.2l-4.6-10l3.6,0.7l-12.3-24.5l-1.1-2.9
				l-0.2,0.5l-0.2-0.5l-13.4,30.5l2.2-0.9l-0.1,0.3l-4.7,9.6l3-0.8l-0.4,1.3l-2.9,5.8l-4.7-9.4l-0.4-1.3l3.4,0.9l-5.3-10.8l-0.1-0.3
				l2.5,1l-15.1-34.3l-0.3,0.5l-0.2-0.5l-1.2,3.3l-13.9,27.5l4.1-0.7l-6.9,14.9l-7.2-21.3l3.4,0.8l-11.6-31.5l-1-3.8l-0.2,0.6
				l-0.2-0.6l-12.6,39.2l2.1-1.1l-0.1,0.3l-4.4,12.4l2.8-1l-0.4,1.5l-4.8,13.3l-3.3-7.9l-0.3-1.2l2.7,0.8l-4.2-10.4l-0.1-0.3l2,0.9
				l-12.1-32.9l-0.2,0.5l-0.2-0.5l-1,3.2l-11.2,26.4l3.3-0.7l-4.7,12.1l-2.2-4.8l3.2,0.6l-11-21.8l-1-2.6l-0.2,0.4l-0.2-0.4
				l-10.3,23.5l-5-14.7l3.4,0.8l-11.5-31.2l-1-3.7l-0.2,0.6l-0.2-0.6l-12.5,38.9l2-1.1l-0.1,0.3l-4.3,12.3l2.8-1l-0.4,1.5l-2.4,6.5
				l-4.3-16.5l2.3,0.7l-7.7-26.9l-0.7-3.2l-0.1,0.5l-0.1-0.5l-8.4,33.6l1.4-1l-0.1,0.3l-2.9,10.6l1.9-0.8l-0.2,1.2l-3.2,11.3
				l-3.9-10.9l-0.3-1.2l2.4,0.8l-3.7-10.5l-0.1-0.3l1.7,1l-10.6-33.1l-0.2,0.5l-0.1-0.5l-0.8,3.2l-9.8,26.6l2.9-0.7l-4.5,13.4
				l-1.5-4.2l-0.4-1.5l2.8,1l-4.4-12.4l-0.1-0.3l2.1,1.1l-12.6-39.2l-0.2,0.6l-0.2-0.6l-1,3.8l-11.6,31.5l3.4-0.8l-7.2,21.3
				l-6.9-14.9l4.1,0.7l-13.9-27.5l-1.2-3.3l-0.2,0.5l-0.3-0.5l-13.7,31.2l-6.8-14.7l5.3,1l-18.1-36l-1.6-4.3l-0.3,0.7l-0.3-0.7
				l-1.5,3.5v-44v44.1l-18.1,41.3l3.2-1.3l-0.2,0.4l-6.9,14.2l4.4-1.1l-0.6,1.7l-13.3,26.9l4.9-1.9v0.1l-6.9,13.5h33.4l-0.8,779.2
				l2.4-5.5l0.3,0.7l0.3-0.7l1.6,4.3l18.1,36l-5.3-1l6.8,14.7l14-31.5l0.3,0.5l0.2-0.5l1.2,3.3l13.9,27.5l-4.1-0.7l6.9,14.9
				l7.2-21.3l-3.4,0.8l11.6-31.5l1-3.8l0.2,0.6l0.2-0.6l12.6,39.2l-2.1-1.1l0.1,0.3l4.4,12.4l-2.8-1l0.4,1.5l1.5,4.2l4.5-13.4
				l-2.9,0.7l9.8-26.6l0.8-3.2l0.1,0.5l0.2-0.5l10.6,33.1l-1.7-1l0.1,0.3l3.7,10.5l-2.4-0.8l0.3,1.2l3.9,10.9l3.2-11.3l0.2-1.2
				l-1.9,0.8l2.9-10.6l0.1-0.3l-1.4,1l8.4-33.6l0.1,0.5l0.1-0.5l0.7,3.2l7.7,26.9l-2.3-0.7l4.3,16.5l2.4-6.5l0.4-1.5l-2.8,1
				l4.3-12.3l0.1-0.3l-2,1.1l12.5-38.9l0.2,0.6l0.2-0.6l1,3.7l11.5,31.2l-3.4-0.8l5,14.7l10.3-23.5l0.2,0.4l0.2-0.4l1,2.6l11,21.8
				l-3.2-0.6l2.2,4.8l4.7-12.1l-3.3,0.7l11.2-26.4l1-3.2l0.2,0.5l0.2-0.5l12.1,32.9l-2-0.9l0.1,0.3l4.2,10.4l-2.7-0.8l0.3,1.2
				l3.3,7.9l4.8-13.3l0.4-1.5l-2.8,1l4.4-12.4l0.1-0.3l-2.1,1.1l12.6-39.2l0.2,0.6l0.2-0.6l1,3.8l11.6,31.5l-3.4-0.8l7.2,21.3
				l6.9-14.9l-4.1,0.7l13.9-27.5l1.2-3.3l0.2,0.5l0.3-0.5l15.1,34.3l-2.5-1l0.1,0.3l5.3,10.8l-3.4-0.9l0.4,1.3l4.7,9.4l2.9-5.8
				l0.4-1.3l-3,0.8l4.7-9.6l0.1-0.3l-2.2,0.9l13.4-30.5l0.2,0.5l0.2-0.5l1.1,2.9l12.3,24.5l-3.6-0.7l4.6,10l9.3-21.2l0.2,0.3
				l0.1-0.3l0.8,2.2l9.4,18.7l-2.8-0.5l4.7,10.2l4.9-14.5l-2.3,0.6l7.9-21.4l0.7-2.6l0.1,0.4l0.1-0.4l8.5,26.7l-1.4-0.8l0.1,0.2
				l3,8.4l-1.9-0.7l0.3,1.1l1,2.8l3.1-9.1l-1.9,0.5l6.6-18.1l0.6-2.2l0.1,0.3l0.1-0.3l7.2,22.5l-1.2-0.7l0.1,0.2l2.5,7.1l-1.6-0.6
				l0.2,0.9l2.6,7.3l2.1-7.6l0.2-0.9l-1.3,0.6l2-7.2v-0.2l-0.9,0.7l5.7-22.8l0.1,0.3l0.1-0.3l0.5,2.2l5.2,18.3l-1.5-0.5l2.9,11.2
				l1.6-4.3l0.3-1.1l-1.9,0.7l3-8.3l0.1-0.2l-1.4,0.8l8.5-26.4l0.1,0.4l0.1-0.4l0.7,2.5l7.8,21.2l-2.3-0.6l3.4,10l7-16l0.1,0.3
				l0.1-0.3l0.6,1.8l7.5,14.8l-2.2-0.4l1.5,3.2l3.2-8.2l-2.2,0.5l7.6-17.9l0.7-2.1l0.1,0.3l0.1-0.3l8.2,22.4l-1.3-0.6l0.1,0.2
				l2.9,7.1l-1.8-0.6l0.3,0.9l2.2,5.3l3.2-8.9l0.3-1.1l-1.9,0.7l3-8.4l0.1-0.2l-1.4,0.8l8.5-26.7l0.1,0.4l0.1-0.4l0.7,2.6l7.9,21.4
				l-2.3-0.6l4.9,14.5l4.7-10.2l-2.8,0.5l9.4-18.7l0.8-2.2l0.1,0.3l0.2-0.3l10.2,23.3l-1.7-0.7l0.1,0.2l3.6,7.4l-2.3-0.6l0.3,1
				l5,10.2l3.4-6.9l0.3-0.9l-1.9,0.5l3-6.2l0.1-0.2l-1.4,0.6l8.6-19.7l0,0l0,0l0.1,0.3l0.1-0.3l0.7,1.9l8,15.8l-2.3-0.4l3,6.5
				l6-13.7l0,0l0,0l0.1,0.2l0.1-0.2l0.5,1.4l0.6,1.1l9-20.5l0.2,0.3l0.1-0.3l0.8,2.2l9.4,18.7l-2.8-0.5l4.7,10.2l4.9-14.5l-2.3,0.6
				l7.9-21.4l0.7-2.6l0.1,0.4l0.1-0.4l8.5,26.7l-1.4-0.8l0.1,0.2l3,8.4l-1.9-0.7l0.3,1.1l3.2,8.9l2.2-5.3l0.3-0.9l-1.8,0.6l2.9-7.1
				l0.1-0.2l-1.3,0.6l8.2-22.4l0.1,0.3l0.1-0.3l0.7,2.1l7.6,17.9l-2.2-0.5l3.2,8.2l1.5-3.2l-2.2,0.4l7.5-14.8l0.6-1.8l0.1,0.3
				l0.1-0.3l7,16l3.4-10l-2.3,0.6l7.8-21.2l0.7-2.5l0.1,0.4l0.1-0.4l8.5,26.4l-1.4-0.8l0.1,0.2l3,8.3l-1.9-0.7l0.3,1.1l1.6,4.3
				l2.9-11.2l-1.5,0.5l5.2-18.3l0.5-2.2l0.1,0.3l0.1-0.3l5.7,22.8l-0.9-0.7v0.2l2,7.2l-1.3-0.6l0.2,0.9l2.1,7.6l2.6-7.3l0.2-0.9
				l-1.6,0.6l2.5-7.1l0.1-0.2l-1.2,0.7l7.2-22.5l0.1,0.3l0.1-0.3l0.6,2.2l6.6,18.1l-1.9-0.5l3.1,9.1l1-2.8l0.3-1.1l-1.9,0.7l3-8.4
				l0.1-0.2l-1.4,0.8l8.5-26.7l0.1,0.4l0.1-0.4l0.7,2.6l7.9,21.4l-2.3-0.6l4.9,14.5l4.7-10.2l-2.8,0.5l9.4-18.7l0.8-2.2l0.1,0.3
				l0.2-0.3l9.3,21.2l4.6-10l-3.6,0.7l12.3-24.5l1.1-2.9l0.2,0.5l0.2-0.5l13.4,30.5l-2.2-0.9l0.1,0.3l4.7,9.6l-3-0.8l0.4,1.3
				l2.9,5.8l4.7-9.4l0.4-1.3l-3.4,0.9l5.3-10.8l0.1-0.3l-2.5,1l15.1-34.3l0.3,0.5l0.2-0.5l1.2,3.3l13.9,27.5l-4.1-0.7l6.9,14.9
				l7.2-21.3l-3.4,0.8l11.6-31.5l1-3.8l0.2,0.6l0.2-0.6l12.6,39.2l-2.1-1.1l0.1,0.3l4.4,12.4l-2.8-1l0.4,1.5l4.8,13.3l3.3-7.9
				l0.3-1.2l-2.7,0.8l4.2-10.4l0.1-0.3l-2,0.9l12.1-32.9l0.2,0.5l0.2-0.5l1,3.2l11.2,26.4l-3.3-0.7l4.7,12.1l2.2-4.8l-3.2,0.6
				l11-21.8l1-2.6l0.2,0.4l0.2-0.4l10.3,23.5l5-14.7l-3.4,0.8l11.5-31.2l1-3.7l0.2,0.6l0.2-0.6l12.5,38.9l-2-1.1l0.1,0.3l4.3,12.3
				l-2.8-1l0.4,1.5l2.4,6.5l4.3-16.5l-2.3,0.7l7.7-26.9l0.7-3.2l0.1,0.5l0.1-0.5l8.4,33.6l-1.4-1l0.1,0.3l2.9,10.6l-1.9-0.8l0.2,1.2
				l3.2,11.3l3.9-10.9l0.3-1.2l-2.4,0.8l3.7-10.5l0.1-0.3l-1.7,1l10.6-33.1l0.2,0.5l0.1-0.5l0.8,3.2l9.8,26.6l-2.9-0.7l4.5,13.4
				l1.5-4.2l0.4-1.5l-2.8,1l4.4-12.4l0.1-0.3l-2.1,1.1l12.6-39.2l0.2,0.6l0.2-0.6l1,3.8l11.6,31.5l-3.4-0.8l7.2,21.3l6.9-14.9
				l-4.1,0.7l13.9-27.5l1.2-3.3l0.2,0.5l0.3-0.5l13.7,31.2l6.8-14.7l-5.3,1l18.1-36l1.6-4.3l0.3,0.7l0.3-0.7l0.6,1.4l0.8-775h33
				V1659.5z M1274.1,1641.2l-0.2,0.9l-0.4,1.2l-0.5-1.3L1274.1,1641.2z M1253.9,1638.3l-0.3,1l0,0l-0.3-0.7L1253.9,1638.3z
				 M1197.6,1638.1l-0.3,1l-1.2,2.6l-1-2.1L1197.6,1638.1z M1196,1642l-0.9,2l-1.4-2.3l-0.3-0.9L1196,1642z M1166.8,1641.6
				L1166.8,1641.6L1166.8,1641.6L1166.8,1641.6z M1118.6,1640.8l-0.3,0.9l-1.4,2.3l-0.9-2L1118.6,1640.8z M1116.8,1639.6l-1,2.1
				l-1.2-2.6l-0.3-1L1116.8,1639.6z M1058.7,1638.7l-0.3,0.7l0,0l-0.3-1L1058.7,1638.7z M1038.9,1642l-0.5,1.3l-0.4-1.2l-0.2-0.9
				L1038.9,1642z M1643.7,1618.4L1643.7,1618.4L1643.7,1618.4L1643.7,1618.4z M1615.3,1631.8l-0.4,1.3l-2.2,3.4l-1.4-2.9
				L1615.3,1631.8z M1612.6,1630.1l-1.5,3.1l-1.8-3.9l-0.4-1.5L1612.6,1630.1z M1580.7,1633l-0.2,0.6l-0.2-0.8L1580.7,1633z
				 M1534.5,1632.4l-0.2,1.2l-0.7,1.9l-0.7-1.9L1534.5,1632.4z M1504.7,1628.2l-0.4,1.5v0.1l-0.5-1L1504.7,1628.2z M1421.9,1627.9
				l-0.4,1.5l-1.8,3.9l-1.5-3.1L1421.9,1627.9z M1419.6,1633.6l-1.4,2.9l-2.2-3.4l-0.4-1.3L1419.6,1633.6z M1348.4,1631.6
				L1348.4,1631.6L1348.4,1631.6L1348.4,1631.6z M1329.1,1640.8l-0.3,0.9l-1.4,2.3l-0.9-2L1329.1,1640.8z M1327.3,1639.6l-1,2.1
				l-1.2-2.6l-0.3-1L1327.3,1639.6z M1305.6,1641.6l-0.1,0.4l-0.1-0.5L1305.6,1641.6z M1006.7,1641.4l-0.1,0.5l-0.1-0.4
				L1006.7,1641.4z M987.2,1638.1l-0.3,1l-1.2,2.6l-1-2.1L987.2,1638.1z M985.6,1642l-0.9,2l-1.4-2.3l-0.3-0.9L985.6,1642z
				 M963.7,1631.6L963.7,1631.6L963.7,1631.6L963.7,1631.6z M896.4,1631.8l-0.4,1.3l-2.2,3.4l-1.4-2.9L896.4,1631.8z M893.7,1630.1
				l-1.5,3.1l-1.8-3.9l-0.4-1.5L893.7,1630.1z M808.2,1628.7l-0.5,1v-0.1l-0.4-1.5L808.2,1628.7z M779.1,1633.6l-0.7,1.9l-0.7-1.9
				l-0.2-1.2L779.1,1633.6z M731.7,1632.8l-0.2,0.8l-0.2-0.6L731.7,1632.8z M703,1627.9l-0.4,1.5l-1.8,3.9l-1.5-3.1L703,1627.9z
				 M700.7,1633.6l-1.4,2.9l-2.2-3.4l-0.4-1.3L700.7,1633.6z M668.4,1618.3L668.4,1618.3L668.4,1618.3L668.4,1618.3z"/>
		</g>
	</g>
</g>
<g>
	<defs>
		<rect id="SVGID_3_" x="312" y="-340" width="1024" height="463.7"/>
	</defs>
	<clipPath id="SVGID_4_">
		<use xlink:href="#SVGID_3_"  style="overflow:visible;"/>
	</clipPath>
	<g class="st3">
		<g>
			<defs>
				<rect id="SVGID_5_" x="313" y="-326.5" width="1024" height="981"/>
			</defs>
			<clipPath id="SVGID_6_">
				<use xlink:href="#SVGID_5_"  style="overflow:visible;"/>
			</clipPath>
			<g class="st4">
				<polygon class="st1" points="1280.2,-241.8 1281.6,-244.9 1278,-247.1 1278.4,-245.6 				"/>
				<polygon class="st1" points="1281.7,-238.5 1283.9,-241.9 1284.3,-243.2 1280.3,-241.4 				"/>
				<path class="st1" d="M1312.7-256.6l-0.1-0.1L1312.7-256.6z"/>
				<polygon class="st1" points="727.4,-235.7 727.7,-236.3 727.1,-236.7 				"/>
				<polygon class="st1" points="707.5,-231.7 707.9,-233 706.9,-233.8 707,-232.9 				"/>
				<polygon class="st1" points="1090.5,-245.6 1090.9,-247.1 1087.3,-244.9 1088.7,-241.8 				"/>
				<polygon class="st1" points="1249.7,-242 1249.3,-242.2 1249.5,-241.4 				"/>
				<polygon class="st1" points="1173.3,-245.4 1173.7,-246.8 1172.8,-246.3 1173.3,-245.3 				"/>
				<polygon class="st1" points="1203.2,-241.4 1203.5,-242.6 1201.9,-241.4 1202.6,-239.5 				"/>
				<polygon class="st1" points="1087.2,-238.5 1088.6,-241.4 1084.6,-243.2 1085,-241.9 				"/>
				<polygon class="st1" points="866.3,-235.9 866.6,-236.9 864.2,-235.4 865.1,-233.3 				"/>
				<polygon class="st1" points="943,-232.9 943.1,-233.8 942.1,-233 942.5,-231.7 				"/>
				<polygon class="st1" points="922.6,-235.7 922.9,-236.7 922.3,-236.3 				"/>
				<path class="st1" d="M835.8-233.4L835.8-233.4L835.8-233.4z"/>
				<polygon class="st1" points="864.1,-231 865,-233 862.4,-234.2 862.7,-233.3 				"/>
				<polygon class="st1" points="785.9,-231 787.3,-233.3 787.6,-234.2 785,-233 				"/>
				<polygon class="st1" points="784.9,-233.3 785.8,-235.4 783.4,-236.9 783.7,-235.9 				"/>
				<polygon class="st1" points="675.7,-233.6 675.4,-233.4 675.6,-233 				"/>
				<polygon class="st1" points="400.7,-242.2 400.3,-242 400.5,-241.4 				"/>
				<polygon class="st1" points="447.4,-239.5 448.1,-241.4 446.5,-242.6 446.8,-241.4 				"/>
				<polygon class="st1" points="371.6,-245.6 372,-247.1 368.4,-244.9 369.8,-241.8 				"/>
				<polygon class="st1" points="476.7,-245.3 477.2,-246.3 476.3,-246.8 476.7,-245.4 				"/>
				<polygon class="st1" points="561.3,-241.8 562.7,-244.9 559.1,-247.1 559.5,-245.6 				"/>
				<polygon class="st1" points="368.3,-238.5 369.7,-241.4 365.7,-243.2 366.1,-241.9 				"/>
				<polygon class="st1" points="337.4,-256.7 337.3,-256.6 337.3,-256.6 				"/>
				<polygon class="st1" points="995.3,-233.3 996.3,-235.4 993.8,-236.9 994.1,-235.9 				"/>
				<polygon class="st1" points="1017.4,-243.4 1017.3,-243.4 1017.3,-243.3 				"/>
				<polygon class="st1" points="562.8,-238.5 565,-241.9 565.4,-243.2 561.4,-241.4 				"/>
				<polygon class="st1" points="996.3,-231 997.8,-233.3 998.1,-234.2 995.4,-233 				"/>
				<polygon class="st1" points="974.6,-233.4 974.3,-233.6 974.4,-233 				"/>
				<polygon class="st1" points="655.9,-235.9 656.2,-236.9 653.7,-235.4 654.7,-233.3 				"/>
				<polygon class="st1" points="653.7,-231 654.6,-233 651.9,-234.2 652.2,-233.3 				"/>
				<polygon class="st1" points="632.7,-243.4 632.6,-243.4 632.7,-243.3 				"/>
				<path class="st2" d="M1370.5-215.5l-6.9-13.5v-0.1l4.9,1.9l-13.3-26.9l-0.6-1.7l4.4,1.1l-6.9-14.2l-0.2-0.4l3.2,1.3l-19.7-44.9
					l-0.3,0.7l-0.3-0.7l-1.6,4.3l-18.1,36l5.3-1l-6.8,14.7L1300-290l-0.3,0.5l-0.2-0.5l-1.2,3.3l-13.9,27.5l4.1-0.7l-6.8,14.9
					l-7.2-21.3l3.4,0.8l-11.6-31.5l-1-3.8l-0.2,0.6l-0.2-0.6l-12.6,39.2l2.1-1.1l-0.1,0.3l-4.4,12.4l2.8-1l-0.4,1.5l-1.5,4.2
					l-4.5-13.4l2.9,0.7l-9.8-26.6l-0.8-3.2l-0.1,0.5l-0.2-0.5l-10.6,33.1l1.7-1l-0.1,0.3l-3.7,10.5l2.4-0.8l-0.3,1.2l-3.9,10.9
					l-3.2-11.3l-0.2-1.2l1.9,0.8l-2.9-10.6l-0.1-0.3l1.4,1l-8.4-33.6l-0.1,0.5l-0.1-0.5l-0.7,3.2l-7.7,26.9l2.3-0.7l-4.3,16.5
					l-2.4-6.5l-0.4-1.5l2.8,1l-4.3-12.3l-0.1-0.3l2,1.1l-12.5-38.9l-0.2,0.6l-0.2-0.6l-1,3.7l-11.5,31.2l3.4-0.8l-5,14.7l-10.3-23.1
					l-0.2,0.4l-0.2-0.4l-1,2.6l-11,21.8l3.2-0.6l-2.2,4.8l-4.6-12.1l3.3,0.7l-11.2-26.4l-1-3.2l-0.2,0.5l-0.2-0.5l-12.1,33l2-0.9
					l-0.1,0.3l-4.2,10.4l2.7-0.8l-0.3,1.2l-3.3,7.9l-4.8-13.3l-0.4-1.5l2.8,1l-4.4-12.4l-0.1-0.3l2.1,1.1l-12.6-39.3l-0.2,0.6
					l-0.2-0.6l-1,3.8l-11.6,31.4l3.4-0.8l-7.2,21.2l-6.9-14.9l4.1,0.7l-13.9-27.5l-1.2-3.3l-0.2,0.5l-0.3-0.5l-15.1,34.3l2.5-1
					l-0.1,0.3l-5.3,10.8l3.4-0.9l-0.4,1.3l-4.7,9.4l-2.9-5.8l-0.4-1.3l3,0.8l-4.7-9.6l-0.1-0.3l2.2,0.9l-13.4-30.5l-0.2,0.5
					l-0.2-0.5l-1.1,2.9l-12.3,24.5l3.6-0.7l-4.6,10l-9.3-21.2l-0.2,0.3l-0.1-0.3l-0.8,2.2l-9.4,18.7l2.8-0.5l-4.7,10.2l-4.9-14.5
					l2.3,0.6l-7.9-21.4l-0.7-2.6L985-273l-0.1-0.4l-8.5,26.7l1.4-0.8l-0.1,0.2l-3,8.4l1.9-0.7l-0.3,1.1l-1,2.8l-3.1-9.1l1.9,0.5
					l-6.6-18.1l-0.6-2.2l-0.1,0.3l-0.1-0.3l-7.2,22.5l1.2-0.7l-0.1,0.2l-2.5,7.1l1.6-0.6l-0.2,0.9l-2.6,7.3l0,0l-2.1-7.5l-0.2-0.9
					l1.3,0.6l-2-7.2v-0.2l0.9,0.7l-5.7-22.6l-0.1,0.3l-0.1-0.3l-0.5,2.2l-5.2,18.3l1.5-0.5l-2.9,11.2l-1.6-4.3l-0.3-1.1l1.9,0.7
					l-3-8.3l-0.1-0.2l1.4,0.8l-8.5-26.4l-0.1,0.4l-0.1-0.4l-0.7,2.5L923-249l2.3-0.6l-3.4,10l-7-16l-0.1,0.3l-0.1-0.3l-0.6,1.8
					l-7.5,14.8l2.2-0.4l-1.5,3.2l-3.2-8.2l2.2,0.5l-7.6-17.9L898-264l-0.1,0.3l-0.1-0.3l-8.2,22.4l1.3-0.6l-0.1,0.2l-2.9,7.1
					l1.8-0.6l-0.3,0.9l-2.2,5.3l-3.2-8.9l-0.3-1.1l1.9,0.7l-3-8.4l-0.1-0.2l1.4,0.8l-8.5-26.7l-0.1,0.4l-0.1-0.4l-0.7,2.6l-7.9,21.4
					l2.3-0.6l-4.9,14.5l-4.7-10.2l2.8,0.5l-9.4-18.7l-0.8-2.2l-0.1,0.3l-0.2-0.3l-9,20.5l-0.6-1.1l-0.5-1.4l-0.1,0.2l-0.1-0.2l0,0
					l0,0l-6,13.7l-3-6.5l2.3,0.4l-8-15.8l-0.7-1.9l-0.1,0.3l-0.1-0.3l0,0l0,0l-8.6,19.7l1.4-0.6l-0.1,0.2l-3,6.2l1.9-0.5L817-232
					l-2.3,4.6h-2.2l-3.9-7.9l-0.3-1l2.3,0.6l-3.6-7.4l-0.1-0.2l1.7,0.7l-10.2-23.3l-0.2,0.3l-0.1-0.3l-0.8,2.2l-9.4,18.7l2.8-0.5
					l-4.7,10.2l-5-14.6l2.3,0.6l-7.9-21.4l-0.7-2.6l-0.1,0.4l-0.1-0.4l-8.5,26.7l1.4-0.8l-0.1,0.2l-3,8.4l1.9-0.7l-0.3,1.1l-3.2,8.9
					l-2.2-5.3l-0.3-0.9l1.8,0.6l-2.9-7.1l-0.1-0.2l1.3,0.6l-8.1-22.2l-0.1,0.3L752-264l-0.7,2.1l-7.6,17.9l2.2-0.5l-3.2,8.2
					l-1.5-3.2l2.2,0.4l-7.4-14.7l-0.6-1.8l-0.1,0.3l-0.1-0.3l-7,16l-3.4-10l2.2,0.6l-7.8-21.2l-0.7-2.5l-0.1,0.4l-0.1-0.4l-8.5,26.4
					l1.4-0.8l-0.1,0.2l-3,8.3l1.9-0.7l-0.3,1.1l-1.6,4.3l-2.8-11.1l1.5,0.5l-5.2-18.3l-0.5-2.2l-0.1,0.3l-0.1-0.3l-5.7,22.8l0.9-0.7
					v0.2l-2,7.2l1.3-0.6l-0.2,0.9l-2.1,7.5l0,0l-2.6-7.3l-0.2-0.9l1.6,0.6l-2.5-7.1l-0.1-0.2l1.2,0.7l-7.2-22.5l-0.1,0.3l-0.1-0.3
					l-0.6,2.2l-6.6,18.1l1.9-0.5l-3.1,9.1l-1-2.8l-0.3-1.1l1.9,0.7l-3-8.4l-0.1-0.2l1.4,0.8l-8.5-26.7l-0.1,0.4l-0.1-0.4l-0.7,2.6
					l-7.9,21.4l2.3-0.6l-4.9,14.5l-4.7-10.3l2.8,0.5l-9.4-18.7l-0.8-2.2l-0.1,0.3l-0.2-0.3l-9.3,21.2l-4.6-10l3.6,0.7l-12.3-24.5
					l-1.1-2.9l-0.2,0.5l-0.2-0.5L603.8-251l2.2-0.9l-0.1,0.3l-4.7,9.6l3-0.8l-0.4,1.3l-2.9,5.8l-4.7-9.4l-0.4-1.3l3.4,0.9l-5.3-10.8
					l-0.1-0.3l2.5,1L581.1-290l-0.3,0.5l-0.2-0.5l-1.2,3.3l-13.9,27.5l4.1-0.7l-6.8,14.9l-7.2-21.3l3.4,0.8L547.4-297l-1-3.8
					l-0.2,0.6l-0.2-0.6l-12.6,39.2l2.1-1.1l-0.1,0.3l-4.4,12.6l2.8-1l-0.4,1.5l-4.8,13.3l-3.3-7.9l-0.3-1.2l2.7,0.8l-4.2-10.4
					l-0.1-0.3l2,0.9L513.3-287l-0.2,0.5l-0.2-0.5l-1,3.2l-11.2,26.4l3.3-0.7l-4.7,12.1l-2.2-4.8l3.2,0.6l-11-21.8l-1-2.6l-0.2,0.4
					l-0.2-0.4l-10.3,23.5l-5-14.7l3.4,0.8l-11.5-31.2l-1-3.7l-0.2,0.6l-0.2-0.6L450.9-261l2-1.1l-0.1,0.3l-4.3,12.3l2.8-1l-0.4,1.5
					l-2.4,6.5l-4.3-16.5l2.3,0.7l-7.7-26.9l-0.7-3.2l-0.1,0.5l-0.1-0.5l-8.4,33.6l1.4-1l-0.1,0.3l-2.9,10.6l1.9-0.8l-0.2,1.2
					l-3.2,11.3l-3.9-10.9l-0.3-1.2l2.4,0.8l-3.9-10.5l-0.1-0.3l1.7,1l-10.5-33.2l-0.2,0.5l-0.1-0.5l-0.8,3.2l-9.8,26.6l2.9-0.7
					l-4.6,13.4l-1.5-4.2l-0.4-1.5l2.8,1l-4.4-12.4l-0.1-0.3l2.1,1.1l-12.6-39.3l-0.2,0.6l-0.2-0.6l-1,3.8l-11.6,31.4l3.4-0.8
					l-7.2,21.2l-6.9-14.9l4.1,0.7l-13.9-27.5l-1.2-3.3l-0.2,0.5L350-290l-13.7,31.2l-6.8-14.7l5.3,1l-18.1-36l-1.6-4.3l-0.3,0.7
					l-0.3-0.7l-1.5,3.4v-44v44.1L294.8-268l3.2-1.3l-0.2,0.4l-6.8,14.2l4.4-1.1l-0.6,1.7l-13.3,26.9l4.9-1.9v0.1l-6.9,13.5h33.4
					l-0.8,779.2l2.4-5.5l0.3,0.7l0.3-0.7l1.6,4.3l18.1,36l-5.3-1l6.8,14.7L350,581l0.3,0.5l0.2-0.5l1.2,3.3l13.9,27.5l-4.1-0.7
					l6.9,14.9l7.2-21.3l-3.4,0.8l11.6-31.5l1-3.8l0.2,0.6l0.2-0.6l12.6,39.2l-2.1-1.1l0.1,0.3l4.4,12.4l-2.8-1l0.4,1.5l1.5,4.2
					l4.5-13.4l-2.9,0.7l9.8-26.6l0.8-3.2l0.1,0.5l0.2-0.5l10.6,33.1l-1.7-1l0.1,0.3l3.7,10.5l-2.4-0.8l0.3,1.2l3.9,10.9l3.2-11.3
					l0.2-1.2l-1.9,0.8l2.9-10.6l0.1-0.3l-1.4,1l8.4-33.6l0.1,0.5l0.1-0.5l0.7,3.2l7.7,26.9l-2.3-0.7l4.3,16.5l2.4-6.5l0.4-1.5
					l-2.8,1l4.3-12.3l0.1-0.3l-2,1.1l12.5-38.9l0.2,0.6l0.2-0.6l1,3.7l11.5,31.2l-3.4-0.8l5,14.7l10.3-23.5l0.2,0.4l0.2-0.4l1,2.6
					l11,21.8l-3.2-0.6l2.2,4.8l4.7-12.1l-3.3,0.7l11.2-26.4l1-3.2l0.2,0.5l0.2-0.5l12.1,32.9l-2-0.9l0.1,0.3l4.2,10.4l-2.7-0.8
					l0.3,1.2l3.3,7.9l4.8-13.3l0.4-1.5l-2.8,1l4.4-12.4l0.1-0.3l-2.1,1.1l12.6-39.2l0.2,0.6l0.2-0.6l1,3.8l11.6,31.5l-3.4-0.8
					l7.2,21.3l6.9-14.9l-4.1,0.7l13.9-27.5l1.2-3.3l0.2,0.5l0.3-0.5l15.1,34.3l-2.5-1l0.1,0.3l5.3,10.8l-3.4-0.9l0.4,1.3l4.7,9.4
					l2.9-5.8l0.4-1.3l-3,0.8l4.7-9.6l0.1-0.3l-2.2,0.9l13.4-30.5l0.2,0.5l0.2-0.5l1.1,2.9l12.3,24.5l-3.6-0.7l4.6,10l9.3-21.2
					l0.2,0.3l0.1-0.3l0.8,2.2l9.4,18.7l-2.8-0.5l4.7,10.2l4.9-14.5l-2.3,0.6l7.9-21.4l0.7-2.6l0.1,0.4l0.1-0.4l8.5,26.7l-1.4-0.8
					l0.1,0.2l3,8.4l-1.9-0.7l0.3,1.1l1,2.8l3.1-9.1l-1.9,0.5l6.6-18.1l0.6-2.2l0.1,0.3l0.1-0.3l7.2,22.5l-1.2-0.7l0.1,0.2l2.5,7.1
					l-1.6-0.6l0.2,0.9l2.6,7.3l2.1-7.6l0.2-0.9l-1.3,0.6l2-7.2v-0.2l-0.9,0.7l5.7-22.8l0.1,0.3l0.1-0.3l0.5,2.2L707,626l-1.5-0.5
					l2.9,11.2l1.6-4.3l0.3-1.1l-1.9,0.7l3-8.3l0.1-0.2l-1.4,0.8l8.5-26.4l0.1,0.4l0.1-0.4l0.7,2.5L727,622l-2.3-0.6l3.4,10l7-16
					l0.1,0.3l0.1-0.3l0.6,1.8l7.5,14.8l-2.2-0.4l1.5,3.2l3.2-8.2l-2.2,0.5l7.6-17.9l0.7-2.1l0.1,0.3l0.1-0.3l8.2,22.4l-1.3-0.6
					l0.1,0.2l2.9,7.1l-1.8-0.6l0.3,0.9l2.2,5.3l3.2-8.9l0.3-1.1l-1.9,0.7l3-8.4l0.1-0.2l-1.4,0.8l8.5-26.7l0.1,0.4l0.1-0.4l0.7,2.6
					l7.9,21.4l-2.3-0.6l4.9,14.5l4.7-10.2l-2.8,0.5l9.4-18.7l0.8-2.2l0.1,0.3l0.2-0.3l10.2,23.3l-1.7-0.7l0.1,0.2l3.6,7.4l-2.3-0.6
					l0.3,1l5,10.2l3.4-6.9l0.3-0.9l-1.9,0.5l3-6.2l0.1-0.2l-1.4,0.6l8.6-19.7l0,0l0,0l0.1,0.3l0.1-0.3l0.7,1.9l8,15.8l-2.3-0.4
					l3,6.5l6-13.7l0,0l0,0l0.1,0.2l0.1-0.2l0.5,1.4l0.6,1.1l9-20.5l0.2,0.3l0.1-0.3l0.8,2.2l9.4,18.7l-2.8-0.5L864,636l4.9-14.5
					l-2.3,0.6l7.9-21.4l0.7-2.6l0.1,0.4l0.1-0.4l8.5,26.7l-1.4-0.8l0.1,0.2l3,8.4l-1.9-0.7l0.3,1.1l3.2,8.9l2.2-5.3l0.3-0.9
					l-1.8,0.6l2.9-7.1l0.1-0.2l-1.3,0.6l8.2-22.4l0.1,0.3l0.1-0.3l0.7,2.1l7.6,17.9l-2.2-0.5l3.2,8.2l1.5-3.2l-2.2,0.4l7.5-14.8
					l0.6-1.8l0.1,0.3l0.1-0.3l7,16l3.4-10L923,622l7.8-21.2l0.7-2.5l0.1,0.4l0.1-0.4l8.5,26.4l-1.4-0.8l0.1,0.2l3,8.3l-1.9-0.7
					l0.3,1.1l1.6,4.3l2.9-11.2l-1.5,0.5l5.2-18.3l0.5-2.2l0.1,0.3l0.1-0.3l5.7,22.8L954,628v0.2l2,7.2l-1.3-0.6l0.2,0.9l2.1,7.6
					l2.6-7.3l0.2-0.9l-1.6,0.6l2.5-7.1l0.1-0.2l-1.2,0.7l7.2-22.5l0.1,0.3l0.1-0.3l0.6,2.2l6.6,18.1l-1.9-0.5l3.1,9.1l1-2.8l0.3-1.1
					l-1.9,0.7l3-8.4l0.1-0.2l-1.4,0.8l8.5-26.7l0.1,0.4l0.1-0.4l0.7,2.6l7.9,21.4l-2.3-0.6l4.9,14.5l4.7-10.2l-2.8,0.5l9.4-18.7
					l0.8-2.2l0.1,0.3l0.2-0.3l9.3,21.2l4.6-10l-3.6,0.7l12.3-24.5l1.1-2.9l0.2,0.5l0.2-0.5l13.4,30.5l-2.2-0.9l0.1,0.3l4.7,9.6
					l-3-0.8l0.4,1.3l2.9,5.8l4.7-9.4l0.4-1.3l-3.4,0.9l5.3-10.8l0.1-0.3l-2.5,1l15.1-34.3l0.3,0.5l0.2-0.5l1.2,3.3l13.9,27.5
					l-4.1-0.7l6.9,14.9l7.2-21.3l-3.4,0.8l11.6-31.5l1-3.8l0.2,0.6l0.2-0.6l12.6,39.2l-2.1-1.1l0.1,0.3l4.4,12.4l-2.8-1l0.4,1.5
					l4.8,13.3l3.3-7.9l0.3-1.2l-2.7,0.8l4.2-10.4l0.1-0.3l-2,0.9l12.1-32.9l0.2,0.5l0.2-0.5l1,3.2l11.2,26.4l-3.3-0.7l4.7,12.1
					l2.2-4.8l-3.2,0.6l11-21.8l1-2.6l0.2,0.4l0.2-0.4l10.3,23.5l5-14.7l-3.4,0.8l11.5-31.2l1-3.7l0.2,0.6l0.2-0.6l12.5,38.9l-2-1.1
					l0.1,0.3l4.3,12.3l-2.8-1l0.4,1.5l2.4,6.5l4.3-16.5l-2.3,0.7l7.7-26.9l0.7-3.2l0.1,0.5l0.1-0.5l8.4,33.6l-1.4-1l0.1,0.3
					l2.9,10.6l-1.9-0.8l0.2,1.2l3.2,11.3l3.9-10.9l0.3-1.2l-2.4,0.8l3.7-10.5l0.1-0.3l-1.7,1l10.6-33.1l0.2,0.5l0.1-0.5l0.8,3.2
					l9.8,26.6l-2.9-0.7l4.5,13.4l1.5-4.2l0.4-1.5l-2.8,1l4.4-12.4l0.1-0.3l-2.1,1.1l12.6-39.2l0.2,0.6l0.2-0.6l1,3.8l11.6,31.5
					l-3.4-0.8l7.2,21.3l6.9-14.9l-4.1,0.7l13.9-27.5l1.2-3.3l0.2,0.5l0.3-0.5l13.7,31.2l6.8-14.7l-5.3,1l18.1-36l1.6-4.3l0.3,0.7
					l0.3-0.7l0.6,1.4l0.8-775h33.3V-215.5z M943.1-233.8l-0.2,0.9l-0.4,1.2L942-233L943.1-233.8z M922.9-236.7l-0.3,1l0,0l-0.3-0.7
					L922.9-236.7z M866.6-236.9l-0.3,1l-1.2,2.6l-1-2.1L866.6-236.9z M865-233l-0.9,2l-1.4-2.3l-0.3-0.9L865-233z M835.8-233.4
					L835.8-233.4L835.8-233.4L835.8-233.4z M787.6-234.2l-0.3,0.9l-1.4,2.3l-0.9-2L787.6-234.2z M785.8-235.4l-1,2.1l-1.2-2.6
					l-0.3-1L785.8-235.4z M727.7-236.3l-0.3,0.7l0,0l-0.3-1L727.7-236.3z M707.9-233l-0.5,1.3l-0.4-1.2l-0.2-0.9L707.9-233z
					 M1312.7-256.6L1312.7-256.6L1312.7-256.6L1312.7-256.6z M1284.3-243.2l-0.4,1.3l-2.2,3.4l-1.4-2.9L1284.3-243.2z M1281.6-244.9
					l-1.5,3.1l-1.8-3.9l-0.4-1.5L1281.6-244.9z M1249.7-242l-0.2,0.6l-0.2-0.8L1249.7-242z M1203.5-242.6l-0.2,1.2l-0.7,1.9
					l-0.7-1.9L1203.5-242.6z M1173.7-246.8l-0.4,1.5v0.1l-0.5-1L1173.7-246.8z M1090.9-247.1l-0.4,1.5l-1.8,3.9l-1.5-3.1
					L1090.9-247.1z M1088.6-241.4l-1.4,2.9l-2.2-3.4l-0.4-1.3L1088.6-241.4z M1017.4-243.4L1017.4-243.4L1017.4-243.4L1017.4-243.4z
					 M998.1-234.2l-0.3,0.9l-1.4,2.3l-0.9-2L998.1-234.2z M996.3-235.4l-1,2.1l-1.2-2.6l-0.3-1L996.3-235.4z M974.6-233.4l-0.1,0.4
					l-0.1-0.5L974.6-233.4z M675.7-233.6l-0.1,0.5l-0.1-0.4L675.7-233.6z M656.2-236.9l-0.3,1l-1.2,2.6l-1-2.1L656.2-236.9z
					 M654.6-233l-0.9,2l-1.4-2.3l-0.3-0.9L654.6-233z M632.7-243.4L632.7-243.4L632.7-243.4L632.7-243.4z M565.4-243.2l-0.4,1.3
					l-2.2,3.4l-1.4-2.9L565.4-243.2z M562.7-244.9l-1.5,3.1l-1.8-3.9l-0.4-1.5L562.7-244.9z M477.2-246.3l-0.5,1v-0.1l-0.4-1.5
					L477.2-246.3z M448.1-241.4l-0.7,1.9l-0.7-1.9l-0.2-1.2L448.1-241.4z M400.7-242.2l-0.2,0.8l-0.2-0.6L400.7-242.2z M372-247.1
					l-0.4,1.5l-1.8,3.9l-1.5-3.1L372-247.1z M369.7-241.4l-1.4,2.9l-2.2-3.4l-0.4-1.3L369.7-241.4z M337.4-256.7v0.1V-256.7
					L337.4-256.7z"/>
			</g>
		</g>
	</g>
</g>
</svg>
