<?xml version="1.0" encoding="utf-8"?>
<!-- Generator: Adobe Illustrator 19.1.0, SVG Export Plug-In . SVG Version: 6.00 Build 0)  -->
<svg version="1.1" id="Layer_1" xmlns="http://www.w3.org/2000/svg" xmlns:xlink="http://www.w3.org/1999/xlink" x="0px" y="0px"
	 viewBox="494 -213.5 1024 463.5" style="enable-background:new 494 -213.5 1024 463.5;" xml:space="preserve">
<style type="text/css">
	.st0{clip-path:url(#SVGID_2_);}
	.st1{clip-path:url(#SVGID_4_);}
	.st2{fill:none;}
	.st3{fill:#D15028;}
</style>
<g>
	<g>
		<defs>
			<rect id="SVGID_1_" x="494" y="-213.6" width="1024" height="463.7"/>
		</defs>
		<clipPath id="SVGID_2_">
			<use xlink:href="#SVGID_1_"  style="overflow:visible;"/>
		</clipPath>
		<g class="st0">
			<g>
				<g>
					<defs>
						<rect id="SVGID_3_" x="495" y="-200.1" width="1024" height="981"/>
					</defs>
					<clipPath id="SVGID_4_">
						<use xlink:href="#SVGID_3_"  style="overflow:visible;"/>
					</clipPath>
					<g class="st1">
						<polygon class="st2" points="1462.2,-115.4 1463.6,-118.5 1460,-120.7 1460.4,-119.2 						"/>
						<polygon class="st2" points="1463.7,-112.1 1465.9,-115.5 1466.3,-116.8 1462.3,-115 						"/>
						<path class="st2" d="M1494.7-130.2l-0.1-0.1L1494.7-130.2z"/>
						<polygon class="st2" points="909.4,-109.3 909.7,-109.9 909.1,-110.3 						"/>
						<polygon class="st2" points="889.5,-105.3 889.9,-106.6 888.9,-107.4 889,-106.5 						"/>
						<polygon class="st2" points="1272.5,-119.2 1272.9,-120.7 1269.3,-118.5 1270.7,-115.4 						"/>
						<polygon class="st2" points="1431.7,-115.6 1431.3,-115.8 1431.5,-115 						"/>
						<polygon class="st2" points="1355.3,-119 1355.7,-120.4 1354.8,-119.9 1355.3,-118.9 						"/>
						<polygon class="st2" points="1385.2,-115 1385.5,-116.2 1383.9,-115 1384.6,-113.1 						"/>
						<polygon class="st2" points="1269.2,-112.1 1270.6,-115 1266.6,-116.8 1267,-115.5 						"/>
						<polygon class="st2" points="1048.3,-109.5 1048.6,-110.5 1046.2,-109 1047.1,-106.9 						"/>
						<polygon class="st2" points="1125,-106.5 1125.1,-107.4 1124.1,-106.6 1124.5,-105.3 						"/>
						<polygon class="st2" points="1104.6,-109.3 1104.9,-110.3 1104.3,-109.9 						"/>
						<polygon class="st2" points="1046.1,-104.6 1047,-106.6 1044.4,-107.8 1044.7,-106.9 						"/>
						<polygon class="st2" points="967.9,-104.6 969.3,-106.9 969.6,-107.8 967,-106.6 						"/>
						<polygon class="st2" points="966.9,-106.9 967.8,-109 965.4,-110.5 965.7,-109.5 						"/>
						<polygon class="st2" points="857.7,-107.2 857.4,-107 857.6,-106.6 						"/>
						<polygon class="st2" points="582.7,-115.8 582.3,-115.6 582.5,-115 						"/>
						<polygon class="st2" points="629.4,-113.1 630.1,-115 628.5,-116.2 628.8,-115 						"/>
						<polygon class="st2" points="553.6,-119.2 554,-120.7 550.4,-118.5 551.8,-115.4 						"/>
						<polygon class="st2" points="658.7,-118.9 659.2,-119.9 658.3,-120.4 658.7,-119 						"/>
						<polygon class="st2" points="743.3,-115.4 744.7,-118.5 741.1,-120.7 741.5,-119.2 						"/>
						<polygon class="st2" points="550.3,-112.1 551.7,-115 547.7,-116.8 548.1,-115.5 						"/>
						<polygon class="st2" points="519.4,-130.3 519.3,-130.2 519.3,-130.2 						"/>
						<polygon class="st2" points="1177.3,-106.9 1178.3,-109 1175.8,-110.5 1176.1,-109.5 						"/>
						<polygon class="st2" points="1199.4,-117 1199.3,-117 1199.3,-116.9 						"/>
						<polygon class="st2" points="744.8,-112.1 747,-115.5 747.4,-116.8 743.4,-115 						"/>
						<polygon class="st2" points="1178.3,-104.6 1179.8,-106.9 1180.1,-107.8 1177.4,-106.6 						"/>
						<polygon class="st2" points="1156.6,-107 1156.3,-107.2 1156.4,-106.6 						"/>
						<polygon class="st2" points="837.9,-109.5 838.2,-110.5 835.7,-109 836.7,-106.9 						"/>
						<polygon class="st2" points="835.7,-104.6 836.6,-106.6 833.9,-107.8 834.2,-106.9 						"/>
						<polygon class="st2" points="814.7,-117 814.6,-117 814.7,-116.9 						"/>
						<path class="st3" d="M1552.5-89.1l-6.9-13.5v-0.1l4.9,1.9l-13.3-26.9l-0.6-1.7l4.4,1.1l-6.9-14.2l-0.2-0.4l3.2,1.3l-19.7-44.9
							l-0.3,0.7l-0.3-0.7l-1.6,4.3l-18.1,36l5.3-1l-6.8,14.7l-13.6-31.1l-0.3,0.5l-0.2-0.5l-1.2,3.3l-13.9,27.5l4.1-0.7l-6.8,14.9
							l-7.2-21.3l3.4,0.8l-11.6-31.5l-1-3.8l-0.2,0.6l-0.2-0.6l-12.6,39.2l2.1-1.1l-0.1,0.3l-4.4,12.4l2.8-1l-0.4,1.5l-1.5,4.2
							l-4.5-13.4l2.9,0.7l-9.8-26.6l-0.8-3.2l-0.1,0.5l-0.2-0.5l-10.6,33.1l1.7-1l-0.1,0.3l-3.7,10.5l2.4-0.8l-0.3,1.2l-3.9,10.9
							l-3.2-11.3l-0.2-1.2l1.9,0.8l-2.9-10.6l-0.1-0.3l1.4,1l-8.4-33.6l-0.1,0.5l-0.1-0.5l-0.7,3.2l-7.7,26.9l2.3-0.7l-4.3,16.5
							l-2.4-6.5l-0.4-1.5l2.8,1l-4.3-12.3l-0.1-0.3l2,1.1l-12.5-38.9l-0.2,0.6l-0.2-0.6l-1,3.7l-11.5,31.2l3.4-0.8l-5,14.7
							l-10.3-23.1l-0.2,0.4l-0.2-0.4l-1,2.6l-11,21.8l3.2-0.6l-2.2,4.8l-4.6-12.1l3.3,0.7l-11.2-26.4l-1-3.2l-0.2,0.5l-0.2-0.5
							l-12.1,33l2-0.9l-0.1,0.3l-4.2,10.4l2.7-0.8l-0.3,1.2l-3.3,7.9l-4.8-13.3l-0.4-1.5l2.8,1l-4.4-12.4l-0.1-0.3l2.1,1.1
							l-12.6-39.3l-0.2,0.6l-0.2-0.6l-1,3.8L1273-139l3.4-0.8l-7.2,21.2l-6.9-14.9l4.1,0.7l-13.9-27.5l-1.2-3.3l-0.2,0.5l-0.3-0.5
							l-15.1,34.3l2.5-1l-0.1,0.3l-5.3,10.8l3.4-0.9l-0.4,1.3l-4.7,9.4l-2.9-5.8l-0.4-1.3l3,0.8l-4.7-9.6l-0.1-0.3l2.2,0.9
							l-13.4-30.5l-0.2,0.5l-0.2-0.5l-1.1,2.9l-12.3,24.5l3.6-0.7l-4.6,10l-9.3-21.2l-0.2,0.3l-0.1-0.3l-0.8,2.2l-9.4,18.7l2.8-0.5
							l-4.7,10.2l-4.9-14.5l2.3,0.6l-7.9-21.4l-0.7-2.6l-0.1,0.4l-0.1-0.4l-8.5,26.7l1.4-0.8l-0.1,0.2l-3,8.4l1.9-0.7l-0.3,1.1
							l-1,2.8l-3.1-9.1l1.9,0.5l-6.6-18.1l-0.6-2.2l-0.1,0.3l-0.1-0.3l-7.2,22.5l1.2-0.7l-0.1,0.2l-2.5,7.1l1.6-0.6l-0.2,0.9
							l-2.6,7.3l0,0l-2.1-7.5l-0.2-0.9l1.3,0.6l-2-7.2v-0.2l0.9,0.7l-5.7-22.6l-0.1,0.3l-0.1-0.3l-0.5,2.2l-5.2,18.3l1.5-0.5
							l-2.9,11.2l-1.6-4.3l-0.3-1.1l1.9,0.7l-3-8.3l-0.1-0.2l1.4,0.8l-8.5-26.4l-0.1,0.4l-0.1-0.4l-0.7,2.5l-7.7,21.1l2.3-0.6
							l-3.4,10l-7-16l-0.1,0.3l-0.1-0.3l-0.6,1.8l-7.5,14.8l2.2-0.4l-1.5,3.2l-3.2-8.2l2.2,0.5l-7.6-17.9l-0.7-2.2l-0.1,0.3
							l-0.1-0.3l-8.2,22.4l1.3-0.6l-0.1,0.2l-2.9,7.1l1.8-0.6l-0.3,0.9l-2.2,5.3l-3.2-8.9l-0.3-1.1l1.9,0.7l-3-8.4l-0.1-0.2l1.4,0.8
							l-8.5-26.7l-0.1,0.4l-0.1-0.4l-0.7,2.6l-7.9,21.4l2.3-0.6l-4.9,14.5l-4.7-10.2l2.8,0.5l-9.4-18.7l-0.8-2.2l-0.1,0.3l-0.2-0.3
							l-9,20.5l-0.6-1.1l-0.5-1.4l-0.1,0.2l-0.1-0.2l0,0l0,0l-6,13.7l-3-6.5l2.3,0.4l-8-15.8l-0.7-1.9l-0.1,0.3l-0.1-0.3l0,0l0,0
							l-8.6,19.7l1.4-0.6l-0.1,0.2l-3,6.2l1.9-0.5l-0.3,0.9l-2.3,4.6h-2.2l-3.9-7.9l-0.3-1l2.3,0.6l-3.6-7.4l-0.1-0.2l1.7,0.7
							l-10.2-23.3l-0.2,0.3l-0.1-0.3l-0.8,2.2l-9.4,18.7l2.8-0.5l-4.7,10.2l-5-14.6l2.3,0.6l-7.9-21.4l-0.7-2.6l-0.1,0.4l-0.1-0.4
							l-8.5,26.7l1.4-0.8l-0.1,0.2l-3,8.4l1.9-0.7l-0.3,1.1l-3.2,8.9l-2.2-5.3l-0.3-0.9l1.8,0.6l-2.9-7.1L941-116l1.3,0.6l-8.1-22.2
							l-0.1,0.3l-0.1-0.3l-0.7,2.1l-7.6,17.9l2.2-0.5l-3.2,8.2l-1.5-3.2l2.2,0.4l-7.4-14.7l-0.6-1.8l-0.1,0.3l-0.1-0.3l-7,16
							l-3.4-10l2.2,0.6l-7.8-21.2l-0.7-2.5l-0.1,0.4l-0.1-0.4l-8.5,26.4l1.4-0.8l-0.1,0.2l-3,8.3l1.9-0.7l-0.3,1.1l-1.6,4.3
							l-2.8-11.1l1.5,0.5l-5.2-18.3l-0.5-2.2l-0.1,0.3l-0.1-0.3l-5.7,22.8l0.9-0.7v0.2l-2,7.2l1.3-0.6l-0.2,0.9l-2.1,7.5l0,0
							l-2.6-7.3l-0.2-0.9l1.6,0.6l-2.5-7.1l-0.1-0.2l1.2,0.7l-7.2-22.5l-0.1,0.3l-0.1-0.3l-0.6,2.2l-6.6,18.1l1.9-0.5l-3.1,9.1
							l-1-2.8l-0.3-1.1l1.9,0.7l-3-8.4l-0.1-0.2l1.4,0.8l-8.5-26.7l-0.1,0.4l-0.1-0.4l-0.7,2.6l-7.9,21.4l2.3-0.6l-4.9,14.5
							l-4.7-10.3l2.8,0.5l-9.4-18.7l-0.8-2.2l-0.1,0.3l-0.2-0.3l-9.3,21.2l-4.6-10l3.6,0.7l-12.3-24.5l-1.1-2.9l-0.2,0.5l-0.2-0.5
							l-13.4,30.5l2.2-0.9l-0.1,0.3l-4.7,9.6l3-0.8l-0.4,1.3l-2.9,5.8l-4.7-9.4l-0.4-1.3l3.4,0.9l-5.3-10.8l-0.1-0.3l2.5,1
							l-15.2-34.4l-0.3,0.5l-0.2-0.5l-1.2,3.3l-13.9,27.5l4.1-0.7l-6.8,14.9l-7.2-21.3l3.4,0.8l-11.6-31.5l-1-3.8l-0.2,0.6l-0.2-0.6
							l-12.6,39.2l2.1-1.1l-0.1,0.3l-4.4,12.6l2.8-1l-0.4,1.5l-4.8,13.3l-3.3-7.9l-0.3-1.2l2.7,0.8l-4.2-10.4l-0.1-0.3l2,0.9
							l-12.1-32.9l-0.2,0.5l-0.2-0.5l-1,3.2L682.7-131l3.3-0.7l-4.7,12.1l-2.2-4.8l3.2,0.6l-11-21.8l-1-2.6l-0.2,0.4l-0.2-0.4
							l-10.3,23.5l-5-14.7l3.4,0.8l-11.5-31.2l-1-3.7l-0.2,0.6l-0.2-0.6l-12.2,38.9l2-1.1l-0.1,0.3l-4.3,12.3l2.8-1l-0.4,1.5
							l-2.4,6.5l-4.3-16.5l2.3,0.7l-7.7-26.9l-0.7-3.2l-0.1,0.5l-0.1-0.5l-8.4,33.6l1.4-1l-0.1,0.3l-2.9,10.6l1.9-0.8l-0.2,1.2
							l-3.2,11.3l-3.9-10.9l-0.3-1.2l2.4,0.8l-3.9-10.5l-0.1-0.3l1.7,1l-10.5-33.2l-0.2,0.5l-0.1-0.5l-0.8,3.2l-9.8,26.6l2.9-0.7
							l-4.6,13.4l-1.5-4.2l-0.4-1.5l2.8,1l-4.4-12.4l-0.1-0.3l2.1,1.1l-12.6-39.3l-0.2,0.6l-0.2-0.6l-1,3.8L554.1-139l3.4-0.8
							l-7.2,21.2l-6.9-14.9l4.1,0.7l-13.9-27.5l-1.2-3.3l-0.2,0.5l-0.2-0.5l-13.7,31.2l-6.8-14.7l5.3,1l-18.1-36l-1.6-4.3l-0.3,0.7
							l-0.3-0.7L495-183v-44v44.1l-18.2,41.3l3.2-1.3l-0.2,0.4l-6.8,14.2l4.4-1.1l-0.6,1.7l-13.3,26.9l4.9-1.9v0.1l-6.9,13.5h33.4
							l-0.8,779.2l2.4-5.5l0.3,0.7l0.3-0.7l1.6,4.3l18.1,36l-5.3-1l6.8,14.7l13.7-31.2l0.3,0.5l0.2-0.5l1.2,3.3l13.9,27.5l-4.1-0.7
							l6.9,14.9l7.2-21.3l-3.4,0.8l11.6-31.5l1-3.8l0.2,0.6l0.2-0.6l12.6,39.2l-2.1-1.1l0.1,0.3l4.4,12.4l-2.8-1l0.4,1.5l1.5,4.2
							l4.5-13.4l-2.9,0.7l9.8-26.6l0.8-3.2l0.1,0.5l0.2-0.5l10.6,33.1l-1.7-1l0.1,0.3l3.7,10.5l-2.4-0.8l0.3,1.2l3.9,10.9l3.2-11.3
							l0.2-1.2l-1.9,0.8l2.9-10.6l0.1-0.3l-1.4,1l8.4-33.6l0.1,0.5l0.1-0.5l0.7,3.2l7.7,26.9l-2.3-0.7l4.3,16.5l2.4-6.5l0.4-1.5
							l-2.8,1l4.3-12.3l0.1-0.3l-2,1.1l12.5-38.9l0.2,0.6l0.2-0.6l1,3.7l11.5,31.2l-3.4-0.8l5,14.7l10.3-23.5l0.2,0.4l0.2-0.4l1,2.6
							l11,21.8l-3.2-0.6l2.2,4.8l4.7-12.1l-3.3,0.7l11.2-26.4l1-3.2l0.2,0.5l0.2-0.5l12.1,32.9l-2-0.9l0.1,0.3l4.2,10.4l-2.7-0.8
							l0.3,1.2l3.3,7.9l4.8-13.3l0.4-1.5l-2.8,1l4.4-12.4l0.1-0.3l-2.1,1.1l12.6-39.2l0.2,0.6l0.2-0.6l1,3.8l11.6,31.5l-3.4-0.8
							l7.2,21.3l6.9-14.9l-4.1,0.7l13.9-27.5l1.2-3.3l0.2,0.5l0.3-0.5l15.1,34.3l-2.5-1l0.1,0.3l5.3,10.8l-3.4-0.9l0.4,1.3l4.7,9.4
							l2.9-5.8l0.4-1.3l-3,0.8l4.7-9.6l0.1-0.3l-2.2,0.9l13.4-30.5l0.2,0.5l0.2-0.5l1.1,2.9l12.3,24.5l-3.6-0.7l4.6,10l9.3-21.2
							l0.2,0.3l0.1-0.3l0.8,2.2L834,752l-2.8-0.5l4.7,10.2l4.9-14.5l-2.3,0.6l7.9-21.4l0.7-2.6l0.1,0.4l0.1-0.4l8.5,26.7l-1.4-0.8
							l0.1,0.2l3,8.4l-1.9-0.7l0.3,1.1l1,2.8l3.1-9.1l-1.9,0.5l6.6-18.1l0.6-2.2l0.1,0.3l0.1-0.3l7.2,22.5l-1.2-0.7l0.1,0.2l2.5,7.1
							l-1.6-0.6l0.2,0.9l2.6,7.3l2.1-7.6l0.2-0.9l-1.3,0.6l2-7.2V754l-0.9,0.7l5.7-22.8l0.1,0.3l0.1-0.3l0.5,2.2l5.2,18.3l-1.5-0.5
							l2.9,11.2l1.6-4.3l0.3-1.1l-1.9,0.7l3-8.3l0.1-0.2l-1.4,0.8l8.5-26.4l0.1,0.4l0.1-0.4l0.7,2.5l7.5,21.6l-2.3-0.6l3.4,10l7-16
							l0.1,0.3l0.1-0.3l0.6,1.8l7.5,14.8l-2.2-0.4l1.5,3.2l3.2-8.2l-2.2,0.5l7.6-17.9l0.7-2.1l0.1,0.3l0.1-0.3l8.2,22.4l-1.3-0.6
							l0.1,0.2l2.9,7.1l-1.8-0.6l0.3,0.9l2.2,5.3l3.2-8.9l0.3-1.1l-1.9,0.7l3-8.4l0.1-0.2l-1.4,0.8l8.5-26.7l0.1,0.4l0.1-0.4
							l0.7,2.6l7.9,21.4l-2.3-0.6l4.9,14.5l4.7-10.2l-2.8,0.5l9.4-18.7l0.8-2.2l0.1,0.3l0.2-0.3l10.2,23.3l-1.7-0.7l0.1,0.2l3.6,7.4
							l-2.3-0.6l0.3,1l5,10.2l3.4-6.9l0.3-0.9l-1.9,0.5l3-6.2l0.1-0.2l-1.4,0.6l8.6-19.7l0,0l0,0l0.1,0.3l0.1-0.3l0.7,1.9l8,15.8
							l-2.3-0.4l3,6.5l6-13.7l0,0l0,0l0.1,0.2l0.1-0.2l0.5,1.4l0.6,1.1l9-20.5l0.2,0.3l0.1-0.3l0.8,2.2l9.4,18.7l-2.8-0.5l4.7,10.2
							l4.9-14.5l-2.3,0.6l7.9-21.4l0.7-2.6l0.1,0.4l0.1-0.4l8.5,26.7l-1.4-0.8l0.1,0.2l3,8.4l-1.9-0.7l0.3,1.1l3.2,8.9l2.2-5.3
							l0.3-0.9l-1.8,0.6l2.9-7.1l0.1-0.2l-1.3,0.6l8.2-22.4l0.1,0.3l0.1-0.3l0.7,2.1l7.6,17.9l-2.2-0.5l3.2,8.2l1.5-3.2l-2.2,0.4
							l7.5-14.8l0.6-1.8l0.1,0.3l0.1-0.3l7,16l3.4-10l-2.3,0.5l7.8-21.2l0.7-2.5l0.1,0.4l0.1-0.4l8.5,26.4l-1.4-0.8l0.1,0.2l3,8.3
							l-1.9-0.7l0.3,1.1l1.6,4.3l2.9-11.2l-1.5,0.5l5.2-18.3l0.5-2.2l0.1,0.3l0.1-0.3l5.7,22.8l-0.9-0.7v0.2l2,7.2l-1.3-0.6l0.2,0.9
							l2.1,7.6l2.6-7.3l0.2-0.9l-1.6,0.6l2.5-7.1l0.1-0.2l-1.2,0.7l7.2-22.5l0.1,0.3l0.1-0.3l0.6,2.2l6.6,18.1l-1.9-0.5l3.1,9.1
							l1-2.8l0.3-1.1l-1.9,0.7l3-8.4l0.1-0.2l-1.4,0.8l8.5-26.7l0.1,0.4l0.1-0.4l0.7,2.6l7.9,21.4l-2.3-0.6l4.9,14.5l4.7-10.2
							l-2.8,0.5l9.4-18.7l0.8-2.2l0.1,0.3l0.2-0.3l9.3,21.2l4.6-10l-3.6,0.7l12.3-24.5l1.1-2.9l0.2,0.5l0.2-0.5l13.4,30.5l-2.2-0.9
							l0.1,0.3l4.7,9.6l-3-0.8l0.4,1.3l2.9,5.8l4.7-9.4l0.4-1.3l-3.4,0.9l5.3-10.8l0.1-0.3l-2.5,1l15.1-34.3l0.3,0.5l0.2-0.5
							l1.2,3.3l13.9,27.5l-4.1-0.7l6.9,14.9l7.2-21.3l-3.4,0.8l11.6-31.5l1-3.8l0.2,0.6l0.2-0.6l12.6,39.2l-2.1-1.1l0.1,0.3
							l4.4,12.4l-2.8-1l0.4,1.5l4.8,13.3l3.3-7.9l0.3-1.2l-2.7,0.8l4.2-10.4l0.1-0.3l-2,0.9l12.1-32.9l0.2,0.5l0.2-0.5l1,3.2
							l11.2,26.4l-3.3-0.7l4.7,12.1l2.2-4.8l-3.2,0.6l11-21.8l1-2.6l0.2,0.4l0.2-0.4l10.3,23.5l5-14.7l-3.4,0.8l11.5-31.2l1-3.7
							l0.2,0.6l0.2-0.6l12.5,38.9l-2-1.1l0.1,0.3l4.3,12.3l-2.8-1l0.4,1.5l2.4,6.5l4.3-16.5l-2.3,0.7l7.7-26.9l0.7-3.2l0.1,0.5
							l0.1-0.5l8.4,33.6l-1.4-1l0.1,0.3l2.9,10.6l-1.9-0.8l0.2,1.2l3.2,11.3l3.9-10.9l0.3-1.2l-2.4,0.8l3.7-10.5l0.1-0.3l-1.7,1
							l10.6-33.1l0.2,0.5l0.1-0.5l0.8,3.2l9.8,26.6l-2.9-0.7l4.5,13.4l1.5-4.2l0.4-1.5l-2.8,1l4.4-12.4l0.1-0.3l-2.1,1.1l12.6-39.2
							l0.2,0.6l0.2-0.6l1,3.8l11.6,31.5l-3.4-0.8l7.2,21.3l6.9-14.9l-4.1,0.7l13.9-27.5l1.2-3.3l0.2,0.5l0.3-0.5L1496,739l6.8-14.7
							l-5.3,1l18.1-36l1.6-4.3l0.3,0.7l0.3-0.7l0.6,1.4l0.8-775h33.3L1552.5-89.1L1552.5-89.1z M1125.1-107.4l-0.2,0.9l-0.4,1.2
							l-0.5-1.3L1125.1-107.4z M1104.9-110.3l-0.3,1l0,0l-0.3-0.7L1104.9-110.3z M1048.6-110.5l-0.3,1l-1.2,2.6l-1-2.1L1048.6-110.5
							z M1047-106.6l-0.9,2l-1.4-2.3l-0.3-0.9L1047-106.6z M1017.8-107L1017.8-107L1017.8-107L1017.8-107z M969.6-107.8l-0.3,0.9
							l-1.4,2.3l-0.9-2L969.6-107.8z M967.8-109l-1,2.1l-1.2-2.6l-0.3-1L967.8-109z M909.7-109.9l-0.3,0.7l0,0l-0.3-1L909.7-109.9z
							 M889.9-106.6l-0.5,1.3l-0.4-1.2l-0.2-0.9L889.9-106.6z M1494.7-130.2L1494.7-130.2L1494.7-130.2L1494.7-130.2z M1466.3-116.8
							l-0.4,1.3l-2.2,3.4l-1.4-2.9L1466.3-116.8z M1463.6-118.5l-1.5,3.1l-1.8-3.9l-0.4-1.5L1463.6-118.5z M1431.7-115.6l-0.2,0.6
							l-0.2-0.8L1431.7-115.6z M1385.5-116.2l-0.2,1.2l-0.7,1.9l-0.7-1.9L1385.5-116.2z M1355.7-120.4l-0.4,1.5v0.1l-0.5-1
							L1355.7-120.4z M1272.9-120.7l-0.4,1.5l-1.8,3.9l-1.5-3.1L1272.9-120.7z M1270.6-115l-1.4,2.9l-2.2-3.4l-0.4-1.3L1270.6-115z
							 M1199.4-117L1199.4-117L1199.4-117L1199.4-117z M1180.1-107.8l-0.3,0.9l-1.4,2.3l-0.9-2L1180.1-107.8z M1178.3-109l-1,2.1
							l-1.2-2.6l-0.3-1L1178.3-109z M1156.6-107l-0.1,0.4l-0.1-0.5L1156.6-107z M857.7-107.2l-0.1,0.5l-0.1-0.4L857.7-107.2z
							 M838.2-110.5l-0.3,1l-1.2,2.6l-1-2.1L838.2-110.5z M836.6-106.6l-0.9,2l-1.4-2.3l-0.3-0.9L836.6-106.6z M814.7-117L814.7-117
							L814.7-117L814.7-117z M747.4-116.8l-0.4,1.3l-2.2,3.4l-1.4-2.9L747.4-116.8z M744.7-118.5l-1.5,3.1l-1.8-3.9l-0.4-1.5
							L744.7-118.5z M659.2-119.9l-0.5,1v-0.1l-0.4-1.5L659.2-119.9z M630.1-115l-0.7,1.9l-0.7-1.9l-0.2-1.2L630.1-115z
							 M582.7-115.8l-0.2,0.8l-0.2-0.6L582.7-115.8z M554-120.7l-0.4,1.5l-1.8,3.9l-1.5-3.1L554-120.7z M551.7-115l-1.4,2.9
							l-2.2-3.4l-0.4-1.3L551.7-115z M519.4-130.3v0.1V-130.3L519.4-130.3z"/>
					</g>
				</g>
			</g>
		</g>
	</g>
</g>
</svg>
