<?xml version="1.0" encoding="utf-8"?>
<!-- Generator: Adobe Illustrator 19.1.0, SVG Export Plug-In . SVG Version: 6.00 Build 0)  -->
<svg version="1.1" id="Layer_1" xmlns="http://www.w3.org/2000/svg" xmlns:xlink="http://www.w3.org/1999/xlink" x="0px" y="0px"
	 viewBox="0 0 504 504" style="enable-background:new 0 0 504 504;" xml:space="preserve">
<style type="text/css">
	.st0{fill:#1A333A;}
	.st1{font-family:'FuturaPT-Book';}
	.st2{font-size:75.0369px;}
</style>
<g>
	<g>
		<g>
			<rect x="185.4" y="178.2" class="st0" width="133.3" height="14.2"/>
			<polygon class="st0" points="365.3,227 138.7,227 138.7,206.5 152.9,206.5 152.9,212.8 351.1,212.8 351.1,209.7 365.3,209.7 			
				"/>
			<polyline class="st0" points="283.5,296.3 365.3,296.3 365.3,283.9 349.2,282.1 282.2,282.1 			"/>
			<polygon class="st0" points="350.3,261.6 152.9,261.6 138.7,256.9 138.7,247.4 365.3,247.4 365.3,260.7 			"/>
			<path class="st0" d="M393.1,234.9c-1.2,0-2.4-0.3-3.5-0.9L252,156.4L114.3,234c-3.4,1.9-7.7,0.7-9.7-2.7
				c-1.9-3.4-0.7-7.7,2.7-9.7L252,140.1l144.6,81.5c3.4,1.9,4.6,6.3,2.7,9.7C398,233.6,395.6,234.9,393.1,234.9z"/>
			<polygon class="st0" points="357.1,201.5 342.9,201.5 342.9,159.6 335.8,159.6 335.8,189.4 321.6,189.4 321.6,145.4 357.1,145.4 
							"/>
			<g>
				<path class="st0" d="M146,256.1c-11.3,0-20.6-9.2-20.6-20.6S134.6,215,146,215s20.6,9.2,20.6,20.6S157.3,256.1,146,256.1z
					 M146,229.2c-3.5,0-6.4,2.9-6.4,6.4s2.9,6.4,6.4,6.4c3.5,0,6.4-2.9,6.4-6.4S149.5,229.2,146,229.2z"/>
				<path class="st0" d="M146,292.8c-11.3,0-20.6-9.2-20.6-20.6c0-11.3,9.2-20.6,20.6-20.6s20.6,9.2,20.6,20.6
					C166.5,283.6,157.3,292.8,146,292.8z M146,265.9c-3.5,0-6.4,2.9-6.4,6.4c0,3.5,2.9,6.4,6.4,6.4c3.5,0,6.4-2.9,6.4-6.4
					C152.3,268.8,149.5,265.9,146,265.9z"/>
				<path class="st0" d="M146,330c-11.3,0-20.6-9.2-20.6-20.6c0-11.3,9.2-20.6,20.6-20.6s20.6,9.2,20.6,20.6
					C166.5,320.7,157.3,330,146,330z M146,303c-3.5,0-6.4,2.9-6.4,6.4c0,3.5,2.9,6.4,6.4,6.4c3.5,0,6.4-2.9,6.4-6.4
					C152.3,305.9,149.5,303,146,303z"/>
				<path class="st0" d="M146,366.7c-11.3,0-20.6-9.2-20.6-20.6c0-11.3,9.2-20.6,20.6-20.6s20.6,9.2,20.6,20.6
					C166.5,357.5,157.3,366.7,146,366.7z M146,339.8c-3.5,0-6.4,2.9-6.4,6.4c0,3.5,2.9,6.4,6.4,6.4c3.5,0,6.4-2.9,6.4-6.4
					C152.3,342.6,149.5,339.8,146,339.8z"/>
			</g>
			<g>
				<path class="st0" d="M358.5,256.1c-11.3,0-20.6-9.2-20.6-20.6s9.2-20.6,20.6-20.6c11.3,0,20.6,9.2,20.6,20.6
					S369.8,256.1,358.5,256.1z M358.5,229.2c-3.5,0-6.4,2.9-6.4,6.4s2.9,6.4,6.4,6.4s6.4-2.9,6.4-6.4S362,229.2,358.5,229.2z"/>
				<path class="st0" d="M358.5,292.8c-11.3,0-20.6-9.2-20.6-20.6c0-11.3,9.2-20.6,20.6-20.6c11.3,0,20.6,9.2,20.6,20.6
					C379.1,283.6,369.8,292.8,358.5,292.8z M358.5,265.9c-3.5,0-6.4,2.9-6.4,6.4c0,3.5,2.9,6.4,6.4,6.4s6.4-2.9,6.4-6.4
					C364.9,268.8,362,265.9,358.5,265.9z"/>
				<path class="st0" d="M358.5,330c-11.3,0-20.6-9.2-20.6-20.6c0-11.3,9.2-20.6,20.6-20.6c11.3,0,20.6,9.2,20.6,20.6
					C379.1,320.7,369.8,330,358.5,330z M358.5,303c-3.5,0-6.4,2.9-6.4,6.4c0,3.5,2.9,6.4,6.4,6.4s6.4-2.9,6.4-6.4
					C364.9,305.9,362,303,358.5,303z"/>
				<path class="st0" d="M358.5,366.7c-11.3,0-20.6-9.2-20.6-20.6c0-11.3,9.2-20.6,20.6-20.6c11.3,0,20.6,9.2,20.6,20.6
					C379.1,357.5,369.8,366.7,358.5,366.7z M358.5,339.8c-3.5,0-6.4,2.9-6.4,6.4c0,3.5,2.9,6.4,6.4,6.4s6.4-2.9,6.4-6.4
					C364.9,342.6,362,339.8,358.5,339.8z"/>
			</g>
			<g>
				<path class="st0" d="M220.4,316.7h-63.1c-2.4,3.7-6.6,6.2-11.3,6.2c-2.7,0-5.2-0.8-7.3-2.2v14.1c2.1-1.4,4.6-2.2,7.3-2.2
					c2.5,0,4.9,0.7,6.9,1.9v-3.7h67.2"/>
				<path class="st0" d="M284.3,330.9h66.8v4c2.1-1.4,4.7-2.2,7.4-2.2c2.5,0,4.8,0.7,6.8,1.9v-17.9h-81"/>
				<path class="st0" d="M358.5,359.6c-5.6,0-10.4-3.4-12.4-8.3H158.4c-2,4.9-6.8,8.3-12.4,8.3c-2.7,0-5.2-0.8-7.3-2.2v8.1h226.6
					v-7.8C363.3,358.9,361,359.6,358.5,359.6z"/>
			</g>
			<path class="st0" d="M156.4,227h191.7c2.5-3,6.2-4.9,10.4-4.9c2.5,0,4.8,0.7,6.8,1.9v-11.2H138.7v11.5c2.1-1.4,4.6-2.2,7.3-2.2
				C150.2,222.1,153.9,224,156.4,227z"/>
			<path class="st0" d="M290.6,365.3h-77.1V247.5h77.1V365.3z M227.6,351.1h48.8v-89.4h-48.8V351.1z"/>
			<g>
				<polygon class="st0" points="220.5,296.3 220.5,282.1 138.7,282.1 138.7,298.1 152.9,296.3 				"/>
				<path class="st0" d="M283.5,282.1v14.2h67.6v1.9c2.1-1.4,4.7-2.2,7.4-2.2c2.5,0,4.8,0.7,6.8,1.9v-15.8H283.5z"/>
			</g>
			<polyline class="st0" points="220.5,282.1 221.5,296.3 138.7,296.3 138.7,287.7 152.9,282.1 220.5,282.1 			"/>
			<path class="st0" d="M264.4,284h-24.8l0,0c0-6.9,5.6-12.4,12.4-12.4h0C258.9,271.6,264.4,277.1,264.4,284L264.4,284z"/>
		</g>
		<g>
			<g>
				<path class="st0" d="M341,125.6l-5.2-4.9l2.6,2.4l-2.6-2.4c1.1-1.1,10-11.4,0.1-21.3c-7.9-7.9-7.4-16-5.7-21.5
					c1.8-5.7,5.4-9.5,5.6-9.7l5.2,4.9c-1,1.1-10,11.4-0.1,21.3c7.9,7.9,7.4,16,5.7,21.5C344.7,121.6,341.1,125.5,341,125.6z"/>
				<path class="st0" d="M344.1,93.4c-6.1-6.1-3.4-13.5-0.1-17l5.2,4.9c-1,1.1-3.1,4.1-0.1,7.1L344.1,93.4z"/>
				<path class="st0" d="M332,116.9l-5-5c3.2-3.2,0.5-6.5-0.1-7.1l5.2-4.9C335.3,103.4,338,110.8,332,116.9z"/>
			</g>
			<g>
				<path class="st0" d="M342.7,45l-0.4-0.1c-0.3-0.1-0.4-0.4-0.3-0.7l0.1-0.4c0.1-0.2,0-0.5-0.2-0.6c-0.3-0.1-0.6,0-0.7,0.2
					l-0.1,0.4c-0.1,0.3-0.4,0.4-0.7,0.3L340,44c-0.2-0.1-0.5,0-0.6,0.2c-0.1,0.3,0,0.6,0.2,0.7L340,45c0.3,0.1,0.4,0.4,0.3,0.7
					l-0.1,0.4c-0.1,0.2,0,0.5,0.2,0.6c0.3,0.1,0.6,0,0.7-0.2l0.1-0.4c0.1-0.3,0.4-0.4,0.7-0.3l0.4,0.1c0.3,0.1,0.6-0.1,0.6-0.3
					C343,45.3,342.9,45.1,342.7,45z"/>
				<path class="st0" d="M308.6,46.3l-0.3-0.1c-0.3-0.1-0.4-0.4-0.3-0.7l0.1-0.3c0.1-0.2,0-0.4-0.2-0.5c-0.2-0.1-0.5,0-0.6,0.2
					l-0.1,0.3c-0.1,0.3-0.4,0.4-0.7,0.3l-0.3-0.1c-0.2-0.1-0.4,0-0.5,0.2c-0.1,0.2,0,0.5,0.2,0.6l0.3,0.1c0.3,0.1,0.4,0.4,0.3,0.7
					l-0.1,0.3c-0.1,0.2,0,0.4,0.2,0.5c0.2,0.1,0.5,0,0.6-0.2l0.1-0.3c0.1-0.3,0.4-0.4,0.7-0.3l0.3,0.1c0.2,0.1,0.5,0,0.6-0.3
					C308.9,46.5,308.8,46.3,308.6,46.3z"/>
				<path class="st0" d="M360.8,56.1l-0.3,0.2c-0.2,0.2-0.6,0.2-0.8-0.1l-0.2-0.3c-0.2-0.2-0.4-0.2-0.6-0.1
					c-0.3,0.2-0.3,0.5-0.1,0.7l0.2,0.3c0.2,0.2,0.2,0.6-0.1,0.8l-0.3,0.2c-0.2,0.2-0.2,0.4-0.1,0.6c0.2,0.3,0.5,0.3,0.7,0.1l0.3-0.2
					c0.2-0.2,0.6-0.2,0.8,0.1l0.2,0.3c0.2,0.2,0.4,0.2,0.6,0.1c0.3-0.2,0.3-0.5,0.1-0.7l-0.2-0.3c-0.2-0.2-0.2-0.6,0.1-0.8l0.3-0.2
					c0.2-0.2,0.2-0.5,0-0.7C361.3,56,361,56,360.8,56.1z"/>
				<path class="st0" d="M371.3,24l-0.3,0.3c-0.3,0.2-0.7,0.2-0.9-0.1l-0.3-0.3c-0.2-0.2-0.5-0.3-0.7-0.1c-0.3,0.2-0.4,0.6-0.1,0.8
					l0.3,0.3c0.2,0.3,0.2,0.7-0.1,0.9l-0.3,0.3c-0.2,0.2-0.3,0.5-0.1,0.7c0.2,0.3,0.6,0.4,0.8,0.1l0.3-0.3c0.3-0.2,0.7-0.2,0.9,0.1
					l0.3,0.3c0.2,0.2,0.5,0.3,0.7,0.1c0.3-0.2,0.4-0.6,0.1-0.8l-0.3-0.3c-0.2-0.3-0.2-0.7,0.1-0.9l0.3-0.3c0.3-0.2,0.3-0.6,0-0.8
					C371.8,23.9,371.5,23.9,371.3,24z"/>
				<path class="st0" d="M368.1,93.7l-0.3,0.1c-0.2,0.1-0.5,0-0.5-0.3l-0.1-0.3c-0.1-0.2-0.2-0.3-0.4-0.3c-0.2,0-0.3,0.3-0.3,0.5
					l0.1,0.3c0.1,0.2,0,0.5-0.3,0.5l-0.3,0.1c-0.2,0.1-0.3,0.2-0.3,0.4c0,0.2,0.3,0.3,0.5,0.3l0.3-0.1c0.2-0.1,0.5,0,0.5,0.3
					l0.1,0.3c0.1,0.2,0.2,0.3,0.4,0.3c0.2,0,0.3-0.3,0.3-0.5l-0.1-0.3c-0.1-0.2,0-0.5,0.3-0.5l0.3-0.1c0.2-0.1,0.3-0.3,0.2-0.5
					C368.5,93.7,368.3,93.6,368.1,93.7z"/>
				<path class="st0" d="M364.5,80.5l-0.3,0.1c-0.2,0.1-0.5,0-0.5-0.3l-0.1-0.3c-0.1-0.2-0.2-0.3-0.4-0.3c-0.2,0-0.3,0.3-0.3,0.5
					l0.1,0.3c0.1,0.2,0,0.5-0.3,0.5l-0.3,0.1c-0.2,0.1-0.3,0.2-0.3,0.4c0,0.2,0.3,0.3,0.5,0.3l0.3-0.1c0.2-0.1,0.5,0,0.5,0.3
					l0.1,0.3c0.1,0.2,0.2,0.3,0.4,0.3c0.2,0,0.3-0.3,0.3-0.5l-0.1-0.3c-0.1-0.2,0-0.5,0.3-0.5l0.3-0.1c0.2-0.1,0.3-0.3,0.2-0.5
					C364.9,80.5,364.7,80.4,364.5,80.5z"/>
				<path class="st0" d="M310.1,75.7l-0.3-0.1c-0.2-0.1-0.3-0.3-0.2-0.6l0.1-0.3c0.1-0.2,0-0.4-0.2-0.5c-0.2-0.1-0.4,0-0.5,0.2
					l-0.1,0.3c-0.1,0.2-0.3,0.3-0.6,0.2L308,75c-0.2-0.1-0.4,0-0.5,0.2c-0.1,0.2,0,0.4,0.2,0.5l0.3,0.1c0.2,0.1,0.3,0.3,0.2,0.6
					l-0.1,0.3c-0.1,0.2,0,0.4,0.2,0.5c0.2,0.1,0.4,0,0.5-0.2l0.1-0.3c0.1-0.2,0.3-0.3,0.6-0.2l0.3,0.1c0.2,0.1,0.4,0,0.5-0.3
					C310.3,76,310.2,75.8,310.1,75.7z"/>
				<path class="st0" d="M323.9,83.1l-0.3-0.1c-0.2-0.1-0.3-0.3-0.2-0.6l0.1-0.3c0.1-0.2,0-0.4-0.2-0.5c-0.2-0.1-0.4,0-0.5,0.2
					l-0.1,0.3c-0.1,0.2-0.3,0.3-0.6,0.2l-0.3-0.1c-0.2-0.1-0.4,0-0.5,0.2c-0.1,0.2,0,0.4,0.2,0.5l0.3,0.1c0.2,0.1,0.3,0.3,0.2,0.6
					l-0.1,0.3c-0.1,0.2,0,0.4,0.2,0.5c0.2,0.1,0.4,0,0.5-0.2l0.1-0.3c0.1-0.2,0.3-0.3,0.6-0.2l0.3,0.1c0.2,0.1,0.4,0,0.5-0.3
					C324.2,83.3,324,83.1,323.9,83.1z"/>
				<path class="st0" d="M336.5,62.8l-0.3-0.1c-0.2-0.1-0.3-0.3-0.2-0.6l0.1-0.3c0.1-0.2,0-0.4-0.2-0.5c-0.2-0.1-0.4,0-0.5,0.2
					l-0.1,0.3c-0.1,0.2-0.3,0.3-0.6,0.2l-0.3-0.1c-0.2-0.1-0.4,0-0.5,0.2c-0.1,0.2,0,0.4,0.2,0.5l0.3,0.1c0.2,0.1,0.3,0.3,0.2,0.6
					l-0.1,0.3c-0.1,0.2,0,0.4,0.2,0.5c0.2,0.1,0.4,0,0.5-0.2l0.1-0.3c0.1-0.2,0.3-0.3,0.6-0.2l0.3,0.1c0.2,0.1,0.4,0,0.5-0.3
					C336.8,63,336.7,62.8,336.5,62.8z"/>
				<path class="st0" d="M350.9,67.3l-0.3-0.1c-0.2-0.1-0.3-0.3-0.2-0.6l0.1-0.3c0.1-0.2,0-0.4-0.2-0.5c-0.2-0.1-0.4,0-0.5,0.2
					l-0.1,0.3c-0.1,0.2-0.3,0.3-0.6,0.2l-0.3-0.1c-0.2-0.1-0.4,0-0.5,0.2c-0.1,0.2,0,0.4,0.2,0.5l0.3,0.1c0.2,0.1,0.3,0.3,0.2,0.6
					l-0.1,0.3c-0.1,0.2,0,0.4,0.2,0.5c0.2,0.1,0.4,0,0.5-0.2l0.1-0.3c0.1-0.2,0.3-0.3,0.6-0.2l0.3,0.1c0.2,0.1,0.4,0,0.5-0.3
					C351.1,67.6,351,67.4,350.9,67.3z"/>
				<path class="st0" d="M355.3,97.3l-0.3-0.1c-0.2-0.1-0.3-0.3-0.2-0.6l0.1-0.3c0.1-0.2,0-0.4-0.2-0.5c-0.2-0.1-0.4,0-0.5,0.2
					l-0.1,0.3c-0.1,0.2-0.3,0.3-0.6,0.2l-0.3-0.1c-0.2-0.1-0.4,0-0.5,0.2c-0.1,0.2,0,0.4,0.2,0.5l0.3,0.1c0.2,0.1,0.3,0.3,0.2,0.6
					l-0.1,0.3c-0.1,0.2,0,0.4,0.2,0.5c0.2,0.1,0.4,0,0.5-0.2l0.1-0.3c0.1-0.2,0.3-0.3,0.6-0.2l0.3,0.1c0.2,0.1,0.4,0,0.5-0.3
					C355.6,97.6,355.5,97.4,355.3,97.3z"/>
				<path class="st0" d="M318.3,109.6l-0.5-0.2c-0.4-0.2-0.6-0.6-0.5-1l0.2-0.5c0.1-0.3,0-0.7-0.3-0.9c-0.4-0.2-0.8,0-1,0.4
					l-0.2,0.5c-0.2,0.4-0.6,0.6-1,0.5l-0.5-0.2c-0.3-0.1-0.7,0-0.9,0.3c-0.2,0.4,0,0.8,0.4,1l0.5,0.2c0.4,0.2,0.6,0.6,0.5,1
					l-0.2,0.5c-0.1,0.3,0,0.7,0.3,0.9c0.4,0.2,0.8,0,1-0.4l0.2-0.5c0.2-0.4,0.6-0.6,1-0.5l0.5,0.2c0.4,0.1,0.8-0.1,0.9-0.5
					C318.8,110.1,318.6,109.7,318.3,109.6z"/>
				<path class="st0" d="M357.2,33.8l-0.5-0.2c-0.4-0.2-0.6-0.6-0.5-1l0.2-0.5c0.1-0.3,0-0.7-0.3-0.9c-0.4-0.2-0.8,0-1,0.4l-0.2,0.5
					c-0.2,0.4-0.6,0.6-1,0.5l-0.5-0.2c-0.3-0.1-0.7,0-0.9,0.3c-0.2,0.4,0,0.8,0.4,1l0.5,0.2c0.4,0.2,0.6,0.6,0.5,1l-0.2,0.5
					c-0.1,0.3,0,0.7,0.3,0.9c0.4,0.2,0.8,0,1-0.4l0.2-0.5c0.2-0.4,0.6-0.6,1-0.5l0.5,0.2c0.4,0.1,0.8-0.1,0.9-0.5
					C357.7,34.2,357.5,33.9,357.2,33.8z"/>
				<path class="st0" d="M351.5,127.8l-0.2-0.1c-0.2-0.1-0.3-0.3-0.2-0.4l0.1-0.2c0.1-0.1,0-0.3-0.1-0.4c-0.2-0.1-0.4,0-0.4,0.1
					l-0.1,0.2c-0.1,0.2-0.3,0.3-0.4,0.2l-0.2-0.1c-0.1-0.1-0.3,0-0.4,0.1c-0.1,0.2,0,0.4,0.1,0.4l0.2,0.1c0.2,0.1,0.3,0.3,0.2,0.4
					l-0.1,0.2c-0.1,0.1,0,0.3,0.1,0.4c0.2,0.1,0.4,0,0.4-0.1l0.1-0.2c0.1-0.2,0.3-0.3,0.4-0.2l0.2,0.1c0.2,0.1,0.4,0,0.4-0.2
					C351.7,127.9,351.7,127.8,351.5,127.8z"/>
				<path class="st0" d="M338.8,139.7l-0.2-0.1c-0.2-0.1-0.3-0.3-0.2-0.4l0.1-0.2c0.1-0.1,0-0.3-0.1-0.4c-0.2-0.1-0.4,0-0.4,0.1
					l-0.1,0.2c-0.1,0.2-0.3,0.3-0.4,0.2l-0.2-0.1c-0.1-0.1-0.3,0-0.4,0.1c-0.1,0.2,0,0.4,0.1,0.4l0.2,0.1c0.2,0.1,0.3,0.3,0.2,0.4
					l-0.1,0.2c-0.1,0.1,0,0.3,0.1,0.4c0.2,0.1,0.4,0,0.4-0.1l0.1-0.2c0.1-0.2,0.3-0.3,0.4-0.2l0.2,0.1c0.2,0.1,0.4,0,0.4-0.2
					C339,139.9,338.9,139.8,338.8,139.7z"/>
				<path class="st0" d="M330.7,132.6l-0.2-0.1c-0.2-0.1-0.3-0.3-0.2-0.4l0.1-0.2c0-0.1,0-0.3-0.1-0.3c-0.2-0.1-0.3,0-0.4,0.1
					l-0.1,0.2c-0.1,0.2-0.3,0.3-0.4,0.2l-0.2-0.1c-0.1,0-0.3,0-0.3,0.1c-0.1,0.2,0,0.3,0.1,0.4l0.2,0.1c0.2,0.1,0.3,0.3,0.2,0.4
					l-0.1,0.2c0,0.1,0,0.3,0.1,0.3c0.2,0.1,0.3,0,0.4-0.1l0.1-0.2c0.1-0.2,0.3-0.3,0.4-0.2l0.2,0.1c0.2,0.1,0.3,0,0.4-0.2
					C330.9,132.8,330.9,132.7,330.7,132.6z"/>
				<path class="st0" d="M343,20.3h-1.4c-1.1,0-2.1-0.9-2.1-2.1v-1.4c0-0.9-0.6-1.7-1.5-1.8c-1.1-0.2-2,0.7-2,1.7v1.4
					c0,1.1-0.9,2.1-2.1,2.1h-1.4c-0.9,0-1.7,0.6-1.8,1.5c-0.2,1.1,0.7,2,1.7,2h1.4c1.1,0,2.1,0.9,2.1,2.1v1.4c0,0.9,0.6,1.7,1.5,1.8
					c1.1,0.2,2-0.7,2-1.7v-1.4c0-1.1,0.9-2.1,2.1-2.1h1.4c1.1,0,1.9-0.9,1.7-2C344.6,20.9,343.8,20.3,343,20.3z"/>
				<path class="st0" d="M326.1,54.7h-1c-0.8,0-1.4-0.6-1.4-1.4v-1c0-0.6-0.4-1.2-1-1.3c-0.8-0.1-1.4,0.5-1.4,1.2v1
					c0,0.8-0.6,1.4-1.4,1.4h-1c-0.6,0-1.2,0.4-1.3,1c-0.1,0.8,0.5,1.4,1.2,1.4h1c0.8,0,1.4,0.6,1.4,1.4v1c0,0.6,0.4,1.2,1,1.3
					c0.8,0.1,1.4-0.5,1.4-1.2v-1c0-0.8,0.6-1.4,1.4-1.4h1c0.7,0,1.3-0.7,1.2-1.4C327.3,55.1,326.7,54.7,326.1,54.7z"/>
				<path class="st0" d="M376.5,67.6h-1c-0.8,0-1.4-0.6-1.4-1.4v-1c0-0.6-0.4-1.2-1-1.3c-0.8-0.1-1.4,0.5-1.4,1.2v1
					c0,0.8-0.6,1.4-1.4,1.4h-1c-0.6,0-1.2,0.4-1.3,1c-0.1,0.8,0.5,1.4,1.2,1.4h1c0.8,0,1.4,0.6,1.4,1.4v1c0,0.6,0.4,1.2,1,1.3
					c0.8,0.1,1.4-0.5,1.4-1.2v-1c0-0.8,0.6-1.4,1.4-1.4h1c0.7,0,1.3-0.7,1.2-1.4C377.7,68,377.2,67.6,376.5,67.6z"/>
				<path class="st0" d="M299,22.8l-0.2,0.2c-0.2,0.2-0.5,0.1-0.6-0.1l-0.2-0.2c-0.1-0.1-0.3-0.2-0.5-0.1c-0.2,0.1-0.2,0.4-0.1,0.5
					l0.2,0.2c0.2,0.2,0.1,0.5-0.1,0.6l-0.2,0.2c-0.1,0.1-0.2,0.3-0.1,0.5c0.1,0.2,0.4,0.2,0.5,0.1l0.2-0.2c0.2-0.2,0.5-0.1,0.6,0.1
					l0.2,0.2c0.1,0.1,0.3,0.2,0.5,0.1c0.2-0.1,0.2-0.4,0.1-0.5l-0.2-0.2c-0.2-0.2-0.1-0.5,0.1-0.6l0.2-0.2c0.2-0.1,0.2-0.4,0-0.6
					C299.3,22.7,299.1,22.7,299,22.8z"/>
			</g>
		</g>
	</g>
	<g>
		<text transform="matrix(1 0 0 1 147.4707 470.2663)" class="st0 st1 st2">HOME</text>
	</g>
</g>
</svg>
