<?xml version="1.0" encoding="utf-8"?>
<!-- Generator: Adobe Illustrator 19.1.0, SVG Export Plug-In . SVG Version: 6.00 Build 0)  -->
<svg version="1.1" id="Layer_1" xmlns="http://www.w3.org/2000/svg" xmlns:xlink="http://www.w3.org/1999/xlink" x="0px" y="0px"
	 viewBox="0 0 360 360" style="enable-background:new 0 0 360 360;" xml:space="preserve">
<style type="text/css">
	.st0{fill:#1A333A;}
	.st1{font-family:'FuturaPT-Book';}
	.st2{font-size:75.0369px;}
</style>
<g>
	<g>
		<g>
			<path class="st0" d="M233.8,242.5H82.5v-81.9c0-21.7,17.7-39.4,39.4-39.4h72.6c21.7,0,39.4,17.7,39.4,39.4V242.5z M96.7,228.3
				h122.9v-67.7c0-13.9-11.3-25.2-25.2-25.2h-72.6c-13.9,0-25.2,11.3-25.2,25.2V228.3z"/>
			<path class="st0" d="M196.6,134.6h-76.9V92.5c0-4,3.3-7.3,7.3-7.3h62.3c4,0,7.3,3.3,7.3,7.3V134.6z M133.9,120.4h48.5v-21h-48.5
				V120.4z"/>
			<path class="st0" d="M195.1,133.1h-74.1v-29h74.1V133.1z M132.4,121.8h51.3v-6.2h-51.3V121.8z"/>
			<path class="st0" d="M213.9,167.5h-14.2c0-10.3-4.5-12.3-12.3-12.3v-14.2C204.5,141.1,213.9,150.5,213.9,167.5z"/>
		</g>
		<g>
			<polygon class="st0" points="286.2,230 280.6,242.5 275.1,230 275.1,29.7 286.2,29.7 			"/>
			<g>
				<path class="st0" d="M280.6,183.9c-38.3,0-42.8-41.5-42.8-72.7c0-44.7,36.1-91.4,37.7-93.4l5.1-6.5l5.1,6.5
					c1.5,2,37.7,48.7,37.7,93.4C323.4,159.5,309,183.9,280.6,183.9z M280.6,32.9c-9.7,14.2-29.9,47.6-29.9,78.4
					c0,53,16,59.8,29.9,59.8c7.4,0,29.9,0,29.9-59.8C310.5,80.5,290.3,47.1,280.6,32.9z"/>
				<polygon class="st0" points="280.6,84.8 260.1,49.2 269,44 280.6,64.2 292.3,44 301.2,49.2 				"/>
				<polygon class="st0" points="280.6,126.8 250.1,74 259.1,68.8 280.6,106.2 302.2,68.8 311.1,74 				"/>
				<polygon class="st0" points="280.6,170.6 239.9,100.1 248.8,95 280.6,150 312.4,95 321.4,100.1 				"/>
			</g>
		</g>
	</g>
	<text transform="matrix(1 0 0 1 31.8784 349.3799)" class="st0 st1 st2">JOURNAL</text>
</g>
</svg>
