<?xml version="1.0" encoding="utf-8"?>
<!-- Generator: Adobe Illustrator 19.1.0, SVG Export Plug-In . SVG Version: 6.00 Build 0)  -->
<svg version="1.1" id="Layer_1" xmlns="http://www.w3.org/2000/svg" xmlns:xlink="http://www.w3.org/1999/xlink" x="0px" y="0px"
	 viewBox="0 0 240.9 340" style="enable-background:new 0 0 240.9 340;" xml:space="preserve">
<style type="text/css">
	.st0{fill:#1A333A;}
	.st1{fill:#D15028;}
	.st2{fill:#B5351C;}
</style>
<g>
	<g>
		<polygon class="st0" points="230.9,196.6 120,260.7 9.1,196.6 9.1,68.5 120,4.5 230.9,68.5 		"/>
		<g>
			<path class="st1" d="M102.7,48.4L85.4,86.6l29.8,65.8c4.3,9.6-2.7,20.8-13.2,20.5c-0.4,0-0.7,0-1.1-0.1
				c-7.1-0.7-12.5-6.1-13.4-13.2c-1.1-9.2,6.1-17.3,15-17.3l0,0l-14.2-31.1c-20.9,6.4-36.4,25.3-35.5,48.6
				c1,24.8,20.6,45.5,45.4,47.6c22.3,1.9,41.9-11,50.1-30c4-9.4,3.7-20-0.5-29.3L102.7,48.4z"/>
			<polygon class="st2" points="145.2,47.8 127.9,86 160.2,157.3 194.9,157.3 			"/>
			<polyline class="st1" points="164.5,86.1 145.2,47.8 145.2,124.2 160.2,157.3 196,157.3 179.2,122.7 181.5,122.7 162.6,86.1 
				164,86.1 			"/>
		</g>
	</g>
	<g>
		<g>
			<g>
				<g>
					<polygon class="st0" points="31.2,335.5 31.2,331.9 33.8,331.9 33.8,317.5 26.7,335.5 24.1,335.5 17,317.5 17,331.9 
						19.6,331.9 19.6,335.5 10.8,335.5 10.8,331.9 13.3,331.9 13.3,313.8 10.8,313.8 10.8,310.2 18.1,310.2 25.5,329.1 33,310.2 
						40,310.2 40,313.8 37.4,313.8 37.4,331.9 40,331.9 40,335.5 					"/>
				</g>
				<g>
					<path class="st0" d="M55,335.5c-3.4,0-6.3-1.2-8.4-3.4c-2.1-2.3-3.2-5.3-3.2-9.1c0-4,1.1-7.1,3.2-9.3c2.1-2.2,5-3.3,8.4-3.3
						c2.5,0,5.1,0.7,7.7,1.9l0.3,0.2v6h-3.7v-3.6c-1.3-0.6-2.9-0.9-4.5-0.9c-2.5,0-4.3,0.7-5.6,2.3c-1.3,1.5-1.9,3.8-1.9,6.6
						c0,2.9,0.7,5.2,2.1,6.8c1.4,1.6,3.3,2.4,5.7,2.4c2.2,0,4.5-0.8,7.1-2.2l0.9-0.5v3.8l-0.3,0.2C60.3,334.7,57.6,335.5,55,335.5z"
						/>
				</g>
				<g>
					<path class="st0" d="M82.2,335.5v-3.6h2.4l-1.6-4.7h-8.2l-1.6,4.7h2.5v3.6h-8.8v-3.6h2.5l7.8-21.7h3.7l7.7,21.7h2.5v3.6H82.2z
						 M81.7,323.6l-2.9-8.2l-2.9,8.2H81.7z"/>
				</g>
				<g>
					<polygon class="st0" points="94.8,335.5 94.8,331.9 97.4,331.9 97.4,313.8 94.8,313.8 94.8,310.2 103.6,310.2 103.6,313.8 
						101.1,313.8 101.1,331.9 110.2,331.9 110.2,327.2 113.8,327.2 113.8,335.5 					"/>
				</g>
				<g>
					<polygon class="st0" points="116.9,335.5 116.9,331.9 119.5,331.9 119.5,313.8 116.9,313.8 116.9,310.2 125.7,310.2 
						125.7,313.8 123.2,313.8 123.2,331.9 125.7,331.9 125.7,335.5 					"/>
				</g>
				<g>
					<polygon class="st0" points="149.3,335.5 137.4,317.3 137.4,331.9 139.9,331.9 139.9,335.5 131.1,335.5 131.1,331.9 
						133.7,331.9 133.7,313.8 131.1,313.8 131.1,310.2 137.1,310.2 149,328.4 149,313.8 146.5,313.8 146.5,310.2 155.3,310.2 
						155.3,313.8 152.7,313.8 152.7,335.5 					"/>
				</g>
				<g>
					<path class="st0" d="M159.7,335.5v-3.6h2.6v-18.1h-2.6v-3.6h8.5c3.9,0,6.9,1,8.9,3s3.1,5,3.1,8.9c0,4.4-1.1,7.7-3.4,10
						c-2.2,2.2-5.3,3.3-9.1,3.3h-8V335.5z M168,331.9c2.7,0,4.7-0.8,6.1-2.3c1.4-1.5,2.1-3.9,2.1-7.1c0-2.9-0.7-5.1-2-6.6
						c-1.3-1.4-3.4-2.1-6.3-2.1h-2.1v18.1H168z"/>
				</g>
				<g>
					<polygon class="st0" points="183.3,335.5 183.3,331.9 185.9,331.9 185.9,313.8 183.3,313.8 183.3,310.2 201.5,310.2 
						201.5,318.5 197.8,318.5 197.8,313.8 189.6,313.8 189.6,320.5 192.7,320.5 192.7,317.8 196.4,317.8 196.4,327 192.7,327 
						192.7,324.1 189.6,324.1 189.6,331.9 197.8,331.9 197.8,327.2 201.5,327.2 201.5,335.5 					"/>
				</g>
				<g>
					<polygon class="st0" points="223.3,335.5 211.4,317.3 211.4,331.9 213.9,331.9 213.9,335.5 205.1,335.5 205.1,331.9 
						207.7,331.9 207.7,313.8 205.1,313.8 205.1,310.2 211.1,310.2 223,328.4 223,313.8 220.4,313.8 220.4,310.2 229.2,310.2 
						229.2,313.8 226.7,313.8 226.7,335.5 					"/>
				</g>
				<g>
					<path class="st0" d="M55.1,335.5c-3.5,0-6.3-1.1-8.4-3.3c-2.1-2.2-3.2-5.4-3.2-9.3c0-3.8,1.1-6.9,3.2-9.1
						c2.1-2.3,4.9-3.4,8.4-3.4c2.6,0,5.3,0.8,7.9,2.4l0.3,0.2v3.8l-0.9-0.5c-2.5-1.5-4.9-2.2-7.1-2.2c-2.5,0-4.4,0.8-5.7,2.4
						c-1.4,1.6-2.1,3.9-2.1,6.8c0,2.8,0.7,5,1.9,6.6c1.3,1.5,3.1,2.3,5.6,2.3c1.7,0,3.2-0.3,4.5-0.9v-3.6h3.7v6l-0.3,0.2
						C60.3,334.8,57.7,335.5,55.1,335.5z"/>
				</g>
			</g>
		</g>
		<g>
			<g>
				<g>
					<path class="st0" d="M25.2,294.3v-3.5h2.3l-1.5-4.4h-7.7l-1.5,4.4h2.4v3.5h-8.4v-3.5h2.4l7.4-20.6h3.5l7.3,20.6h2.3v3.5H25.2z
						 M24.8,283l-2.7-7.7l-2.7,7.7H24.8z"/>
				</g>
				<g>
					<path class="st0" d="M47.2,294.3l-0.1-1.9c-1.4,1.3-3,1.9-4.8,1.9s-3.1-0.5-4.1-1.5s-1.5-2.3-1.5-4c0-4.1,3.1-6.3,9.2-6.3H47
						v-1.2c0-0.9-0.2-1.5-0.7-1.9c-0.4-0.4-1.2-0.6-2.2-0.6c-1.7,0-3.6,0.5-5.6,1.4l-0.8,0.4V277l0.3-0.2c2.1-1,4.2-1.5,6.4-1.5
						c2,0,3.5,0.5,4.5,1.5s1.6,2.6,1.6,4.7v9.4h2.4v3.5L47.2,294.3L47.2,294.3z M45.5,286c-5,0-5,2-5,2.6c0,0.7,0.2,1.3,0.6,1.6
						c0.4,0.4,1,0.5,1.8,0.5c1.5,0,2.9-0.7,4.2-2.2V286H45.5z"/>
				</g>
				<g>
					<path class="st0" d="M57,294.3v-3.5h2.4v-12H57v-3.5h5.8l0.1,1.7c1-1.1,2.4-1.7,3.9-1.7c0.4,0,0.9,0,1.4,0.1l0.5,0.1v4
						l-0.7-0.1c-0.5-0.1-1-0.2-1.5-0.2c-1.6,0-2.7,0.7-3.4,2.2v9.4h2.4v3.5H57z"/>
				</g>
				<g>
					<path class="st0" d="M79.8,294.3c-2.4,0-4.4-0.9-5.9-2.6s-2.2-4-2.2-6.8c0-2.9,0.8-5.2,2.4-7c1.6-1.7,3.6-2.6,6.1-2.6
						c2.4,0,4.4,0.8,5.8,2.5c1.4,1.6,2.2,3.9,2.2,6.7c0,3-0.8,5.3-2.3,7.1C84.3,293.4,82.2,294.3,79.8,294.3z M79.8,278.8
						c-1.4,0-2.4,0.4-3.2,1.3c-0.8,0.9-1.2,2.4-1.2,4.4c0,2.1,0.4,3.7,1.2,4.8c0.8,1,1.9,1.5,3.4,1.5c1.4,0,2.5-0.5,3.2-1.4
						c0.8-1,1.2-2.5,1.2-4.6s-0.4-3.6-1.2-4.6C82.5,279.2,81.3,278.8,79.8,278.8z"/>
				</g>
				<g>
					<path class="st0" d="M102,294.3v-3.5h2.4v-9.2c0-1.1-0.2-1.9-0.6-2.2c-0.4-0.4-1-0.6-1.8-0.6c-1.6,0-2.9,0.8-4.2,2.3v9.7h2.4
						v3.5H92v-3.5h2.4v-12H92v-3.5h5.8l0.1,1.8c1.4-1.2,3.1-1.8,4.9-1.8s3.1,0.6,4,1.7c0.8,1.1,1.3,2.5,1.3,4.3v9.5h2.4v3.5
						L102,294.3L102,294.3z"/>
				</g>
				<g>
					<path class="st0" d="M122.4,299.4c-0.5,0-1,0-1.5-0.1l-0.4-0.1v-3.3h0.6c0.3,0,0.7,0,1.1,0c0.9,0,1.4-0.2,1.8-0.7
						c0.4-0.5,0.5-1.4,0.5-2.7v-18.9h-2.4v-3.4h8.4v3.5h-2.4v18.7c0,2.3-0.4,4-1.2,5.2C126,298.7,124.5,299.4,122.4,299.4z"/>
				</g>
				<g>
					<path class="st0" d="M141.6,294.3c-2.4,0-4.4-0.9-5.9-2.6s-2.2-4-2.2-6.8c0-2.9,0.8-5.2,2.4-7c1.6-1.7,3.6-2.6,6.1-2.6
						c2.4,0,4.4,0.8,5.8,2.5c1.4,1.6,2.2,3.9,2.2,6.7c0,3-0.8,5.3-2.3,7.1C146.1,293.4,144.1,294.3,141.6,294.3z M141.7,278.8
						c-1.4,0-2.4,0.4-3.2,1.3s-1.2,2.4-1.2,4.4c0,2.1,0.4,3.7,1.2,4.8c0.8,1,1.9,1.5,3.4,1.5c1.4,0,2.5-0.5,3.2-1.4
						c0.8-1,1.2-2.5,1.2-4.6s-0.4-3.6-1.2-4.6C144.3,279.2,143.2,278.8,141.7,278.8z"/>
				</g>
				<g>
					<path class="st0" d="M160.4,294.3c-1.9,0-3.8-0.4-5.6-1.2l-0.3-0.1v-4.9h3.6v2.5c0.8,0.2,1.7,0.3,2.6,0.3c1,0,1.9-0.2,2.6-0.5
						c0.6-0.3,0.9-0.7,0.9-1.3c0-0.7-0.2-1.1-0.8-1.4c-0.7-0.4-1.7-0.8-2.9-1.1c-0.7-0.2-1.4-0.4-2.1-0.7c-0.7-0.3-1.4-0.6-2-1
						s-1.1-1-1.5-1.6c-0.4-0.7-0.6-1.5-0.6-2.4c0-1.7,0.7-3.1,2.1-4.1c1.3-0.9,3-1.4,5.1-1.4c1.7,0,3.6,0.3,5.5,1l0.4,0.1v5.2h-3.6
						v-2.5c-0.8-0.2-1.6-0.3-2.5-0.3c-1,0-1.8,0.2-2.4,0.5c-0.5,0.3-0.8,0.6-0.8,1.2c0,0.3,0.1,0.6,0.2,0.8c0.1,0.2,0.3,0.4,0.6,0.6
						s0.7,0.4,1.2,0.6s1.1,0.4,1.8,0.6s1.4,0.5,2,0.7c0.7,0.3,1.4,0.6,1.9,1c0.6,0.4,1.1,0.9,1.5,1.6c0.4,0.6,0.6,1.4,0.6,2.4
						c0,1.8-0.7,3.2-2.1,4.2C164.4,293.8,162.6,294.3,160.4,294.3z"/>
				</g>
				<g>
					<path class="st0" d="M180.4,294.3c-2.6,0-4.7-0.9-6.2-2.6s-2.2-3.9-2.2-6.6c0-3,0.7-5.4,2.2-7.1s3.5-2.6,5.9-2.6
						c2.1,0,3.8,0.8,5,2.3c1.1,1.5,1.7,3.6,1.7,6.2v1.9h-11.1c0.1,1.5,0.6,2.8,1.3,3.7c0.8,1,2,1.4,3.6,1.4s3.3-0.6,4.8-1.6l0.9-0.6
						v3.9l-0.3,0.2C184.4,293.7,182.4,294.3,180.4,294.3z M183.3,282.2c-0.3-3.1-2.1-3.4-3.4-3.4c-1.2,0-2.1,0.3-2.7,1
						c-0.5,0.6-0.9,1.4-1.1,2.4H183.3z"/>
				</g>
				<g>
					<path class="st0" d="M190.3,301.9v-3.5h2.4v-19.7h-2.4v-3.5h5.8l0.1,1.6c1.3-1,2.7-1.6,4.3-1.6c2.1,0,3.9,0.9,5.2,2.6
						s1.9,3.9,1.9,6.5c0,2.9-0.8,5.2-2.2,7c-1.5,1.8-3.5,2.8-5.9,2.8c-1.1,0-2.2-0.2-3.2-0.6v4.7h2.4v3.5h-8.4V301.9z M196.3,290.3
						c0.8,0.3,1.8,0.5,2.9,0.5c1.5,0,2.6-0.4,3.4-1.4c0.8-0.9,1.2-2.5,1.2-4.6c0-2-0.4-3.5-1.1-4.6c-0.7-1-1.7-1.5-2.9-1.5
						s-2.3,0.6-3.5,1.8L196.3,290.3L196.3,290.3z"/>
				</g>
				<g>
					<path class="st0" d="M220.9,294.3v-3.5h2.4v-9.2c0-1.1-0.2-1.9-0.6-2.2c-0.4-0.4-1-0.6-1.8-0.6c-1.6,0-2.9,0.7-4.2,2.3v9.8h2.4
						v3.5h-8.4v-3.5h2.4v-19.4h-2.4v-3.7h6v9.4c1.4-1.1,3-1.7,4.8-1.7s3.1,0.6,4,1.7c0.8,1.1,1.3,2.5,1.3,4.3v9.5h2.4v3.5h-8.3
						V294.3z"/>
				</g>
			</g>
		</g>
	</g>
</g>
</svg>
