<?xml version="1.0" encoding="utf-8"?>
<!-- Generator: Adobe Illustrator 19.1.0, SVG Export Plug-In . SVG Version: 6.00 Build 0)  -->
<svg version="1.1" id="Layer_1" xmlns="http://www.w3.org/2000/svg" xmlns:xlink="http://www.w3.org/1999/xlink" x="0px" y="0px"
	 viewBox="0 0 360 329" style="enable-background:new 0 0 360 329;" xml:space="preserve">
<style type="text/css">
	.st0{fill:#D15028;}
</style>
<g>
	<g>
		<g>
			<ellipse class="st0" cx="232" cy="103.4" rx="17.9" ry="16.7"/>
		</g>
		<g>
			<ellipse class="st0" cx="124.8" cy="103.4" rx="17.9" ry="16.7"/>
		</g>
		<path class="st0" d="M204.6,166.9l-24,15l-24-15c-11.1-6.9-16.2-20.8-9.8-31.7c4.5-7.7,13.2-13.3,24.1-13.3h19.6
			c10.8,0,19.5,5.6,24.1,13.3C220.9,146.2,215.7,160,204.6,166.9z"/>
	</g>
	<path class="st0" d="M304.6,147.7h-19.3v-26.8c0-54.7-48-99.3-106.9-99.3S71.6,66.1,71.6,120.9v26.8H52.3v-26.8
		c0-65.4,56.6-118.6,126.2-118.6s126.2,53.2,126.2,118.6V147.7z"/>
	<path class="st0" d="M223.6,153c-2.3,8-7.2,13.4-13.8,17.5l-3.4,2.5H291v134H69V173h85.9l-3.4-2.5c-6.7-4.1-11.5-9.5-13.8-17.5H49
		v174h260V153H223.6z"/>
	<path class="st0" d="M300,153h-76.9c-1.7,9-6.8,17-14.1,20h58.6l-88.9,58l-84-58h57.6c-7.3-3-12.4-11-14.1-20H63.4
		c-4.5,0-8.4,4-9.8,7.9c-1.4,4,0.1,8.9,3.7,11.4l115.2,79.9c1.8,1.3,4,2.1,6.1,2.1c2.1,0,4.1-0.5,5.9-1.7l121.6-80.2L300,153z"/>
</g>
</svg>
