<?xml version="1.0" encoding="utf-8"?>
<!-- Generator: Adobe Illustrator 19.1.0, SVG Export Plug-In . SVG Version: 6.00 Build 0)  -->
<svg version="1.1" id="Layer_1" xmlns="http://www.w3.org/2000/svg" xmlns:xlink="http://www.w3.org/1999/xlink" x="0px" y="0px"
	 viewBox="0 0 360 329" style="enable-background:new 0 0 360 329;" xml:space="preserve">
<style type="text/css">
	.st0{fill:#D15028;}
</style>
<g>
	<g>
		<path class="st0" d="M180.7,328.4l-77.9-35.2L33,323c-5,2.1-10.6,1.6-15.1-1.4c-4.5-3-7.2-8-7.2-13.3V50.3
			c0-6.4,3.8-12.2,9.8-14.7l82.9-35.1l77.3,34.9l83.2-34.9l76.6,35.2l0,0c5.5,2.7,8.9,8.2,8.9,14.3v257.5c0,5.6-2.8,10.7-7.6,13.6
			c-4.8,2.9-10.6,3.2-15.6,0.6l-61.9-31.4L180.7,328.4z M103.1,271.9l77.6,35.1l77-35.1c4.5-2,9.5-1.9,13.9,0.3l58.2,29.6V52.3
			l-66.3-30l-82.7,34.7l-77.6-35.1L30.2,52.7v250.3L103.1,271.9z"/>
		<rect x="253.9" y="15" class="st0" width="19.5" height="264.5"/>
		<rect x="170.9" y="46.2" class="st0" width="19.5" height="271.5"/>
		<rect x="93.5" y="11.2" class="st0" width="19.5" height="271.4"/>
	</g>
	<g>
		<path class="st0" d="M295.1,243.6c-2.7-1.9-5.8-3.3-9.1-4.3l3.7-13c4.8,1.3,9.2,3.4,13.2,6.2c1.9,1.3,3.6,2.7,5.2,4.2l-9.2,9.9
			C297.8,245.6,296.5,244.6,295.1,243.6z M242.9,233.1l7.5-11.2c2.1,1.4,4.6,2.2,6.1,1.9c2.4-0.5,4.9-0.7,7.3-0.8l0.6,13.5
			c-1.8,0.1-3.6,0.3-5.4,0.6c-1,0.2-1.9,0.3-2.9,0.3C251.8,237.4,247.1,235.9,242.9,233.1z M230,209.6l0-0.3c0-4.4,0.4-8.2,1.2-11.4
			l13.1,3.3c-0.5,2.1-0.8,4.8-0.8,8l0,0.2c0,1.9,0.4,3.7,1.1,5.4l-12.5,5.2C230.8,216.7,230.1,213.2,230,209.6z M239.6,183.8
			c5.1-5.4,12.3-8.8,20-9.8l1.7,13.4c-4.7,0.6-9,2.6-12,5.8L239.6,183.8z M279.2,172.2c5.6-1,10.1-2.9,13.3-5.6l8.8,10.3
			c-5,4.3-11.7,7.2-19.7,8.6L279.2,172.2z M297.5,158.9c0.7-2.3,1.1-5,1-7.9c0-2.1-0.3-4.4-0.7-6.8l13.3-2.3c0.6,3.1,0.9,6.1,0.9,9
			c0.1,4.4-0.5,8.5-1.7,12.2L297.5,158.9z M199.1,143.5c5.2-1.7,10.2-4,15.1-6.9l6.9,11.6c-5.7,3.4-11.7,6.2-17.8,8.1L199.1,143.5z
			 M224.1,129.6c3.8-3.1,7.5-6.6,11-10.4c0.5-0.6,1.1-1.2,1.7-1.7l9.5,9.7c-0.4,0.4-0.8,0.8-1.1,1.2c-4,4.3-8.1,8.3-12.4,11.8
			L224.1,129.6z M286.3,122.3l7.4-11.3c6,3.9,10.7,9.4,14,16.5l-12.3,5.7C293.2,128.4,290.2,124.8,286.3,122.3z M249.8,108.8
			c4.9-2.1,9.9-3.1,15.1-3.2l0,0c2.1,0,4.2,0.1,6.3,0.4l-2,13.4c-1.3-0.2-2.7-0.3-4.1-0.3l0,0c-3.4,0-6.8,0.8-10,2.1L249.8,108.8z"
			/>
	</g>
	<g>
		<path class="st0" d="M90.1,64.1c2.7,1.9,5.8,3.3,9.1,4.3l-3.7,13c-4.8-1.3-9.2-3.4-13.2-6.2c-1.9-1.3-3.6-2.7-5.2-4.2l9.2-9.9
			C87.5,62.1,88.8,63.1,90.1,64.1z M131.7,72.9l-7.5,11.2c-2.1-1.4-4.6-2.2-6.1-1.9c-2.4,0.5-4.9,0.7-7.3,0.8l-0.6-13.5
			c1.8-0.1,3.6-0.3,5.4-0.6c1-0.2,1.9-0.3,2.9-0.3C122.8,68.6,127.5,70.1,131.7,72.9z M144.6,96.3l0,0.3c0,4.4-0.4,8.2-1.2,11.4
			l-13.1-3.3c0.5-2.1,0.8-4.8,0.8-8l0-0.2c0-1.9-0.4-3.7-1.1-5.4l12.5-5.2C143.8,89.2,144.5,92.7,144.6,96.3z M135,122.2
			c-5.1,5.4-12.3,8.8-20,9.8l-1.7-13.4c4.7-0.6,9-2.6,12-5.8L135,122.2z M102.2,133c-5.6,1-10.1,2.9-13.3,5.6l-8.8-10.3
			c5-4.3,11.7-7.2,19.7-8.6L102.2,133z M83.8,146.4c-0.7,2.3-1.1,5-1,7.9c0,2.1,0.3,4.4,0.7,6.8l-13.3,2.3c-0.6-3.1-0.9-6.1-0.9-9
			c-0.1-4.4,0.5-8.5,1.7-12.2L83.8,146.4z M175.6,162.4c-5.2,1.7-10.2,4-15.1,6.9l-6.9-11.6c5.7-3.4,11.7-6.2,17.8-8.1L175.6,162.4z
			 M150.5,176.3c-3.8,3.1-7.5,6.6-11,10.4c-0.5,0.6-1.1,1.2-1.7,1.7l-9.5-9.7c0.4-0.4,0.8-0.8,1.1-1.2c4-4.3,8.1-8.3,12.4-11.8
			L150.5,176.3z M95.9,182.9l-7.4,11.3c-6-3.9-10.7-9.4-14-16.5l12.3-5.7C89,176.7,92,180.4,95.9,182.9z M124.8,197.1
			c-4.9,2.1-9.9,3.1-15.1,3.2c0,0,0,0,0,0c-2.1,0-4.2-0.1-6.3-0.4l2-13.4c1.3,0.2,2.7,0.3,4.1,0.3l0,0c3.4,0,6.8-0.8,10-2.1
			L124.8,197.1z"/>
		<path class="st0" d="M78.1,45.4l-13.4,1.9c0.5,3.8,1.6,7.4,3.1,10.8l12.3-5.6C79.1,50.3,78.4,47.9,78.1,45.4z"/>
	</g>
	<g>
		
			<rect x="301.4" y="250.5" transform="matrix(0.7072 0.707 -0.707 0.7072 278.8852 -140.6454)" class="st0" width="15.6" height="31.7"/>
		
			<rect x="293.4" y="258.6" transform="matrix(0.7071 0.7071 -0.7071 0.7071 278.9203 -140.648)" class="st0" width="31.7" height="15.6"/>
	</g>
</g>
</svg>
