<?xml version="1.0" encoding="utf-8"?>
<!-- Generator: Adobe Illustrator 19.1.0, SVG Export Plug-In . SVG Version: 6.00 Build 0)  -->
<svg version="1.1" id="Layer_1" xmlns="http://www.w3.org/2000/svg" xmlns:xlink="http://www.w3.org/1999/xlink" x="0px" y="0px"
	 viewBox="-4304 852.2 30.4 25.8" style="enable-background:new -4304 852.2 30.4 25.8;" xml:space="preserve">
<style type="text/css">
	.st0{fill:#D7F5A6;}
</style>
<path class="st0" d="M-4276.6,857.8c-0.7-0.2-3-0.2-4-0.2c-0.2,0-0.4-0.2-0.4-0.4l0.1-1.8c0-0.5-0.4-1.3-0.9-1.3h-19.9
	c-0.5,0-0.9,0.8-0.9,1.3l2,19.6c0,0.5,0.4,1.1,0.9,1.1h16c0.5,0,0.9-0.4,0.9-0.9l0.2-1.4c0-0.3,0.3-0.6,0.6-0.7l0.9-0.3
	c2-0.5,4.7-2.3,5.4-5.8C-4275.4,865.6-4274.1,858.5-4276.6,857.8z M-4277.6,866.5c-0.5,2.4-2.3,3.6-3.7,4l-0.2,0.1
	c-0.4,0.1-0.8-0.2-0.7-0.6l1-9.5c0-0.3,0.3-0.5,0.5-0.5c0.7,0,2.1,0,2.5,0.1C-4276.5,860.5-4277.4,865.4-4277.6,866.5z"/>
</svg>
