<?xml version="1.0" encoding="utf-8"?>
<!-- Generator: Adobe Illustrator 19.1.0, SVG Export Plug-In . SVG Version: 6.00 Build 0)  -->
<svg version="1.1" id="Layer_1" xmlns="http://www.w3.org/2000/svg" xmlns:xlink="http://www.w3.org/1999/xlink" x="0px" y="0px"
	 viewBox="0 0 1024 981" style="enable-background:new 0 0 1024 981;" xml:space="preserve">
<style type="text/css">
	.st0{clip-path:url(#SVGID_2_);}
	.st1{fill:none;}
	.st2{fill:#D15028;}
	.st3{clip-path:url(#SVGID_4_);}
</style>
<g>
	<defs>
		<rect id="SVGID_1_" x="332" y="1888.5" width="1024" height="981"/>
	</defs>
	<clipPath id="SVGID_2_">
		<use xlink:href="#SVGID_1_"  style="overflow:visible;"/>
	</clipPath>
	<g class="st0">
		<polygon class="st1" points="1299.2,1973.2 1300.6,1970.1 1297,1967.9 1297.4,1969.4 		"/>
		<polygon class="st1" points="1300.7,1976.5 1302.9,1973.1 1303.3,1971.8 1299.3,1973.6 		"/>
		<polygon class="st1" points="1331.7,1958.4 1331.6,1958.3 1331.7,1958.4 		"/>
		<polygon class="st1" points="746.4,1979.3 746.7,1978.7 746.1,1978.3 746.4,1979.3 		"/>
		<polygon class="st1" points="726.5,1983.3 726.9,1982 725.9,1981.2 726,1982.1 		"/>
		<polygon class="st1" points="1109.5,1969.4 1109.9,1967.9 1106.3,1970.1 1107.7,1973.2 		"/>
		<polygon class="st1" points="1268.7,1973 1268.3,1972.8 1268.5,1973.6 		"/>
		<polygon class="st1" points="1192.3,1969.6 1192.7,1968.2 1191.8,1968.7 1192.3,1969.7 		"/>
		<polygon class="st1" points="1222.2,1973.6 1222.5,1972.4 1220.9,1973.6 1221.6,1975.5 		"/>
		<polygon class="st1" points="1106.2,1976.5 1107.6,1973.6 1103.6,1971.8 1104,1973.1 		"/>
		<polygon class="st1" points="885.3,1979.1 885.6,1978.1 883.2,1979.6 884.1,1981.7 		"/>
		<polygon class="st1" points="962,1982.1 962.1,1981.2 961.1,1982 961.5,1983.3 		"/>
		<polygon class="st1" points="941.6,1979.3 941.9,1978.3 941.3,1978.7 941.6,1979.3 		"/>
		<polygon class="st1" points="854.8,1981.6 854.8,1981.6 854.8,1981.6 		"/>
		<polygon class="st1" points="883.1,1984 884,1982 881.4,1980.8 881.7,1981.7 		"/>
		<polygon class="st1" points="804.9,1984 806.3,1981.7 806.6,1980.8 804,1982 		"/>
		<polygon class="st1" points="803.9,1981.7 804.8,1979.6 802.4,1978.1 802.7,1979.1 		"/>
		<polygon class="st1" points="694.7,1981.4 694.4,1981.6 694.6,1982 		"/>
		<polygon class="st1" points="419.7,1972.8 419.3,1973 419.5,1973.6 		"/>
		<polygon class="st1" points="466.4,1975.5 467.1,1973.6 465.5,1972.4 465.8,1973.6 		"/>
		<polygon class="st1" points="390.6,1969.4 391,1967.9 387.4,1970.1 388.8,1973.2 		"/>
		<polygon class="st1" points="495.7,1969.7 496.2,1968.7 495.3,1968.2 495.7,1969.6 		"/>
		<polygon class="st1" points="580.3,1973.2 581.7,1970.1 578.1,1967.9 578.5,1969.4 		"/>
		<polygon class="st1" points="387.3,1976.5 388.7,1973.6 384.7,1971.8 385.1,1973.1 		"/>
		<polygon class="st1" points="356.4,1958.3 356.3,1958.4 356.3,1958.4 		"/>
		<polygon class="st1" points="1014.3,1981.7 1015.3,1979.6 1012.8,1978.1 1013.1,1979.1 		"/>
		<polygon class="st1" points="1036.4,1971.6 1036.3,1971.6 1036.3,1971.7 		"/>
		<polygon class="st1" points="581.8,1976.5 584,1973.1 584.4,1971.8 580.4,1973.6 		"/>
		<polygon class="st1" points="1015.3,1984 1016.8,1981.7 1017.1,1980.8 1014.4,1982 		"/>
		<polygon class="st1" points="993.6,1981.6 993.3,1981.4 993.4,1982 		"/>
		<polygon class="st1" points="674.9,1979.1 675.2,1978.1 672.7,1979.6 673.7,1981.7 		"/>
		<polygon class="st1" points="672.7,1984 673.6,1982 670.9,1980.8 671.2,1981.7 		"/>
		<polygon class="st1" points="651.7,1971.6 651.6,1971.6 651.7,1971.7 		"/>
		<path class="st2" d="M1389.5,1999.5l-6.9-13.5l0-0.1l4.9,1.9l-13.3-26.9l-0.6-1.7l4.4,1.1l-6.9-14.2l-0.2-0.4l3.2,1.3l-19.7-44.9
			l-0.3,0.7l-0.3-0.7l-1.6,4.3l-18.1,36l5.3-1l-6.8,14.7L1319,1925l-0.3,0.5l-0.2-0.5l-1.2,3.3l-13.9,27.5l4.1-0.7l-6.9,14.9
			l-7.2-21.3l3.4,0.8l-11.6-31.5l-1-3.8l-0.2,0.6l-0.2-0.6l-12.6,39.2l2.1-1.1l-0.1,0.3l-4.4,12.4l2.8-1l-0.4,1.5l-1.5,4.2
			l-4.5-13.4l2.9,0.7l-9.8-26.6l-0.8-3.2l-0.1,0.5l-0.2-0.5l-10.6,33.1l1.7-1l-0.1,0.3l-3.7,10.5l2.4-0.8l-0.3,1.2l-3.9,10.9
			l-3.2-11.3l-0.2-1.2l1.9,0.8l-2.9-10.6l-0.1-0.3l1.4,1l-8.4-33.6l-0.1,0.5l-0.1-0.5l-0.7,3.2l-7.7,26.9l2.3-0.7l-4.3,16.5
			l-2.4-6.5l-0.4-1.5l2.8,1l-4.3-12.3l-0.1-0.3l2,1.1l-12.5-38.9l-0.2,0.6l-0.2-0.6l-1,3.7l-11.5,31.2l3.4-0.8l-5,14.7l-10.3-23.5
			l-0.2,0.4l-0.2-0.4l-1,2.6l-11,21.8l3.2-0.6l-2.2,4.8l-4.7-12.1l3.3,0.7l-11.2-26.4l-1-3.2l-0.2,0.5l-0.2-0.5l-12.1,32.9l2-0.9
			l-0.1,0.3l-4.2,10.4l2.7-0.8l-0.3,1.2l-3.3,7.9l-4.8-13.3l-0.4-1.5l2.8,1l-4.4-12.4l-0.1-0.3l2.1,1.1l-12.6-39.2l-0.2,0.6
			l-0.2-0.6l-1,3.8l-11.6,31.5l3.4-0.8l-7.2,21.3l-6.9-14.9l4.1,0.7l-13.9-27.5l-1.2-3.3l-0.2,0.5l-0.3-0.5l-15.1,34.3l2.5-1
			l-0.1,0.3l-5.3,10.8l3.4-0.9l-0.4,1.3l-4.7,9.4l-2.9-5.8l-0.4-1.3l3,0.8l-4.7-9.6l-0.1-0.3l2.2,0.9l-13.4-30.5l-0.2,0.5l-0.2-0.5
			l-1.1,2.9l-12.3,24.5l3.6-0.7l-4.6,10l-9.3-21.2l-0.2,0.3l-0.1-0.3l-0.8,2.2l-9.4,18.7l2.8-0.5l-4.7,10.2l-4.9-14.5l2.3,0.6
			l-7.9-21.4l-0.7-2.6l-0.1,0.4l-0.1-0.4l-8.5,26.7l1.4-0.8l-0.1,0.2l-3,8.4l1.9-0.7l-0.3,1.1l-1,2.8l-3.1-9.1l1.9,0.5l-6.6-18.1
			l-0.6-2.2l-0.1,0.3l-0.1-0.3l-7.2,22.5l1.2-0.7l-0.1,0.2l-2.5,7.1l1.6-0.6l-0.2,0.9l-2.6,7.3h0l-2.1-7.5l-0.2-0.9l1.3,0.6l-2-7.2
			l0-0.2l0.9,0.7l-5.7-22.8l-0.1,0.3l-0.1-0.3l-0.5,2.2l-5.2,18.3l1.5-0.5l-2.9,11.2l-1.6-4.3l-0.3-1.1l1.9,0.7l-3-8.3l-0.1-0.2
			l1.4,0.8l-8.5-26.4l-0.1,0.4l-0.1-0.4l-0.7,2.5L942,1966l2.3-0.6l-3.4,10l-7-16l-0.1,0.3l-0.1-0.3l-0.6,1.8l-7.5,14.8l2.2-0.4
			l-1.5,3.2l-3.2-8.2l2.2,0.5l-7.6-17.9l-0.7-2.1l-0.1,0.3l-0.1-0.3l-8.2,22.4l1.3-0.6l-0.1,0.2l-2.9,7.1l1.8-0.6l-0.3,0.9l-2.2,5.3
			l-3.2-8.9l-0.3-1.1l1.9,0.7l-3-8.4l-0.1-0.2l1.4,0.8l-8.5-26.7l-0.1,0.4l-0.1-0.4l-0.7,2.6l-7.9,21.4l2.3-0.6l-4.9,14.5l-4.7-10.2
			l2.8,0.5l-9.4-18.7l-0.8-2.2l-0.1,0.3l-0.2-0.3l-9,20.5l-0.6-1.1l-0.5-1.4l-0.1,0.2l-0.1-0.2l0,0l0,0l-6,13.7l-3-6.5l2.3,0.4
			l-8-15.8l-0.7-1.9l-0.1,0.3l-0.1-0.3l0,0l0,0l-8.6,19.7l1.4-0.6l-0.1,0.2l-3,6.2l1.9-0.5l-0.3,0.9l-2.3,4.6h-2.2l-3.9-7.9l-0.3-1
			l2.3,0.6l-3.6-7.4l-0.1-0.2l1.7,0.7l-10.2-23.3l-0.2,0.3l-0.1-0.3l-0.8,2.2l-9.4,18.7l2.8-0.5l-4.7,10.2l-4.9-14.5l2.3,0.6
			l-7.9-21.4l-0.7-2.6l-0.1,0.4l-0.1-0.4l-8.5,26.7l1.4-0.8l-0.1,0.2l-3,8.4l1.9-0.7l-0.3,1.1l-3.2,8.9l-2.2-5.3l-0.3-0.9l1.8,0.6
			l-2.9-7.1l-0.1-0.2l1.3,0.6l-8.2-22.4l-0.1,0.3l-0.1-0.3l-0.7,2.1l-7.6,17.9l2.2-0.5l-3.2,8.2l-1.5-3.2l2.2,0.4l-7.5-14.8
			l-0.6-1.8l-0.1,0.3l-0.1-0.3l-7,16l-3.4-10l2.3,0.6l-7.8-21.2l-0.7-2.5l-0.1,0.4l-0.1-0.4l-8.5,26.4l1.4-0.8l-0.1,0.2l-3,8.3
			l1.9-0.7l-0.3,1.1l-1.6,4.3l-2.9-11.2l1.5,0.5l-5.2-18.3l-0.5-2.2l-0.1,0.3l-0.1-0.3l-5.7,22.8l0.9-0.7l0,0.2l-2,7.2l1.3-0.6
			l-0.2,0.9l-2.1,7.5h0l-2.6-7.3l-0.2-0.9l1.6,0.6l-2.5-7.1l-0.1-0.2l1.2,0.7l-7.2-22.5l-0.1,0.3l-0.1-0.3l-0.6,2.2l-6.6,18.1
			l1.9-0.5l-3.1,9.1l-1-2.8l-0.3-1.1l1.9,0.7l-3-8.4l-0.1-0.2l1.4,0.8l-8.5-26.7l-0.1,0.4l-0.1-0.4l-0.7,2.6l-7.9,21.4l2.3-0.6
			l-4.9,14.5l-4.7-10.2l2.8,0.5l-9.4-18.7l-0.8-2.2l-0.1,0.3l-0.2-0.3l-9.3,21.2l-4.6-10l3.6,0.7l-12.3-24.5l-1.1-2.9l-0.2,0.5
			l-0.2-0.5l-13.4,30.5l2.2-0.9l-0.1,0.3l-4.7,9.6l3-0.8l-0.4,1.3l-2.9,5.8l-4.7-9.4l-0.4-1.3l3.4,0.9l-5.3-10.8l-0.1-0.3l2.5,1
			l-15.1-34.3l-0.3,0.5l-0.2-0.5l-1.2,3.3l-13.9,27.5l4.1-0.7l-6.9,14.9l-7.2-21.3l3.4,0.8l-11.6-31.5l-1-3.8l-0.2,0.6l-0.2-0.6
			l-12.6,39.2l2.1-1.1l-0.1,0.3l-4.4,12.4l2.8-1l-0.4,1.5l-4.8,13.3l-3.3-7.9l-0.3-1.2l2.7,0.8l-4.2-10.4l-0.1-0.3l2,0.9l-12.1-32.9
			l-0.2,0.5l-0.2-0.5l-1,3.2l-11.2,26.4l3.3-0.7l-4.7,12.1l-2.2-4.8l3.2,0.6l-11-21.8l-1-2.6l-0.2,0.4l-0.2-0.4l-10.3,23.5l-5-14.7
			l3.4,0.8l-11.5-31.2l-1-3.7l-0.2,0.6l-0.2-0.6l-12.5,38.9l2-1.1l-0.1,0.3l-4.3,12.3l2.8-1l-0.4,1.5l-2.4,6.5l-4.3-16.5l2.3,0.7
			l-7.7-26.9l-0.7-3.2l-0.1,0.5l-0.1-0.5l-8.4,33.6l1.4-1l-0.1,0.3l-2.9,10.6l1.9-0.8l-0.2,1.2l-3.2,11.3l-3.9-10.9l-0.3-1.2
			l2.4,0.8l-3.7-10.5l-0.1-0.3l1.7,1l-10.6-33.1l-0.2,0.5l-0.1-0.5l-0.8,3.2l-9.8,26.6l2.9-0.7l-4.5,13.4l-1.5-4.2l-0.4-1.5l2.8,1
			l-4.4-12.4l-0.1-0.3l2.1,1.1l-12.6-39.2l-0.2,0.6l-0.2-0.6l-1,3.8l-11.6,31.5l3.4-0.8l-7.2,21.3l-6.9-14.9l4.1,0.7l-13.9-27.5
			l-1.2-3.3l-0.2,0.5l-0.3-0.5l-13.7,31.2l-6.8-14.7l5.3,1l-18.1-36l-1.6-4.3l-0.3,0.7l-0.3-0.7l-1.5,3.5v-44l0,44.1l-18.1,41.3
			l3.2-1.3l-0.2,0.4l-6.9,14.2l4.4-1.1l-0.6,1.7l-13.3,26.9l4.9-1.9l0,0.1l-6.9,13.5h33.4l-0.8,779.2l2.4-5.5l0.3,0.7l0.3-0.7
			l1.6,4.3l18.1,36l-5.3-1l6.8,14.7L369,2796l0.3,0.5l0.2-0.5l1.2,3.3l13.9,27.5l-4.1-0.7l6.9,14.9l7.2-21.3l-3.4,0.8l11.6-31.5
			l1-3.8l0.2,0.6l0.2-0.6l12.6,39.2l-2.1-1.1l0.1,0.3l4.4,12.4l-2.8-1l0.4,1.5l1.5,4.2l4.5-13.4l-2.9,0.7l9.8-26.6l0.8-3.2l0.1,0.5
			l0.2-0.5l10.6,33.1l-1.7-1l0.1,0.3l3.7,10.5l-2.4-0.8l0.3,1.2l3.9,10.9l3.2-11.3l0.2-1.2l-1.9,0.8l2.9-10.6l0.1-0.3l-1.4,1
			l8.4-33.6l0.1,0.5l0.1-0.5l0.7,3.2l7.7,26.9l-2.3-0.7l4.3,16.5l2.4-6.5l0.4-1.5l-2.8,1l4.3-12.3l0.1-0.3l-2,1.1l12.5-38.9l0.2,0.6
			l0.2-0.6l1,3.7l11.5,31.2l-3.4-0.8l5,14.7l10.3-23.5l0.2,0.4l0.2-0.4l1,2.6l11,21.8l-3.2-0.6l2.2,4.8l4.7-12.1l-3.3,0.7l11.2-26.4
			l1-3.2l0.2,0.5l0.2-0.5l12.1,32.9l-2-0.9l0.1,0.3l4.2,10.4l-2.7-0.8l0.3,1.2l3.3,7.9l4.8-13.3l0.4-1.5l-2.8,1l4.4-12.4l0.1-0.3
			l-2.1,1.1l12.6-39.2l0.2,0.6l0.2-0.6l1,3.8l11.6,31.5l-3.4-0.8l7.2,21.3l6.9-14.9l-4.1,0.7l13.9-27.5l1.2-3.3l0.2,0.5l0.3-0.5
			l15.1,34.3l-2.5-1l0.1,0.3l5.3,10.8l-3.4-0.9l0.4,1.3l4.7,9.4l2.9-5.8l0.4-1.3l-3,0.8l4.7-9.6l0.1-0.3l-2.2,0.9l13.4-30.5l0.2,0.5
			l0.2-0.5l1.1,2.9l12.3,24.5l-3.6-0.7l4.6,10l9.3-21.2l0.2,0.3l0.1-0.3l0.8,2.2l9.4,18.7l-2.8-0.5l4.7,10.2l4.9-14.5l-2.3,0.6
			l7.9-21.4l0.7-2.6l0.1,0.4l0.1-0.4l8.5,26.7l-1.4-0.8l0.1,0.2l3,8.4l-1.9-0.7l0.3,1.1l1,2.8l3.1-9.1l-1.9,0.5l6.6-18.1l0.6-2.2
			l0.1,0.3l0.1-0.3l7.2,22.5l-1.2-0.7l0.1,0.2l2.5,7.1l-1.6-0.6l0.2,0.9l2.6,7.3l2.1-7.6l0.2-0.9l-1.3,0.6l2-7.2l0-0.2l-0.9,0.7
			l5.7-22.8l0.1,0.3l0.1-0.3l0.5,2.2l5.2,18.3l-1.5-0.5l2.9,11.2l1.6-4.3l0.3-1.1l-1.9,0.7l3-8.3l0.1-0.2l-1.4,0.8l8.5-26.4l0.1,0.4
			l0.1-0.4l0.7,2.5l7.8,21.2l-2.3-0.6l3.4,10l7-16l0.1,0.3l0.1-0.3l0.6,1.8l7.5,14.8l-2.2-0.4l1.5,3.2l3.2-8.2l-2.2,0.5l7.6-17.9
			l0.7-2.1l0.1,0.3l0.1-0.3l8.2,22.4l-1.3-0.6l0.1,0.2l2.9,7.1l-1.8-0.6l0.3,0.9l2.2,5.3l3.2-8.9l0.3-1.1l-1.9,0.7l3-8.4l0.1-0.2
			l-1.4,0.8l8.5-26.7l0.1,0.4l0.1-0.4l0.7,2.6l7.9,21.4l-2.3-0.6l4.9,14.5l4.7-10.2l-2.8,0.5l9.4-18.7l0.8-2.2l0.1,0.3l0.2-0.3
			l10.2,23.3l-1.7-0.7l0.1,0.2l3.6,7.4l-2.3-0.6l0.3,1l5,10.2l3.4-6.9l0.3-0.9l-1.9,0.5l3-6.2l0.1-0.2l-1.4,0.6l8.6-19.7l0,0l0,0
			l0.1,0.3l0.1-0.3l0.7,1.9l8,15.8l-2.3-0.4l3,6.5l6-13.7l0,0l0,0l0.1,0.2l0.1-0.2l0.5,1.4l0.6,1.1l9-20.5l0.2,0.3l0.1-0.3l0.8,2.2
			l9.4,18.7l-2.8-0.5l4.7,10.2l4.9-14.5l-2.3,0.6l7.9-21.4l0.7-2.6l0.1,0.4l0.1-0.4l8.5,26.7l-1.4-0.8l0.1,0.2l3,8.4l-1.9-0.7
			l0.3,1.1l3.2,8.9l2.2-5.3l0.3-0.9l-1.8,0.6l2.9-7.1l0.1-0.2l-1.3,0.6l8.2-22.4l0.1,0.3l0.1-0.3l0.7,2.1l7.6,17.9l-2.2-0.5l3.2,8.2
			l1.5-3.2l-2.2,0.4l7.5-14.8l0.6-1.8l0.1,0.3l0.1-0.3l7,16l3.4-10l-2.3,0.6l7.8-21.2l0.7-2.5l0.1,0.4l0.1-0.4l8.5,26.4l-1.4-0.8
			l0.1,0.2l3,8.3l-1.9-0.7l0.3,1.1l1.6,4.3l2.9-11.2l-1.5,0.5l5.2-18.3l0.5-2.2l0.1,0.3l0.1-0.3l5.7,22.8l-0.9-0.7l0,0.2l2,7.2
			l-1.3-0.6l0.2,0.9l2.1,7.6l2.6-7.3l0.2-0.9l-1.6,0.6l2.5-7.1l0.1-0.2l-1.2,0.7l7.2-22.5l0.1,0.3l0.1-0.3l0.6,2.2l6.6,18.1
			l-1.9-0.5l3.1,9.1l1-2.8l0.3-1.1l-1.9,0.7l3-8.4l0.1-0.2l-1.4,0.8l8.5-26.7l0.1,0.4l0.1-0.4l0.7,2.6l7.9,21.4l-2.3-0.6l4.9,14.5
			l4.7-10.2l-2.8,0.5l9.4-18.7l0.8-2.2l0.1,0.3l0.2-0.3l9.3,21.2l4.6-10l-3.6,0.7l12.3-24.5l1.1-2.9l0.2,0.5l0.2-0.5l13.4,30.5
			l-2.2-0.9l0.1,0.3l4.7,9.6l-3-0.8l0.4,1.3l2.9,5.8l4.7-9.4l0.4-1.3l-3.4,0.9l5.3-10.8l0.1-0.3l-2.5,1l15.1-34.3l0.3,0.5l0.2-0.5
			l1.2,3.3l13.9,27.5l-4.1-0.7l6.9,14.9l7.2-21.3l-3.4,0.8l11.6-31.5l1-3.8l0.2,0.6l0.2-0.6l12.6,39.2l-2.1-1.1l0.1,0.3l4.4,12.4
			l-2.8-1l0.4,1.5l4.8,13.3l3.3-7.9l0.3-1.2l-2.7,0.8l4.2-10.4l0.1-0.3l-2,0.9l12.1-32.9l0.2,0.5l0.2-0.5l1,3.2l11.2,26.4l-3.3-0.7
			l4.7,12.1l2.2-4.8l-3.2,0.6l11-21.8l1-2.6l0.2,0.4l0.2-0.4l10.3,23.5l5-14.7l-3.4,0.8l11.5-31.2l1-3.7l0.2,0.6l0.2-0.6l12.5,38.9
			l-2-1.1l0.1,0.3l4.3,12.3l-2.8-1l0.4,1.5l2.4,6.5l4.3-16.5l-2.3,0.7l7.7-26.9l0.7-3.2l0.1,0.5l0.1-0.5l8.4,33.6l-1.4-1l0.1,0.3
			l2.9,10.6l-1.9-0.8l0.2,1.2l3.2,11.3l3.9-10.9l0.3-1.2l-2.4,0.8l3.7-10.5l0.1-0.3l-1.7,1l10.6-33.1l0.2,0.5l0.1-0.5l0.8,3.2
			l9.8,26.6l-2.9-0.7l4.5,13.4l1.5-4.2l0.4-1.5l-2.8,1l4.4-12.4l0.1-0.3l-2.1,1.1l12.6-39.2l0.2,0.6l0.2-0.6l1,3.8l11.6,31.5
			l-3.4-0.8l7.2,21.3l6.9-14.9l-4.1,0.7l13.9-27.5l1.2-3.3l0.2,0.5l0.3-0.5l13.7,31.2l6.8-14.7l-5.3,1l18.1-36l1.6-4.3l0.3,0.7
			l0.3-0.7l0.6,1.4l0.8-775H1389.5z M962.1,1981.2l-0.2,0.9l-0.4,1.2l-0.5-1.3L962.1,1981.2z M941.9,1978.3l-0.3,1l0,0l-0.3-0.7
			L941.9,1978.3z M885.6,1978.1l-0.3,1l-1.2,2.6l-1-2.1L885.6,1978.1z M884,1982l-0.9,2l-1.4-2.3l-0.3-0.9L884,1982z M854.8,1981.6
			L854.8,1981.6L854.8,1981.6L854.8,1981.6z M806.6,1980.8l-0.3,0.9l-1.4,2.3l-0.9-2L806.6,1980.8z M804.8,1979.6l-1,2.1l-1.2-2.6
			l-0.3-1L804.8,1979.6z M746.7,1978.7l-0.3,0.7l0,0l-0.3-1L746.7,1978.7z M726.9,1982l-0.5,1.3l-0.4-1.2l-0.2-0.9L726.9,1982z
			 M1331.7,1958.4L1331.7,1958.4L1331.7,1958.4L1331.7,1958.4z M1303.3,1971.8l-0.4,1.3l-2.2,3.4l-1.4-2.9L1303.3,1971.8z
			 M1300.6,1970.1l-1.5,3.1l-1.8-3.9l-0.4-1.5L1300.6,1970.1z M1268.7,1973l-0.2,0.6l-0.2-0.8L1268.7,1973z M1222.5,1972.4l-0.2,1.2
			l-0.7,1.9l-0.7-1.9L1222.5,1972.4z M1192.7,1968.2l-0.4,1.5l0,0.1l-0.5-1L1192.7,1968.2z M1109.9,1967.9l-0.4,1.5l-1.8,3.9
			l-1.5-3.1L1109.9,1967.9z M1107.6,1973.6l-1.4,2.9l-2.2-3.4l-0.4-1.3L1107.6,1973.6z M1036.4,1971.6L1036.4,1971.6L1036.4,1971.6
			L1036.4,1971.6z M1017.1,1980.8l-0.3,0.9l-1.4,2.3l-0.9-2L1017.1,1980.8z M1015.3,1979.6l-1,2.1l-1.2-2.6l-0.3-1L1015.3,1979.6z
			 M993.6,1981.6l-0.1,0.4l-0.1-0.5L993.6,1981.6z M694.7,1981.4l-0.1,0.5l-0.1-0.4L694.7,1981.4z M675.2,1978.1l-0.3,1l-1.2,2.6
			l-1-2.1L675.2,1978.1z M673.6,1982l-0.9,2l-1.4-2.3l-0.3-0.9L673.6,1982z M651.7,1971.6L651.7,1971.6L651.7,1971.6L651.7,1971.6z
			 M584.4,1971.8l-0.4,1.3l-2.2,3.4l-1.4-2.9L584.4,1971.8z M581.7,1970.1l-1.5,3.1l-1.8-3.9l-0.4-1.5L581.7,1970.1z M496.2,1968.7
			l-0.5,1l0-0.1l-0.4-1.5L496.2,1968.7z M467.1,1973.6l-0.7,1.9l-0.7-1.9l-0.2-1.2L467.1,1973.6z M419.7,1972.8l-0.2,0.8l-0.2-0.6
			L419.7,1972.8z M391,1967.9l-0.4,1.5l-1.8,3.9l-1.5-3.1L391,1967.9z M388.7,1973.6l-1.4,2.9l-2.2-3.4l-0.4-1.3L388.7,1973.6z
			 M356.4,1958.3l0,0.1L356.4,1958.3L356.4,1958.3z"/>
	</g>
</g>
<g>
	<defs>
		<rect id="SVGID_3_" x="1" y="13.5" width="1024" height="981"/>
	</defs>
	<clipPath id="SVGID_4_">
		<use xlink:href="#SVGID_3_"  style="overflow:visible;"/>
	</clipPath>
	<g class="st3">
		<polygon class="st1" points="968.2,98.2 969.6,95.1 966,92.9 966.4,94.4 		"/>
		<polygon class="st1" points="969.7,101.5 971.9,98.1 972.3,96.8 968.3,98.6 		"/>
		<polygon class="st1" points="1000.7,83.4 1000.6,83.3 1000.7,83.4 		"/>
		<polygon class="st1" points="415.4,104.3 415.7,103.7 415.1,103.3 415.4,104.3 		"/>
		<polygon class="st1" points="395.5,108.3 395.9,107 394.9,106.2 395,107.1 		"/>
		<polygon class="st1" points="778.5,94.4 778.9,92.9 775.3,95.1 776.7,98.2 		"/>
		<polygon class="st1" points="937.7,98 937.3,97.8 937.5,98.6 		"/>
		<polygon class="st1" points="861.3,94.6 861.7,93.2 860.8,93.7 861.3,94.7 		"/>
		<polygon class="st1" points="891.2,98.6 891.5,97.4 889.9,98.6 890.6,100.5 		"/>
		<polygon class="st1" points="775.2,101.5 776.6,98.6 772.6,96.8 773,98.1 		"/>
		<polygon class="st1" points="554.3,104.1 554.6,103.1 552.2,104.6 553.1,106.7 		"/>
		<polygon class="st1" points="631,107.1 631.1,106.2 630.1,107 630.5,108.3 		"/>
		<polygon class="st1" points="610.6,104.3 610.9,103.3 610.3,103.7 610.6,104.3 		"/>
		<polygon class="st1" points="523.8,106.6 523.8,106.6 523.8,106.6 		"/>
		<polygon class="st1" points="552.1,109 553,107 550.4,105.8 550.7,106.7 		"/>
		<polygon class="st1" points="473.9,109 475.3,106.7 475.6,105.8 473,107 		"/>
		<polygon class="st1" points="472.9,106.7 473.8,104.6 471.4,103.1 471.7,104.1 		"/>
		<polygon class="st1" points="363.7,106.4 363.4,106.6 363.6,107 		"/>
		<polygon class="st1" points="88.7,97.8 88.3,98 88.5,98.6 		"/>
		<polygon class="st1" points="135.4,100.5 136.1,98.6 134.5,97.4 134.8,98.6 		"/>
		<polygon class="st1" points="59.6,94.4 60,92.9 56.4,95.1 57.8,98.2 		"/>
		<polygon class="st1" points="164.7,94.7 165.2,93.7 164.3,93.2 164.7,94.6 		"/>
		<polygon class="st1" points="249.3,98.2 250.7,95.1 247.1,92.9 247.5,94.4 		"/>
		<polygon class="st1" points="56.3,101.5 57.7,98.6 53.7,96.8 54.1,98.1 		"/>
		<polygon class="st1" points="25.4,83.3 25.3,83.4 25.3,83.4 		"/>
		<polygon class="st1" points="683.3,106.7 684.3,104.6 681.8,103.1 682.1,104.1 		"/>
		<polygon class="st1" points="705.4,96.6 705.3,96.6 705.3,96.7 		"/>
		<polygon class="st1" points="250.8,101.5 253,98.1 253.4,96.8 249.4,98.6 		"/>
		<polygon class="st1" points="684.3,109 685.8,106.7 686.1,105.8 683.4,107 		"/>
		<polygon class="st1" points="662.6,106.6 662.3,106.4 662.4,107 		"/>
		<polygon class="st1" points="343.9,104.1 344.2,103.1 341.7,104.6 342.7,106.7 		"/>
		<polygon class="st1" points="341.7,109 342.6,107 339.9,105.8 340.2,106.7 		"/>
		<polygon class="st1" points="320.7,96.6 320.6,96.6 320.7,96.7 		"/>
		<path class="st2" d="M1058.5,124.5l-6.9-13.5l0-0.1l4.9,1.9l-13.3-26.9l-0.6-1.7l4.4,1.1l-6.9-14.2l-0.2-0.4l3.2,1.3l-19.7-44.9
			l-0.3,0.7l-0.3-0.7l-1.6,4.3l-18.1,36l5.3-1l-6.8,14.7L988,50l-0.3,0.5l-0.2-0.5l-1.2,3.3l-13.9,27.5l4.1-0.7L969.7,95l-7.2-21.3
			l3.4,0.8l-11.6-31.5l-1-3.8l-0.2,0.6l-0.2-0.6l-12.6,39.2l2.1-1.1l-0.1,0.3l-4.4,12.4l2.8-1l-0.4,1.5l-1.5,4.2l-4.5-13.4l2.9,0.7
			l-9.8-26.6l-0.8-3.2l-0.1,0.5l-0.2-0.5l-10.6,33.1l1.7-1l-0.1,0.3l-3.7,10.5l2.4-0.8l-0.3,1.2l-3.9,10.9l-3.2-11.3l-0.2-1.2
			l1.9,0.8l-2.9-10.6l-0.1-0.3l1.4,1l-8.4-33.6l-0.1,0.5l-0.1-0.5l-0.7,3.2l-7.7,26.9l2.3-0.7l-4.3,16.5l-2.4-6.5l-0.4-1.5l2.8,1
			l-4.3-12.3l-0.1-0.3l2,1.1l-12.5-38.9l-0.2,0.6l-0.2-0.6l-1,3.7l-11.5,31.2l3.4-0.8l-5,14.7L850,65.4l-0.2,0.4l-0.2-0.4l-1,2.6
			l-11,21.8l3.2-0.6l-2.2,4.8L834,81.9l3.3,0.7l-11.2-26.4l-1-3.2l-0.2,0.5l-0.2-0.5L812.6,86l2-0.9l-0.1,0.3l-4.2,10.4l2.7-0.8
			l-0.3,1.2l-3.3,7.9l-4.8-13.3l-0.4-1.5l2.8,1l-4.4-12.4l-0.1-0.3l2.1,1.1L792,39.4l-0.2,0.6l-0.2-0.6l-1,3.8L779,74.6l3.4-0.8
			L775.2,95l-6.9-14.9l4.1,0.7l-13.9-27.5l-1.2-3.3l-0.2,0.5l-0.3-0.5l-15.1,34.3l2.5-1l-0.1,0.3l-5.3,10.8l3.4-0.9l-0.4,1.3
			l-4.7,9.4l-2.9-5.8l-0.4-1.3l3,0.8l-4.7-9.6l-0.1-0.3l2.2,0.9l-13.4-30.5l-0.2,0.5l-0.2-0.5l-1.1,2.9l-12.3,24.5l3.6-0.7l-4.6,10
			l-9.3-21.2l-0.2,0.3l-0.1-0.3l-0.8,2.2l-9.4,18.7l2.8-0.5l-4.7,10.2l-4.9-14.5l2.3,0.6l-7.9-21.4l-0.7-2.6l-0.1,0.4l-0.1-0.4
			l-8.5,26.7l1.4-0.8l-0.1,0.2l-3,8.4l1.9-0.7l-0.3,1.1l-1,2.8l-3.1-9.1l1.9,0.5l-6.6-18.1l-0.6-2.2l-0.1,0.3l-0.1-0.3l-7.2,22.5
			l1.2-0.7l-0.1,0.2l-2.5,7.1l1.6-0.6l-0.2,0.9l-2.6,7.3h0l-2.1-7.5l-0.2-0.9l1.3,0.6l-2-7.2l0-0.2l0.9,0.7L637.1,75l-0.1,0.3
			l-0.1-0.3l-0.5,2.2l-5.2,18.3l1.5-0.5l-2.9,11.2l-1.6-4.3l-0.3-1.1l1.9,0.7l-3-8.3l-0.1-0.2l1.4,0.8l-8.5-26.4l-0.1,0.4l-0.1-0.4
			l-0.7,2.5L611,91l2.3-0.6l-3.4,10l-7-16l-0.1,0.3l-0.1-0.3l-0.6,1.8l-7.5,14.8l2.2-0.4l-1.5,3.2l-3.2-8.2l2.2,0.5l-7.6-17.9
			L586,76l-0.1,0.3l-0.1-0.3l-8.2,22.4l1.3-0.6l-0.1,0.2l-2.9,7.1l1.8-0.6l-0.3,0.9l-2.2,5.3l-3.2-8.9l-0.3-1.1l1.9,0.7l-3-8.4
			l-0.1-0.2l1.4,0.8l-8.5-26.7l-0.1,0.4l-0.1-0.4l-0.7,2.6l-7.9,21.4l2.3-0.6l-4.9,14.5l-4.7-10.2l2.8,0.5l-9.4-18.7l-0.8-2.2
			l-0.1,0.3l-0.2-0.3l-9,20.5l-0.6-1.1l-0.5-1.4l-0.1,0.2l-0.1-0.2l0,0l0,0l-6,13.7l-3-6.5l2.3,0.4l-8-15.8l-0.7-1.9l-0.1,0.3
			l-0.1-0.3l0,0l0,0l-8.6,19.7l1.4-0.6l-0.1,0.2l-3,6.2l1.9-0.5l-0.3,0.9l-2.3,4.6h-2.2l-3.9-7.9l-0.3-1l2.3,0.6l-3.6-7.4l-0.1-0.2
			l1.7,0.7l-10.2-23.3l-0.2,0.3l-0.1-0.3l-0.8,2.2l-9.4,18.7l2.8-0.5l-4.7,10.2L469,90.1l2.3,0.6l-7.9-21.4l-0.7-2.6l-0.1,0.4
			l-0.1-0.4l-8.5,26.7l1.4-0.8l-0.1,0.2l-3,8.4l1.9-0.7l-0.3,1.1l-3.2,8.9l-2.2-5.3l-0.3-0.9l1.8,0.6l-2.9-7.1l-0.1-0.2l1.3,0.6
			L440.2,76l-0.1,0.3L440,76l-0.7,2.1l-7.6,17.9l2.2-0.5l-3.2,8.2l-1.5-3.2l2.2,0.4L424,86.2l-0.6-1.8l-0.1,0.3l-0.1-0.3l-7,16
			l-3.4-10L415,91l-7.8-21.2l-0.7-2.5l-0.1,0.4l-0.1-0.4l-8.5,26.4l1.4-0.8l-0.1,0.2l-3,8.3l1.9-0.7l-0.3,1.1l-1.6,4.3L393.3,95
			l1.5,0.5l-5.2-18.3l-0.5-2.2l-0.1,0.3l-0.1-0.3l-5.7,22.8l0.9-0.7l0,0.2l-2,7.2l1.3-0.6l-0.2,0.9l-2.1,7.5h0l-2.6-7.3l-0.2-0.9
			l1.6,0.6l-2.5-7.1l-0.1-0.2l1.2,0.7l-7.2-22.5l-0.1,0.3l-0.1-0.3l-0.6,2.2l-6.6,18.1l1.9-0.5l-3.1,9.1l-1-2.8l-0.3-1.1l1.9,0.7
			l-3-8.4l-0.1-0.2l1.4,0.8l-8.5-26.7l-0.1,0.4l-0.1-0.4l-0.7,2.6l-7.9,21.4l2.3-0.6l-4.9,14.5L337,94.4l2.8,0.5l-9.4-18.7l-0.8-2.2
			l-0.1,0.3l-0.2-0.3l-9.3,21.2l-4.6-10l3.6,0.7l-12.3-24.5l-1.1-2.9l-0.2,0.5l-0.2-0.5l-13.4,30.5l2.2-0.9l-0.1,0.3l-4.7,9.6l3-0.8
			l-0.4,1.3l-2.9,5.8l-4.7-9.4l-0.4-1.3l3.4,0.9l-5.3-10.8l-0.1-0.3l2.5,1L269.1,50l-0.3,0.5l-0.2-0.5l-1.2,3.3l-13.9,27.5l4.1-0.7
			L250.8,95l-7.2-21.3l3.4,0.8l-11.6-31.5l-1-3.8l-0.2,0.6l-0.2-0.6l-12.6,39.2l2.1-1.1l-0.1,0.3L219,90.2l2.8-1l-0.4,1.5l-4.8,13.3
			l-3.3-7.9l-0.3-1.2l2.7,0.8l-4.2-10.4l-0.1-0.3l2,0.9l-12.1-32.9l-0.2,0.5l-0.2-0.5l-1,3.2l-11.2,26.4l3.3-0.7L187.3,94l-2.2-4.8
			l3.2,0.6l-11-21.8l-1-2.6l-0.2,0.4l-0.2-0.4l-10.3,23.5l-5-14.7l3.4,0.8l-11.5-31.2l-1-3.7l-0.2,0.6l-0.2-0.6L138.9,79l2-1.1
			l-0.1,0.3l-4.3,12.3l2.8-1l-0.4,1.5l-2.4,6.5L132.2,81l2.3,0.7l-7.7-26.9l-0.7-3.2l-0.1,0.5l-0.1-0.5l-8.4,33.6l1.4-1l-0.1,0.3
			l-2.9,10.6l1.9-0.8l-0.2,1.2l-3.2,11.3l-3.9-10.9l-0.3-1.2l2.4,0.8L108.7,85l-0.1-0.3l1.7,1L99.8,52.5L99.6,53l-0.1-0.5l-0.8,3.2
			l-9.8,26.6l2.9-0.7L87.2,95l-1.5-4.2l-0.4-1.5l2.8,1l-4.4-12.4l-0.1-0.3l2.1,1.1L73.1,39.4L72.9,40l-0.2-0.6l-1,3.8L60.1,74.6
			l3.4-0.8L56.3,95l-6.9-14.9l4.1,0.7L39.6,53.3L38.4,50l-0.2,0.5L38,50L24.3,81.2l-6.8-14.7l5.3,1l-18.1-36l-1.6-4.3l-0.3,0.7
			l-0.3-0.7L1,30.6v-44l0,44.1L-17.2,72l3.2-1.3l-0.2,0.4L-21,85.3l4.4-1.1l-0.6,1.7l-13.3,26.9l4.9-1.9l0,0.1l-6.9,13.5H0.9
			L0.1,903.7l2.4-5.5l0.3,0.7l0.3-0.7l1.6,4.3l18.1,36l-5.3-1l6.8,14.7L38,921l0.3,0.5l0.2-0.5l1.2,3.3l13.9,27.5l-4.1-0.7l6.9,14.9
			l7.2-21.3l-3.4,0.8l11.6-31.5l1-3.8l0.2,0.6l0.2-0.6l12.6,39.2l-2.1-1.1l0.1,0.3l4.4,12.4l-2.8-1l0.4,1.5l1.5,4.2l4.5-13.4
			l-2.9,0.7l9.8-26.6l0.8-3.2l0.1,0.5l0.2-0.5l10.6,33.1l-1.7-1l0.1,0.3l3.7,10.5l-2.4-0.8l0.3,1.2l3.9,10.9l3.2-11.3l0.2-1.2
			l-1.9,0.8l2.9-10.6l0.1-0.3l-1.4,1l8.4-33.6l0.1,0.5l0.1-0.5l0.7,3.2l7.7,26.9l-2.3-0.7l4.3,16.5l2.4-6.5l0.4-1.5l-2.8,1l4.3-12.3
			l0.1-0.3l-2,1.1l12.5-38.9l0.2,0.6l0.2-0.6l1,3.7l11.5,31.2l-3.4-0.8l5,14.7l10.3-23.5l0.2,0.4l0.2-0.4l1,2.6l11,21.8l-3.2-0.6
			l2.2,4.8l4.7-12.1l-3.3,0.7l11.2-26.4l1-3.2l0.2,0.5l0.2-0.5l12.1,32.9l-2-0.9l0.1,0.3l4.2,10.4l-2.7-0.8l0.3,1.2l3.3,7.9
			l4.8-13.3l0.4-1.5l-2.8,1l4.4-12.4l0.1-0.3l-2.1,1.1l12.6-39.2l0.2,0.6l0.2-0.6l1,3.8l11.6,31.5l-3.4-0.8l7.2,21.3l6.9-14.9
			l-4.1,0.7l13.9-27.5l1.2-3.3l0.2,0.5l0.3-0.5l15.1,34.3l-2.5-1l0.1,0.3l5.3,10.8l-3.4-0.9l0.4,1.3l4.7,9.4l2.9-5.8l0.4-1.3l-3,0.8
			l4.7-9.6l0.1-0.3l-2.2,0.9l13.4-30.5l0.2,0.5l0.2-0.5l1.1,2.9l12.3,24.5l-3.6-0.7l4.6,10l9.3-21.2l0.2,0.3l0.1-0.3l0.8,2.2
			l9.4,18.7l-2.8-0.5l4.7,10.2l4.9-14.5l-2.3,0.6l7.9-21.4l0.7-2.6l0.1,0.4l0.1-0.4l8.5,26.7l-1.4-0.8l0.1,0.2l3,8.4l-1.9-0.7
			l0.3,1.1l1,2.8l3.1-9.1l-1.9,0.5l6.6-18.1l0.6-2.2l0.1,0.3l0.1-0.3l7.2,22.5l-1.2-0.7l0.1,0.2l2.5,7.1l-1.6-0.6l0.2,0.9l2.6,7.3
			l2.1-7.6l0.2-0.9l-1.3,0.6l2-7.2l0-0.2l-0.9,0.7l5.7-22.8l0.1,0.3l0.1-0.3l0.5,2.2l5.2,18.3l-1.5-0.5l2.9,11.2l1.6-4.3l0.3-1.1
			l-1.9,0.7l3-8.3l0.1-0.2l-1.4,0.8l8.5-26.4l0.1,0.4l0.1-0.4l0.7,2.5L415,962l-2.3-0.6l3.4,10l7-16l0.1,0.3l0.1-0.3l0.6,1.8
			l7.5,14.8l-2.2-0.4l1.5,3.2l3.2-8.2l-2.2,0.5l7.6-17.9l0.7-2.1l0.1,0.3l0.1-0.3l8.2,22.4l-1.3-0.6l0.1,0.2l2.9,7.1l-1.8-0.6
			l0.3,0.9l2.2,5.3l3.2-8.9l0.3-1.1l-1.9,0.7l3-8.4l0.1-0.2l-1.4,0.8l8.5-26.7l0.1,0.4l0.1-0.4l0.7,2.6l7.9,21.4l-2.3-0.6l4.9,14.5
			l4.7-10.2l-2.8,0.5l9.4-18.7l0.8-2.2l0.1,0.3l0.2-0.3l10.2,23.3l-1.7-0.7l0.1,0.2l3.6,7.4l-2.3-0.6l0.3,1l5,10.2l3.4-6.9l0.3-0.9
			l-1.9,0.5l3-6.2l0.1-0.2l-1.4,0.6l8.6-19.7l0,0l0,0l0.1,0.3l0.1-0.3l0.7,1.9l8,15.8l-2.3-0.4l3,6.5l6-13.7l0,0l0,0l0.1,0.2
			l0.1-0.2l0.5,1.4l0.6,1.1l9-20.5l0.2,0.3l0.1-0.3l0.8,2.2l9.4,18.7l-2.8-0.5l4.7,10.2l4.9-14.5l-2.3,0.6l7.9-21.4l0.7-2.6l0.1,0.4
			l0.1-0.4l8.5,26.7l-1.4-0.8l0.1,0.2l3,8.4l-1.9-0.7l0.3,1.1l3.2,8.9l2.2-5.3l0.3-0.9l-1.8,0.6l2.9-7.1l0.1-0.2l-1.3,0.6l8.2-22.4
			l0.1,0.3l0.1-0.3l0.7,2.1l7.6,17.9l-2.2-0.5l3.2,8.2l1.5-3.2l-2.2,0.4l7.5-14.8l0.6-1.8l0.1,0.3l0.1-0.3l7,16l3.4-10L611,962
			l7.8-21.2l0.7-2.5l0.1,0.4l0.1-0.4l8.5,26.4l-1.4-0.8l0.1,0.2l3,8.3l-1.9-0.7l0.3,1.1l1.6,4.3l2.9-11.2l-1.5,0.5l5.2-18.3l0.5-2.2
			l0.1,0.3l0.1-0.3l5.7,22.8l-0.9-0.7l0,0.2l2,7.2l-1.3-0.6l0.2,0.9l2.1,7.6l2.6-7.3l0.2-0.9l-1.6,0.6l2.5-7.1l0.1-0.2l-1.2,0.7
			l7.2-22.5l0.1,0.3l0.1-0.3l0.6,2.2l6.6,18.1l-1.9-0.5l3.1,9.1l1-2.8l0.3-1.1l-1.9,0.7l3-8.4l0.1-0.2l-1.4,0.8l8.5-26.7l0.1,0.4
			l0.1-0.4l0.7,2.6l7.9,21.4l-2.3-0.6l4.9,14.5l4.7-10.2l-2.8,0.5l9.4-18.7l0.8-2.2l0.1,0.3l0.2-0.3l9.3,21.2l4.6-10l-3.6,0.7
			l12.3-24.5l1.1-2.9l0.2,0.5l0.2-0.5l13.4,30.5l-2.2-0.9l0.1,0.3l4.7,9.6l-3-0.8l0.4,1.3l2.9,5.8l4.7-9.4l0.4-1.3l-3.4,0.9
			l5.3-10.8l0.1-0.3l-2.5,1l15.1-34.3l0.3,0.5l0.2-0.5l1.2,3.3l13.9,27.5l-4.1-0.7l6.9,14.9l7.2-21.3l-3.4,0.8l11.6-31.5l1-3.8
			l0.2,0.6l0.2-0.6l12.6,39.2l-2.1-1.1l0.1,0.3l4.4,12.4l-2.8-1l0.4,1.5l4.8,13.3l3.3-7.9l0.3-1.2l-2.7,0.8l4.2-10.4l0.1-0.3l-2,0.9
			l12.1-32.9l0.2,0.5l0.2-0.5l1,3.2l11.2,26.4l-3.3-0.7l4.7,12.1l2.2-4.8l-3.2,0.6l11-21.8l1-2.6l0.2,0.4l0.2-0.4l10.3,23.5l5-14.7
			l-3.4,0.8l11.5-31.2l1-3.7l0.2,0.6l0.2-0.6l12.5,38.9l-2-1.1l0.1,0.3l4.3,12.3l-2.8-1l0.4,1.5l2.4,6.5l4.3-16.5l-2.3,0.7l7.7-26.9
			l0.7-3.2l0.1,0.5l0.1-0.5l8.4,33.6l-1.4-1l0.1,0.3l2.9,10.6l-1.9-0.8l0.2,1.2l3.2,11.3l3.9-10.9l0.3-1.2l-2.4,0.8l3.7-10.5
			l0.1-0.3l-1.7,1l10.6-33.1l0.2,0.5l0.1-0.5l0.8,3.2l9.8,26.6l-2.9-0.7l4.5,13.4l1.5-4.2l0.4-1.5l-2.8,1l4.4-12.4l0.1-0.3l-2.1,1.1
			l12.6-39.2l0.2,0.6l0.2-0.6l1,3.8l11.6,31.5l-3.4-0.8l7.2,21.3l6.9-14.9l-4.1,0.7l13.9-27.5l1.2-3.3l0.2,0.5l0.3-0.5l13.7,31.2
			l6.8-14.7l-5.3,1l18.1-36l1.6-4.3l0.3,0.7l0.3-0.7l0.6,1.4l0.8-775H1058.5z M631.1,106.2l-0.2,0.9l-0.4,1.2l-0.5-1.3L631.1,106.2z
			 M610.9,103.3l-0.3,1l0,0l-0.3-0.7L610.9,103.3z M554.6,103.1l-0.3,1l-1.2,2.6l-1-2.1L554.6,103.1z M553,107l-0.9,2l-1.4-2.3
			l-0.3-0.9L553,107z M523.8,106.6L523.8,106.6L523.8,106.6L523.8,106.6z M475.6,105.8l-0.3,0.9l-1.4,2.3l-0.9-2L475.6,105.8z
			 M473.8,104.6l-1,2.1l-1.2-2.6l-0.3-1L473.8,104.6z M415.7,103.7l-0.3,0.7l0,0l-0.3-1L415.7,103.7z M395.9,107l-0.5,1.3l-0.4-1.2
			l-0.2-0.9L395.9,107z M1000.7,83.4L1000.7,83.4L1000.7,83.4L1000.7,83.4z M972.3,96.8l-0.4,1.3l-2.2,3.4l-1.4-2.9L972.3,96.8z
			 M969.6,95.1l-1.5,3.1l-1.8-3.9l-0.4-1.5L969.6,95.1z M937.7,98l-0.2,0.6l-0.2-0.8L937.7,98z M891.5,97.4l-0.2,1.2l-0.7,1.9
			l-0.7-1.9L891.5,97.4z M861.7,93.2l-0.4,1.5l0,0.1l-0.5-1L861.7,93.2z M778.9,92.9l-0.4,1.5l-1.8,3.9l-1.5-3.1L778.9,92.9z
			 M776.6,98.6l-1.4,2.9l-2.2-3.4l-0.4-1.3L776.6,98.6z M705.4,96.6L705.4,96.6L705.4,96.6L705.4,96.6z M686.1,105.8l-0.3,0.9
			l-1.4,2.3l-0.9-2L686.1,105.8z M684.3,104.6l-1,2.1l-1.2-2.6l-0.3-1L684.3,104.6z M662.6,106.6l-0.1,0.4l-0.1-0.5L662.6,106.6z
			 M363.7,106.4l-0.1,0.5l-0.1-0.4L363.7,106.4z M344.2,103.1l-0.3,1l-1.2,2.6l-1-2.1L344.2,103.1z M342.6,107l-0.9,2l-1.4-2.3
			l-0.3-0.9L342.6,107z M320.7,96.6L320.7,96.6L320.7,96.6L320.7,96.6z M253.4,96.8l-0.4,1.3l-2.2,3.4l-1.4-2.9L253.4,96.8z
			 M250.7,95.1l-1.5,3.1l-1.8-3.9l-0.4-1.5L250.7,95.1z M165.2,93.7l-0.5,1l0-0.1l-0.4-1.5L165.2,93.7z M136.1,98.6l-0.7,1.9
			l-0.7-1.9l-0.2-1.2L136.1,98.6z M88.7,97.8l-0.2,0.8L88.3,98L88.7,97.8z M60,92.9l-0.4,1.5l-1.8,3.9l-1.5-3.1L60,92.9z M57.7,98.6
			l-1.4,2.9l-2.2-3.4l-0.4-1.3L57.7,98.6z M25.4,83.3l0,0.1L25.4,83.3L25.4,83.3z"/>
	</g>
</g>
</svg>
