<?xml version="1.0" encoding="utf-8"?>
<!-- Generator: Adobe Illustrator 19.1.0, SVG Export Plug-In . SVG Version: 6.00 Build 0)  -->
<svg version="1.1" id="Layer_1" xmlns="http://www.w3.org/2000/svg" xmlns:xlink="http://www.w3.org/1999/xlink" x="0px" y="0px"
	 viewBox="0 0 360 329" style="enable-background:new 0 0 360 329;" xml:space="preserve">
<style type="text/css">
	.st0{fill:#D15028;}
</style>
<g>
	<path class="st0" d="M358.5,329H1.5V215.4c0-10.8,8.8-19.7,19.7-19.7h317.7c10.8,0,19.7,8.8,19.7,19.7V329z M23.1,307.4h313.9v-90
		H23.1V307.4z"/>
	<path class="st0" d="M335,217.3H25v-58.6c0-13.9,11.3-25.2,25.2-25.2h259.5c13.9,0,25.2,11.3,25.2,25.2V217.3z M46.6,195.7h266.8
		v-37c0-2-1.6-3.7-3.7-3.7H50.2c-2,0-3.7,1.6-3.7,3.7V195.7z"/>
	<path class="st0" d="M225.7,155.2h-91.5V44.4c0-10.7,8.7-19.5,19.5-19.5h52.5c10.7,0,19.5,8.7,19.5,19.5V155.2z M155.9,133.7h48.3
		V46.6h-48.3V133.7z"/>
	<polygon class="st0" points="332.3,118.8 215.1,118.8 215.1,97.2 310.7,97.2 310.7,79.4 213.8,79.4 213.8,57.8 332.3,57.8 	"/>
	<polygon class="st0" points="141.3,118.8 25.4,118.8 25.4,57.8 141.3,57.8 141.3,79.4 47,79.4 47,97.2 141.3,97.2 	"/>
	<path class="st0" d="M326.5,78h-51.9l-20.1-53.9c-2-5.3-1.3-11.2,1.9-15.9c3-4.3,7.8-6.8,12.8-6.8h62.6c5.1,0,9.9,2.6,12.8,6.8
		c3.2,4.6,3.9,10.5,1.9,15.9L326.5,78z M289.6,56.4h21.9L324,23h-46.9L289.6,56.4z"/>
</g>
</svg>
