<?xml version="1.0" encoding="utf-8"?>
<!-- Generator: Adobe Illustrator 19.1.0, SVG Export Plug-In . SVG Version: 6.00 Build 0)  -->
<svg version="1.1" id="Layer_1" xmlns="http://www.w3.org/2000/svg" xmlns:xlink="http://www.w3.org/1999/xlink" x="0px" y="0px"
	 viewBox="144 -144 360 360" style="enable-background:new 144 -144 360 360;" xml:space="preserve">
<style type="text/css">
	.st0{fill:url(#SVGID_1_);}
	.st1{fill:#FFFFFF;}
	.st2{fill:#ABB4D8;}
	.st3{fill:#FCCCB4;}
	.st4{fill:#C98F7B;}
	.st5{fill:#E0A58C;}
	.st6{fill:#C4836C;}
	.st7{fill:#CE9580;}
	.st8{fill:#A06150;}
	.st9{fill:#918E2C;}
	.st10{fill:#706C2A;}
	.st11{fill:#352927;}
	.st12{fill:#141210;}
	.st13{fill:#1C1916;}
	.st14{fill:#723F33;}
	.st15{fill:#110E0D;}
	.st16{clip-path:url(#SVGID_3_);}
	.st17{fill:#995300;}
	.st18{fill:#605926;}
	.st19{fill:#4C451C;}
	.st20{fill:#D3860B;}
	.st21{fill:#323D3F;}
	.st22{opacity:0.7;fill:#4C451C;enable-background:new    ;}
	.st23{fill:#DDBEA8;}
	.st24{fill:#C9A68F;}
	.st25{fill:#F2DFD0;}
	.st26{fill:#EDD4C3;}
	.st27{fill:#D15028;}
	.st28{fill:#B5351C;}
</style>
<g>
	<g>
		<g>
			
				<linearGradient id="SVGID_1_" gradientUnits="userSpaceOnUse" x1="322.85" y1="-49.856" x2="322.85" y2="-104.3889" gradientTransform="matrix(1 0 0 -1 0 72)">
				<stop  offset="0" style="stop-color:#F2DFD0"/>
				<stop  offset="1" style="stop-color:#514D4A"/>
			</linearGradient>
			<polygon class="st0" points="325.7,172.3 323.3,173.9 320.9,172.4 312.6,116.6 333.1,116.6 			"/>
			<g>
				<circle class="st1" cx="234.3" cy="200.6" r="7.6"/>
				<circle class="st1" cx="414.2" cy="199.6" r="7.6"/>
				<circle class="st1" cx="324.5" cy="199.4" r="10.6"/>
				<g>
					<g>
						<path class="st2" d="M234.8,207.7c-8.2,0-12.7-4.7-12.7-12.7h7.9c0,4,1,4.9,4.9,4.9c3.9,0,4.9-0.9,4.9-4.9h7.9
							C247.5,203,243,207.7,234.8,207.7z"/>
						<path class="st2" d="M413.7,207.7c-8.2,0-12.7-4.7-12.7-12.7h7.9c0,4,1,4.9,4.9,4.9s4.9-0.9,4.9-4.9h7.9
							C426.4,203,421.9,207.7,413.7,207.7z"/>
						<path class="st2" d="M318.3,204.6h12.6v-3.2h-12.6V204.6z"/>
						<g>
							<rect x="243.5" y="-34.1" class="st3" width="160.9" height="154.8"/>
							<g>
								<path class="st4" d="M336.9,92h-1.6C335.9,92,336.4,92,336.9,92z"/>
								<path class="st4" d="M353.7,90.4c-3.3,0-6.4,1.1-9.1,2.9l0,0c-1.7,1.1-5,2.4-8.9,2.4c-2.5,0-5.3-0.6-8.2-2.1
									c-1.1-0.6-1.9-0.9-2.6-1c-0.3-0.1-0.6-0.1-1-0.1l0,0c-0.7,0-2,0.3-3.8,1.2c-2.8,1.5-5.6,2-8.2,2c-3.9,0-7.2-1.3-8.9-2.4l0,0
									c-2.7-1.8-5.9-2.9-9.2-2.9h-5.3c0,23.2,16.5,25.7,37.2,25.7c20.7,0,37.9-2.5,37.9-25.7L353.7,90.4L353.7,90.4z"/>
							</g>
							<path class="st5" d="M288.6-4h-46.1c0,23,18.6,41.1,41.4,41.1c1.7,0,4.1-0.1,5.1-0.3v19.3c16,0,29.3-13.4,29.3-30
								S305.4-4,288.6-4z"/>
							<path class="st5" d="M318.1,22.1c0,20-15.1,35.2-34.7,35.2S247.9,42,247.9,22L318.1,22.1z"/>
							<path class="st6" d="M318.1,22.3L318.2,1h-21.6C307.4,5,315.7,11.5,318.1,22.3z"/>
							<path class="st7" d="M242,118.8c24,0,40.9-21.7,40.9-48.5S266,21.9,242,21.9V118.8z"/>
							<path class="st5" d="M255,13.6c27,0,49-17.1,49-38.3S282-63,255-63V13.6z"/>
							<path class="st6" d="M396.9-22.5L397-30h-21c-30.2-7.6-71.5-7.5-102.1,0h-22.6l0.1,7.9c-11.8,6-19.2,13.8-19.2,23.6v0.3
								c0,0.9,0.3,1.7,0.9,2.3l0.1,0.1c1.5,1.6,4,1.1,4.8-1c2.1-5.3,6.9-10,13.5-13.8l0.1,16.4c0-0.1,0-0.2,0.1-0.2
								c2.9-12.7,12.8-22.7,25.5-25.8c28.1-6.7,65.3-7,93.5-0.5c12.8,2.9,23,12.8,26.1,25.6c0.1,0.3,0.1,0.6,0.2,0.9l0.1-16.7
								c6.6,3.9,11.3,8.7,13.3,14.3c0.8,2.3,3.7,2.7,5.1,0.8c0,0,0,0,0-0.1c0.4-0.6,0.6-1.3,0.6-2V1.7
								C415.9-8.5,408.6-16.5,396.9-22.5z"/>
							<path class="st8" d="M397.1,9.2l0.2-38.2l-38.7-0.8C377.9-25.8,392.8-10,397.1,9.2z"/>
							<path class="st9" d="M409.8-68.6c-12.9-39.2-46.2-67.1-85.3-67.1c-39.3,0-72.8,28.2-85.6,67.8
								C267.2-99.1,381-100.3,409.8-68.6z"/>
							<path class="st10" d="M325-91.8c-35,0.5-71.5,8.6-85.4,24c12.7-39.6,46.4-67.8,85.4-67.8V-91.8z"/>
							<path d="M228-48.5l6.9-21.3c6.7-20.7,18.6-38.4,34.5-51.2c16.2-13.1,35.3-20,55.2-20c19.8,0,38.8,6.8,54.9,19.7
								c15.8,12.7,27.8,30.2,34.5,50.7l7,21.6l-14.2-15.6c-12.1-13.3-43.8-21.9-81-21.9c-0.5,0-1.1,0-1.6,0
								c-37.8,0.2-70.1,9.1-82.3,22.6L228-48.5z M324.5-130.3c-18.2,0-35.6,6.3-50.3,18.2c-10,8-18.2,18.2-24.3,29.8
								c19.8-10.6,49.5-14.8,74.3-14.9c18.7-0.1,36.5,1.9,51.7,5.7c8.9,2.3,16.5,5.1,22.8,8.4c-6.1-11.4-14.3-21.4-24.1-29.2
								C359.8-124.1,342.5-130.3,324.5-130.3z"/>
							<g>
								<path d="M314.4,56.6c0.6-1,2.2-1.1,2.9-0.2c0,0.1,0.1,0.1,0.1,0.1c0.2,0.4,0.7,0.4,1.1,0.4c0.2,0,0.5-0.1,0.7-0.2
									c0.6-0.4,0.8-1.1,0.4-1.7c-0.1-0.2-3-4.1-8.6-4.1l0,0c-1.6,0-3.1,0.9-3.7,2.4c-1.1,2.9,1.6,5.5,4.6,4.8
									C312,58.2,313.6,57.9,314.4,56.6z"/>
								<path d="M333.6,56.6c-0.6-1-2.2-1.1-2.9-0.2c0,0.1-0.1,0.1-0.1,0.1c-0.2,0.4-0.7,0.4-1.1,0.4c-0.2,0-0.5-0.1-0.7-0.2
									c-0.6-0.4-0.8-1.1-0.4-1.7c0.1-0.2,3-4.1,8.6-4.1l0,0c1.6,0,3.1,0.9,3.7,2.4c1.1,2.9-1.6,5.5-4.6,4.8
									C336,58.2,334.4,57.9,333.6,56.6z"/>
							</g>
							<g>
								<g>
									<path d="M305.1,18.4c-0.9,0-1.8-0.4-2.3-1.1c-3.1-4.2-8.1-6.7-13.6-6.7c-3.8,0-7.5,1.2-10.5,3.5c-1,0.8-2.5,0.9-3.6,0.2
										c-1.5-1-1.4-3-0.1-4c3.9-3.1,9-4.8,14.1-4.8c7.3,0,14,3.3,18.1,8.9c0.8,1,0.7,2.5-0.3,3.4
										C306.5,18.2,305.8,18.4,305.1,18.4z"/>
									<ellipse cx="290" cy="13.7" rx="7.7" ry="7.1"/>
								</g>
								<g>
									<path d="M342.9,18.4c-0.7,0-1.4-0.2-1.9-0.7c-1-0.9-1.1-2.3-0.3-3.4c4.1-5.6,10.9-8.9,18.1-8.9c5.1,0,10.1,1.7,14,4.7
										c1,0.8,1.4,2.2,0.7,3.3c-0.9,1.5-2.9,1.8-4.2,0.7c-2.9-2.3-6.7-3.6-10.6-3.6c-5.4,0-10.5,2.5-13.6,6.7
										C344.7,18,343.8,18.4,342.9,18.4z"/>
									<ellipse cx="358" cy="13.7" rx="7.7" ry="7.1"/>
								</g>
							</g>
							<g>
								<path d="M339.2-0.1c-4.3,0-6.6-1.1-7-1.3l-2.1-1.1v-11c0-2,1.5-3.8,3.6-4c2.5-0.3,4.7,1.5,4.7,3.8V-8c1.7,0.1,4.9,0,9.2-1.6
									c7.8-4.8,24.1-10.4,33.5,1.3c1.4,1.7,1,4.1-0.9,5.4c-1.8,1.3-4.5,0.9-5.8-0.8c-7.2-9-22.4,0.6-22.6,0.7l-0.4,0.2L351-2.6
									C346.2-0.6,342.2-0.1,339.2-0.1z"/>
								<path d="M270.2,4.4c-1.3,0-2.5-0.5-3.4-1.6c-1.2-1.5-0.9-3.9,0.5-5.2c5.4-4.9,12.9-7.1,21.5-6.2c5.8,0.6,10.5,2.4,11.3,2.7
									c4.4,1.7,7.6,1.9,9.8,1.7v-5.6c0-2,1.5-3.8,3.6-4c2.5-0.3,4.7,1.5,4.7,3.8V1.2l-2.4,1.1c-0.7,0.3-7.6,3.3-19-1.1l-0.2-0.1
									C296.5,1,281.9-5,273,3.1C272.4,4,271.3,4.4,270.2,4.4z"/>
							</g>
							<g>
								<path class="st4" d="M336.9,92h-1.6C335.9,92,336.4,92,336.9,92z"/>
								<path class="st4" d="M344.5,93.3"/>
							</g>
							<path class="st11" d="M345.1,64.7l27.5,14.9L397,63.8v-85.2l-14.2-20c1.8,0.5,4.3,1.1,6,1.7l5.7,2.2
								c8.2,3.6,15.2,8,17.9,13.4l-0.7,146.5L329,167.1V138c3-1.6,4.7-4.3,4.7-7.5c0-4.9-4.1-8.8-9.3-8.8s-9.5,3.9-9.5,8.8
								c0,2.7,2.2,5,3.2,6.7v30l-82-44.8V-24.5c5-7,15.7-12.4,28.9-16.4l-14,19.4v85.2l25.9,15.8l28.7-14.9l12.4,2.5v11.2l-10.9-1.6
								l-18.2,9.8l-0.2,19.5l18.4,9.8l11-6V105l6.5-3.8l6.5,3.8v4.8l11.9,6l18.9-9.8l-0.1-19.5l-18.3-9.8l-12.3,1.6V67.1L345.1,64.7
								z"/>
							<path class="st12" d="M411.4-18l-0.1,46.7c-2.6-11.7-8.4-22.4-14.4-31.5v-17L411.4-18z"/>
							<path class="st13" d="M323.8,121.4c-5.2,0-8.2,3.9-8.2,8.8c0,2.7,2.5,5,3.5,6.7v30l-82-44.8V-24.8c4-7,15.7-12.4,28.9-16.4
								l-14,19.4v85.2l25.5,15.8l28.4-14.9l12.1,2.5V78l-10.8-1.6l-18.1,9.8l-0.2,19.5l18.2,9.8l10.9-6v-4.8l6.4-3.8L323.8,121.4z"
								/>
							<path class="st14" d="M251.8,9.2L251.6-29l38.7-0.4C271-25.4,256.1-10,251.8,9.2z"/>
							<path class="st15" d="M239.3-18l0.2,46.7C242.1,17,247,6.3,254-2.8v-17L239.3-18z"/>
							<path d="M323,174.6L231,125V-29.7l1.3-1.1c5-7.4,15.7-13.5,31.3-18.1l12.5-3.7L255-23.8v85.1l21.9,13.2L305.2,60l17.9,3.5
								v19.9l-14.8-2.1l-14.8,7.9l-0.2,14.3l13.1,7.4l5.8-3.5v-4.8l11-6.3l11,6.3v4.6l8.1,3.8l14.8-7.5l0.1-14.2l-14.9-7.9
								l-16.1,2.1V63.6l19.6-3.3l26.9,14.3l20.5-13.1v-86.1l-20.8-29.1l11.8,3.5c0.6,0.2,1.3,0.4,2.1,0.6c1.4,0.4,2.8,0.7,4,1.2
								l0.1,0.1l5.9,2.3c10.6,4.7,17.2,9.7,20.1,15.5l0.5,0.9L416.3,125L325,174.5v-39.2l2.3-1.2c1.8-0.9,2.2-2.5,2.2-3.6
								c0-2.4-2.2-4.4-5-4.4s-5.1,2-5.1,4.4c0,1.1,0.9,2.4,2,3.4l1.6,1.3V174.6z M241,119.8l73,40V139c-2-2.5-3.3-5.4-3.3-8.4
								c0-7.3,6.2-13.2,13.8-13.2s13.4,5.9,13.4,13.2c0,3.9-1.9,7.4-4.9,9.8v19.4l74.1-40l0.6-147.4c-1.6-2.5-4.7-6-13.3-9.9
								l7.6,10.1v93.7l-28.9,18.5L344,69.4l-9.9,1.6v2.5l9.4-1.1l22.2,11.7l0.2,24.9l-23.3,12l-16.6-8.2v-4.9l-2-1.3l-2,1.3v4.7
								l-15.2,8.5l-22.5-12.3l0.2-24.8l22-11.7l7.5,1.1v-2.5l-7.6-1.5l-29.9,15.3L246,66.2v-92.9l6.6-8.7c-5.4,2.6-9.6,5.5-11.6,8.5
								V119.8z"/>
							<path class="st9" d="M232-60.6v48.2c0,0.7,0.3,1.5,0.9,2l0.1,0.1c1.5,1.4,4,0.9,4.9-0.9c15-32.7,157.9-33.8,172.3,0.1
								c0.8,2,3.7,2.3,5.1,0.7l0,0c0.4-0.5,0.7-1.1,0.7-1.7v-48.5C416-104.6,232-103,232-60.6z"/>
							<path class="st10" d="M232-60.6v48.2c0,0.7,0.3,1.5,0.9,2l0.1,0.1c1.5,1.4,4,0.9,4.8-0.9c7.5-16.4,46.8-24.8,86.1-24.9v-59
								C324-95.2,232.3-89.2,232-60.6z"/>
							<g>
								<g>
									<defs>
										<path id="SVGID_2_" d="M235.3-61.5v46.9c0,0.7,0.3,1.4,0.9,1.9l0.1,0.1c1.5,1.3,3.9,0.9,4.7-0.9
											c14.6-31.9,153.7-32.9,167.7,0.1c0.8,1.9,3.6,2.2,5,0.6l0,0c0.4-0.5,0.6-1.1,0.6-1.7v-47
											C414.4-104.3,235.3-102.7,235.3-61.5z"/>
									</defs>
									<clipPath id="SVGID_3_">
										<use xlink:href="#SVGID_2_"  style="overflow:visible;"/>
									</clipPath>
									<g class="st16">
										<path class="st17" d="M244-11h-13v-84h13V-11z M236-15h4v-76h-4V-15z"/>
										<path class="st18" d="M253-11h-13v-84h13V-11z M244-15h6v-76h-6V-15z"/>
										<path class="st18" d="M263-11h-13v-84h13V-11z M253-15h6v-76h-6V-15z"/>
										<path class="st18" d="M273-11h-14v-84h14V-11z M263-15h5v-76h-5V-15z"/>
										<path class="st18" d="M281-11h-13v-84h13V-11z M273-15h4v-76h-4V-15z"/>
										<path class="st18" d="M290-11h-13v-84h13V-11z M281-15h6v-76h-6V-15z"/>
										<path class="st18" d="M300-11h-13v-84h13V-11z M290-15h5v-76h-5V-15z"/>
										<path class="st18" d="M308-11h-13v-84h13V-11z M300-15h4v-76h-4V-15z"/>
										<path class="st18" d="M318-11h-14v-84h14V-11z M308-15h6v-76h-6V-15z"/>
										<path class="st18" d="M326-11h-12v-84h12V-11z M318-15h5v-76h-5V-15z"/>
										<path class="st18" d="M335-11h-12v-84h12V-11z M326-15h5v-76h-5V-15z"/>
										<path class="st10" d="M345-11h-14v-84h14V-11z M335-15h6v-76h-6V-15z"/>
										<path class="st10" d="M354-11h-13v-84h13V-11z M345-15h4v-76h-4V-15z"/>
										<path class="st10" d="M361-11h-12v-84h12V-11z M354-15h4v-76h-4V-15z"/>
										<path class="st10" d="M372-11h-14v-84h14V-11z M361-15h7v-76h-7V-15z"/>
										<path class="st10" d="M381-11h-13v-84h13V-11z M372-15h4v-76h-4V-15z"/>
										<path class="st10" d="M391-11h-15v-84h15V-11z M381-15h3v-76h-3V-15z"/>
										<path class="st10" d="M399-11h-15v-84h15V-11z M391-15h4v-76h-4V-15z"/>
										<path class="st10" d="M408-11h-13v-84h13V-11z M399-15h5v-76h-5V-15z"/>
										<path class="st10" d="M418-11h-14v-84h14V-11z M408-15h5v-76h-5V-15z"/>
									</g>
								</g>
							</g>
							<path class="st18" d="M232-15.6v0.2c0,0.7,0.3,1.5,0.9,2l0.1,0.1c1.5,1.4,4,0.9,4.9-0.9c15-32.7,157.9-33.8,172.3,0.1
								c0.8,2,3.7,2.3,5.1,0.7l0,0c0.4-0.5,0.7-1.1,0.7-1.7v-0.4C416-59.6,232-58,232-15.6z"/>
							<path class="st19" d="M232-10.7v0.2c0,0.7,0.3,1.5,0.9,2l0.1,0.1c1.5,1.4,4,0.9,4.9-0.9c15-32.7,157.9-33.8,172.3,0.1
								c0.8,2,3.7,2.3,5.1,0.7l0,0c0.4-0.5,0.7-1.1,0.7-1.7v-0.4C416-54.6,232-53,232-10.7z"/>
							<path d="M412.9-5c-0.4,0-0.8,0-1.2-0.1c-2.5-0.4-4.6-2-5.6-4.3c-2.6-6.2-11.9-11.8-26-15.8c-13.7-3.9-31.7-6.2-50.8-6.4
								c-43.6-0.6-81.2,9-87.3,22.4c-1,2.1-2.9,3.6-5.2,4.1c-2.4,0.5-4.8-0.2-6.6-1.8L230.1-7c-1.5-1.4-2.3-3.3-2.3-5.2v-48.4
								c0-15.2,17.6-23.8,32.3-28.4c17.4-5.4,40.6-8.4,65.3-8.4c24.3,0,47,2.9,63.7,8.2c14.3,4.5,31.3,13.2,31.3,28.6v48.3
								c0,1.7-0.6,3.3-1.7,4.6l-0.1,0.1C417.1-5.9,415.1-5,412.9-5z M325.3-88.6c-49.8,0-88.8,12.3-88.8,28v34.3
								c0,3.2,3.6,5.1,6.2,3.2c6.3-4.6,15.5-8.5,27.4-11.4c16.7-4.2,37.7-6.3,59.3-6c19.8,0.3,38.7,2.7,53.1,6.8
								c9.7,2.8,17.4,6.2,22.9,10.3c2.6,1.9,6.2,0.1,6.2-3.1v-34c0-4.6-3.3-13.2-25.2-20.2C370.4-85.8,348.7-88.6,325.3-88.6z"/>
							<path class="st20" d="M415.3-10.5"/>
							<g>
								<path class="st21" d="M339.6,213.5h-30.2v-28.9h30.2V213.5z M318.3,204.7h12.6v-11.3h-12.6V204.7z"/>
								<path class="st21" d="M243.4,196c0.8,0,1.2,2.4,1.2,3.9c0,1.6-0.5,3.1-1.3,4.1H314v-8H243.4z"/>
								<path class="st21" d="M404.1,199.9c0-1.6,0.4-3.9,1.2-3.9H335v8h70.4C404.6,203,404.1,201.6,404.1,199.9z"/>
								<path class="st21" d="M234.9,212.9c-7.7,0-14-6-14-13.4s6.3-13.4,14-13.4c7.7,0,14,6,14,13.4S242.7,212.9,234.9,212.9z
									 M234.9,195c-2.9,0-5.2,2-5.2,4.6c0,2.5,2.3,4.6,5.2,4.6c2.9,0,5.2-2,5.2-4.6C240.2,197,237.8,195,234.9,195z"/>
								<g>
									<path class="st21" d="M413.8,212.9c-7.7,0-14-6-14-13.4s6.3-13.4,14-13.4s14,6,14,13.4S421.5,212.9,413.8,212.9z
										 M413.8,195c-2.9,0-5.2,2-5.2,4.6c0,2.5,2.3,4.6,5.2,4.6s5.2-2,5.2-4.6S416.7,195,413.8,195z"/>
								</g>
							</g>
						</g>
					</g>
				</g>
			</g>
		</g>
	</g>
	<polygon class="st22" points="341.2,-54 324,-44 306.8,-54 306.8,-73.8 324,-83.7 341.2,-73.8 	"/>
	<g>
		<polygon class="st23" points="341.2,-55.7 324,-45.8 306.8,-55.7 306.8,-75.5 324,-85.4 341.2,-75.5 		"/>
		<polygon class="st24" points="324,-45.8 306.8,-55.7 306.8,-75.5 324,-85.4 		"/>
	</g>
	<g>
		<polygon class="st25" points="341.2,-56.9 324,-46.9 306.8,-56.9 306.8,-76.7 324,-86.6 341.2,-76.7 		"/>
		<polygon class="st26" points="324,-46.9 306.8,-56.9 306.8,-76.7 324,-86.6 		"/>
		<g>
			<path class="st27" d="M321.4-79.8l-2.7,5.9l4.6,10.2c0.7,1.5-0.5,3.3-2.1,3.1h-0.1c-1.1-0.1-1.9-1-2.1-2.1
				c-0.2-1.4,0.9-2.6,2.3-2.6l0,0l-2.3-5c-3.1,1-5.4,3.9-5.4,7.3c0,4.1,3.3,7.6,7.4,7.7c3.3,0.1,6.1-1.8,7.3-4.5
				c0.7-1.5,0.6-3.2,0-4.6L321.4-79.8z"/>
			<polygon class="st28" points="327.8,-79.9 325.1,-74 330.1,-62.9 335.4,-62.9 			"/>
			<polyline class="st27" points="330.7,-73.9 327.8,-79.9 327.8,-68.1 330.1,-62.9 335.6,-62.9 333,-68.3 333.4,-68.3 330.4,-73.9 
				330.7,-73.9 			"/>
		</g>
	</g>
</g>
</svg>
