<?xml version="1.0" encoding="utf-8"?>
<!-- Generator: Adobe Illustrator 19.1.0, SVG Export Plug-In . SVG Version: 6.00 Build 0)  -->
<svg version="1.1" id="Layer_1" xmlns="http://www.w3.org/2000/svg" xmlns:xlink="http://www.w3.org/1999/xlink" x="0px" y="0px"
	 viewBox="-251 253 360 360" style="enable-background:new -251 253 360 360;" xml:space="preserve">
<style type="text/css">
	.st0{fill:#FFFFFF;}
	.st1{fill:#ABB4D8;}
	.st2{fill:#FCCCB4;}
	.st3{fill:#C98F7B;}
	.st4{fill:#E0A58C;}
	.st5{fill:#C4836C;}
	.st6{fill:#CE9580;}
	.st7{fill:#A06150;}
	.st8{fill:#D15028;}
	.st9{fill:#B5351C;}
	.st10{fill:#352927;}
	.st11{fill:#141210;}
	.st12{fill:#1C1916;}
	.st13{fill:#723F33;}
	.st14{fill:#110E0D;}
	.st15{clip-path:url(#SVGID_2_);fill:#A82513;}
	.st16{clip-path:url(#SVGID_2_);fill:#B5351C;}
	.st17{fill:#A82513;}
	.st18{fill:#910C0C;}
	.st19{fill:#323D3F;}
	.st20{fill:#323E3E;}
	.st21{opacity:0.6;fill:#910C0C;enable-background:new    ;}
	.st22{fill:#DDBEA8;}
	.st23{fill:#C9A68F;}
	.st24{fill:#F2DFD0;}
	.st25{fill:#EDD4C3;}
	.st26{fill:#918E2C;}
	.st27{fill:#706C2A;}
</style>
<g>
	<g>
		<g>
			<g>
				<circle class="st0" cx="-161.4" cy="597.8" r="7.6"/>
				<circle class="st0" cx="19.2" cy="596.7" r="7.6"/>
				<circle class="st0" cx="-70.9" cy="596.6" r="10.6"/>
				<g>
					<g>
						<path class="st1" d="M-160.9,603c-7.4,0-11.3-3.9-11.3-11.3h5c0,4.6,1.7,6.3,6.3,6.3c4.6,0,6.3-1.7,6.3-6.3h5
							C-149.5,599.1-153.5,603-160.9,603z"/>
						<path class="st1" d="M18.8,603c-7.4,0-11.3-3.9-11.3-11.3h5c0,4.6,1.7,6.3,6.3,6.3s6.3-1.7,6.3-6.3h5
							C30,599.1,26.1,603,18.8,603z"/>
						<path class="st1" d="M-77,602.3h12.6V599H-77V602.3z"/>
						<g>
							<rect x="-152.1" y="362.6" class="st2" width="161.6" height="155.4"/>
							<g>
								<path class="st3" d="M-41.5,487.6c-3.3,0-6.4,1.1-9.2,2.9l0,0c-1.7,1.1-5,2.4-8.9,2.4c-2.5,0-5.4-0.6-8.2-2.1
									c-1.1-0.6-1.9-0.9-2.6-1c-0.3-0.1-0.6-0.1-1-0.1l0,0c-0.7,0-2,0.3-3.8,1.2c-2.8,1.5-5.7,2-8.2,2c-4,0-7.3-1.3-8.9-2.4l0,0
									c-2.8-1.8-5.9-2.9-9.2-2.9h-5.3c0,23.3,16.5,25.8,37.3,25.8s38-2.5,38-25.8L-41.5,487.6L-41.5,487.6z"/>
							</g>
							<path class="st4" d="M-107.4,393h-46.3c0,22,18.8,40.9,41.7,40.9c1.7,0,1.3-0.5,5.3-0.6v19.4c17,0,30-13.2,30-29.8
								C-76.7,406.3-90.5,393-107.4,393z"/>
							<path class="st4" d="M-76.9,419c0,19-16,35.5-35.7,35.5s-35.6-16.5-35.6-35.5H-76.9z"/>
							<path class="st5" d="M-76.9,419.4l0.1-21.4h-21.7C-87.6,401-79.2,408.6-76.9,419.4z"/>
							<path class="st6" d="M-154.2,515.6c26,0,41-21.8,41-48.6s-15-48.6-41-48.6V515.6z"/>
							<path class="st4" d="M-138.2,410c25,0,49.2-17.2,49.2-38.4c0-21.2-24.2-38.5-49.2-38.5V410z"/>
							<path class="st5" d="M1.9,374.3l0.1-7.5h-21c-30.3-7.6-71.8-7.5-102.5,0h-22.7l0.1,8c-11.9,6-19.3,13.9-19.3,23.7v0.3
								c0,0.9,0.3,1.7,0.9,2.3l0.1,0.1c1.5,1.6,4,1.1,4.9-1c2.1-5.4,6.9-10,13.5-13.9l0.1,16.5c0-0.1,0-0.2,0.1-0.3
								c2.9-12.8,12.9-22.8,25.6-25.9c28.2-6.7,65.6-7,93.8-0.5C-11.5,379-1.4,389,1.8,401.8c0.1,0.3,0.1,0.6,0.2,0.9l0.1-16.8
								c6.6,4,11.3,8.7,13.4,14.3c0.8,2.3,3.7,2.7,5.1,0.8c0,0,0,0,0-0.1c0.4-0.6,0.6-1.3,0.6-2v-0.4C21,388.3,13.6,380.3,1.9,374.3
								z"/>
							<path class="st7" d="M2,405.4L2.2,367h-38.9C-17.1,370-2.2,386,2,405.4z"/>
							<path class="st8" d="M14.8,327.5c-13-39.3-46.4-67.3-85.7-67.3c-39.5,0-73.1,28.4-85.9,68.1
								C-128.4,296.9-14,295.7,14.8,327.5z"/>
							<path class="st9" d="M-71.2,304.2c-35,0.5-71.8,8.6-85.8,24.1c12.8-39.8,46.8-68.1,85.8-68.1V304.2z"/>
							<path d="M-167.8,347.7l6.9-21.4c6.7-20.8,18.6-38.6,34.6-51.5c16.2-13.1,35.4-20,55.4-20c19.9,0,38.9,6.8,55.1,19.8
								c15.9,12.7,27.9,30.3,34.6,50.9l7.1,21.7l-14.2-15.7c-12.2-13.4-44-22-81.4-22c-0.5,0-1.1,0-1.6,0
								c-38,0.2-70.4,9.2-82.6,22.7L-167.8,347.7z M-70.9,265.6c-18.2,0-35.7,6.3-50.5,18.2c-10,8.1-18.3,18.2-24.4,30
								c19.8-10.6,49.7-14.8,74.6-15c18.7-0.1,36.7,1.9,51.9,5.7c8.9,2.3,16.6,5.1,22.9,8.4c-6.1-11.5-14.3-21.5-24.2-29.4
								C-35.4,271.8-52.8,265.6-70.9,265.6z"/>
							<g>
								<path d="M-80.9,453.7c0.6-1,2.2-1.2,2.9-0.2c0,0.1,0.1,0.1,0.1,0.1c0.3,0.4,0.7,0.4,1.1,0.4c0.2,0,0.5-0.1,0.7-0.2
									c0.6-0.4,0.8-1.1,0.4-1.7c-0.1-0.2-3-4.1-8.6-4.1l0,0c-1.6,0-3.1,0.9-3.7,2.4c-1.1,2.9,1.6,5.5,4.7,4.8
									C-83.4,455.3-81.6,455-80.9,453.7z"/>
								<path d="M-61.6,453.7c-0.6-1-2.2-1.2-2.9-0.2c0,0.1-0.1,0.1-0.1,0.1c-0.3,0.4-0.7,0.4-1.1,0.4c-0.2,0-0.5-0.1-0.7-0.2
									c-0.6-0.4-0.8-1.1-0.4-1.7c0.1-0.2,3-4.1,8.6-4.1l0,0c1.6,0,3.1,0.9,3.7,2.4c1.1,2.9-1.6,5.5-4.7,4.8
									C-59.1,455.3-60.9,455-61.6,453.7z"/>
							</g>
							<g>
								<g>
									<path d="M-90.2,415.3c-0.9,0-1.8-0.4-2.3-1.1c-3.1-4.2-8.2-6.7-13.6-6.7c-3.8,0-7.6,1.3-10.5,3.5c-1,0.8-2.5,0.9-3.6,0.2
										c-1.5-1.1-1.4-3-0.1-4.1c4-3.1,9-4.8,14.2-4.8c7.3,0,14.1,3.4,18.2,9c0.8,1.1,0.7,2.5-0.3,3.4
										C-88.9,415.1-89.5,415.3-90.2,415.3z"/>
									<ellipse cx="-105.4" cy="410.6" rx="7.7" ry="7.2"/>
								</g>
								<g>
									<path d="M-52.2,415.3c-0.7,0-1.4-0.2-1.9-0.7c-1-0.9-1.1-2.3-0.3-3.4c4.1-5.6,10.9-9,18.2-9c5.2,0,10.2,1.7,14.1,4.8
										c1,0.8,1.4,2.2,0.7,3.3c-0.9,1.5-2.9,1.8-4.2,0.7c-3-2.3-6.7-3.6-10.6-3.6c-5.5,0-10.6,2.5-13.6,6.7
										C-50.5,414.9-51.4,415.3-52.2,415.3z"/>
									<ellipse cx="-37.1" cy="410.6" rx="7.7" ry="7.2"/>
								</g>
							</g>
							<g>
								<path d="M-56,396.8c-4.3,0-6.6-1.1-7-1.3l-2.1-1.1v-11c0-2,1.5-3.8,3.7-4c2.5-0.3,4.7,1.6,4.7,3.9v5.8
									c1.7,0.1,4.9,0,9.2-1.6c7.8-4.8,24.2-10.4,33.6,1.3c1.4,1.7,1,4.2-0.9,5.4c-1.9,1.3-4.5,0.9-5.9-0.8
									c-7.2-9-22.5,0.6-22.7,0.7l-0.4,0.2l-0.4,0.2C-49,396.3-53,396.8-56,396.8z"/>
								<path d="M-125.2,401.2c-1.3,0-2.5-0.5-3.4-1.6c-1.2-1.5-0.9-3.9,0.6-5.2c5.5-5,12.9-7.1,21.6-6.2c5.8,0.6,10.5,2.4,11.3,2.7
									c4.4,1.7,7.6,1.9,9.9,1.7V387c0-2,1.5-3.8,3.7-4c2.5-0.3,4.7,1.6,4.7,3.9v11.2l-2.4,1.1c-0.7,0.3-7.6,3.3-19.1-1.1l-0.2-0.1
									c-0.1-0.1-14.8-6.2-23.7,2C-123,400.9-124.1,401.2-125.2,401.2z"/>
							</g>
							<path class="st10" d="M-49.5,461.3l27.2,14.9l24.1-15.9v-85.5l-14.1-20.1c1.8,0.5,4.4,1.1,6.1,1.7l5.7,2.2
								c8.2,3.6,15.3,8,17.9,13.4l-0.1,147.1l-82.5,45.1V535c2-1.6,4.2-4.3,4.2-7.5c0-4.9-4.4-8.8-9.6-8.8s-9.7,4-9.7,8.8
								c0,2.7,2.1,5.1,3.1,6.7v30.1l-83-45V371.7c6-7,16.3-12.5,29.5-16.4l-13.5,19.5v85.5l25.8,15.9l28.7-15l12.4,2.5V475l-11-1.6
								l-18.3,9.8l-0.2,19.6l18.5,9.9l11.1-6v-4.8l7-3.8l7,3.8v4.8l11.4,6l18.7-9.8l-0.3-19.6l-17.9-9.8l-11.9,1.5v-11.2
								L-49.5,461.3z"/>
							<path class="st11" d="M15.9,378.2l-0.4,46.9c-2.6-11.7-8.7-22.5-14.7-31.6v-17.1L15.9,378.2z"/>
							<path class="st12" d="M-71.5,518.3c-5.2,0-8.7,4-8.7,8.8c0,2.7,3,5.1,3,6.7v30.1l-82-45V371.5c5-7,15.8-12.5,29-16.4
								l-14,19.5v85.5l26,15.9l28.7-15l12.4,2.5v11.2l-10.9-1.6l-18.2,9.8l-0.2,19.6l18.4,9.9l11-6v-4.8l6.4-3.8L-71.5,518.3z"/>
							<path class="st13" d="M-143.8,405.4l-0.2-38.4h38.9C-124.5,370-139.6,386-143.8,405.4z"/>
							<path class="st14" d="M-155.6,378.2l0.5,46.9c2.6-11.7,8.9-22.5,14.9-31.6v-17.1L-155.6,378.2z"/>
							<path d="M-72.2,571.7l-92-49.9V366.6l1.1-1.1c5-7.4,15.6-13.5,31.3-18.2l13.7-3.8l-20.1,28.9v85.4l20.8,13.3l27.8-14.5
								l17.4,3.5V480l-14.9-2.1l-14.9,7.9l-0.3,14.3l13.2,7.4l5.9-3.5v-4.8l12-6.3l12,6.3v4.6l7.2,3.8l14.4-7.6l-0.2-14.3l-14.6-7.9
								l-15.8,2.2v-20l19.1-3.4L-23,471l19.8-13v-86.4l-20.3-29.2l12.2,3.5c0.6,0.2,1.5,0.4,2.3,0.6c1.4,0.4,2.9,0.7,4.1,1.2
								l0.2,0.1l5.9,2.3c10.7,4.7,17.3,9.7,20.2,15.5l0.5,0.9L21.5,522l-91.7,49.6v-39.3l2.3-1.2c1.8-1,2.1-2.5,2.1-3.6
								c0-2.4-2.3-4.4-5-4.4c-2.8,0-5.1,2-5.1,4.4c0,1.1,0.9,2.4,2,3.4l1.7,1.3V571.7z M-154.2,516.6l72,40.1v-20.9
								c-2-2.5-2.9-5.5-2.9-8.4c0-7.3,6.4-13.2,14.1-13.2c7.6,0,13.6,5.9,13.6,13.2c0,3.9-0.8,7.4-4.8,9.8v19.5l74.3-40.1l0.6-148
								c-1.6-2.5-5.3-6-14-9.9l7.1,10.1v94l-28.4,18.6L-50.5,466l-8.6,1.6v2.5l8.4-1.1l21.8,11.7v25l-23,12.1l-16.2-8.2v-4.9
								l-2.5-1.3l-2.5,1.3v4.8l-15.3,8.5l-22.6-12.3l0.2-24.9l21.6-11.7l7.1,1.1v-2.5l-7.2-1.5l-29.6,15.4l-30.3-18.8v-93.3l6.7-8.7
								c-5.5,2.6-9.7,5.5-11.7,8.5V516.6z"/>
							<path class="st8" d="M-163.6,336v48.4c0,0.8,0.3,1.5,0.9,2l0.1,0.1c1.5,1.4,4,0.9,4.9-0.9c15.1-32.9,158.5-34,172.9,0.1
								c0.8,2,3.7,2.3,5.1,0.7l0,0c0.4-0.5,0.7-1.1,0.7-1.7V336C21,291.8-163.6,293.5-163.6,336z"/>
							<path class="st9" d="M-163.6,336v48.4c0,0.8,0.3,1.5,0.9,2l0.1,0.1c1.5,1.4,4,0.9,4.9-0.9c7.5-16.4,47-24.9,86.4-25v-59.3
								C-71.2,301.3-163.4,307.3-163.6,336z"/>
							<g>
								<defs>
									<path id="SVGID_1_" d="M-70,307.9c-50,0-89.2,12.3-89.2,28.1v34.4c0,3.2,3.6,5.1,6.2,3.2c6.4-4.6,15.6-8.5,27.5-11.5
										c16.8-4.2,37.9-6.3,59.5-6c19.9,0.3,38.8,2.7,53.3,6.8c9.8,2.8,17.4,6.2,22.9,10.3c2.6,1.9,6.3,0.1,6.3-3.2v-34
										c0-4.6-3.3-13.3-25.3-20.2C-24.6,310.7-46.5,307.9-70,307.9z"/>
								</defs>
								<clipPath id="SVGID_2_">
									<use xlink:href="#SVGID_1_"  style="overflow:visible;"/>
								</clipPath>
								<path class="st15" d="M-147.1,378.3h-18.2V298h18.2V378.3z M-159.3,372.3h6.2V304h-6.2V372.3z"/>
								<path class="st15" d="M-134.9,378.3h-18.2V298h18.2V378.3z M-147.1,372.3h6.2V304h-6.2V372.3z"/>
								<path class="st15" d="M-122.7,378.3h-18.2V298h18.2V378.3z M-134.9,372.3h6.2V304h-6.2V372.3z"/>
								<path class="st15" d="M-110.4,378.3h-18.2V298h18.2V378.3z M-122.7,372.3h6.2V304h-6.2V372.3z"/>
								<path class="st15" d="M-98.2,378.3h-18.2V298h18.2V378.3z M-110.4,372.3h6.2V304h-6.2V372.3z"/>
								<path class="st15" d="M-86,378.3h-18.2V298H-86V378.3z M-98.2,372.3h6.2V304h-6.2V372.3z"/>
								<path class="st15" d="M-73.8,378.3H-92V298h18.2V378.3z M-86,372.3h6.2V304H-86V372.3z"/>
								<path class="st15" d="M-61.6,378.3h-18.2V298h18.2V378.3z M-73.8,372.3h6.2V304h-6.2V372.3z"/>
								<path class="st16" d="M-49.3,378.3h-18.2V298h18.2V378.3z M-61.6,372.3h6.2V304h-6.2V372.3z"/>
								<path class="st16" d="M-37.1,378.3h-18.2V298h18.2V378.3z M-49.3,372.3h6.2V304h-6.2V372.3z"/>
								<path class="st16" d="M-24.9,378.3h-18.2V298h18.2V378.3z M-37.1,372.3h6.2V304h-6.2V372.3z"/>
								<path class="st16" d="M-12.7,378.3h-18.2V298h18.2V378.3z M-24.9,372.3h6.2V304h-6.2V372.3z"/>
								<path class="st16" d="M-0.4,378.3h-18.2V298h18.2V378.3z M-12.7,372.3h6.2V304h-6.2V372.3z"/>
								<path class="st16" d="M11.8,378.3H-6.4V298h18.2V378.3z M-0.4,372.3h6.2V304h-6.2V372.3z"/>
								<path class="st16" d="M24,378.3H5.8V298H24V378.3z M11.8,372.3H18V304h-6.2V372.3z"/>
							</g>
							<g>
								<g>
									<g>
										<defs>
											<path id="SVGID_3_" d="M-160.2,335.1v47.1c0,0.7,0.3,1.4,0.9,1.9l0.1,0.1c1.5,1.3,3.9,0.9,4.7-0.9
												c14.7-32,154.3-33.1,168.4,0.1c0.8,1.9,3.6,2.3,5,0.6l0,0c0.4-0.5,0.6-1.1,0.6-1.7v-47.2
												C19.5,292.2-160.2,293.7-160.2,335.1z"/>
										</defs>
										<clipPath id="SVGID_4_">
											<use xlink:href="#SVGID_3_"  style="overflow:visible;"/>
										</clipPath>
									</g>
								</g>
							</g>
							<path class="st17" d="M-163.6,381.2v0.2c0,0.8,0.3,1.5,0.9,2l0.1,0.1c1.5,1.4,4,0.9,4.9-0.9c15.1-32.9,158.5-34,172.9,0.1
								c0.8,2,3.7,2.3,5.1,0.7l0,0c0.4-0.5,0.7-1.1,0.7-1.7v-0.4C21,337-163.6,338.7-163.6,381.2z"/>
							<path class="st18" d="M-163.6,386.1v0.2c0,0.8,0.3,1.5,0.9,2l0.1,0.1c1.5,1.4,4,0.9,4.9-0.9c15.1-32.9,158.5-34,172.9,0.1
								c0.8,2,3.7,2.3,5.1,0.7l0,0c0.4-0.5,0.7-1.1,0.7-1.7v-0.4C21,342-163.6,343.6-163.6,386.1z"/>
							<path d="M18,391.8c-0.4,0-0.8,0-1.2-0.1c-2.5-0.4-4.6-2-5.6-4.3c-2.6-6.2-11.9-11.9-26.1-15.9c-13.7-3.9-31.9-6.2-51-6.5
								c-43.8-0.6-81.5,9-87.7,22.4c-1,2.1-2.9,3.6-5.2,4.1c-2.4,0.5-4.8-0.2-6.6-1.8l-0.1-0.1c-1.5-1.4-2.3-3.3-2.3-5.2V336
								c0-15.3,17.6-23.9,32.4-28.5c17.5-5.4,40.8-8.4,65.6-8.4c24.4,0,47.2,2.9,64,8.3c14.4,4.5,31.5,13.2,31.5,28.7v48.5
								c0,1.7-0.6,3.3-1.7,4.6l-0.1,0.1C22.2,390.9,20.2,391.8,18,391.8z M-70,307.9c-50,0-89.2,12.3-89.2,28.1v34.4
								c0,3.2,3.6,5.1,6.2,3.2c6.4-4.6,15.6-8.5,27.5-11.5c16.8-4.2,37.9-6.3,59.5-6c19.9,0.3,38.8,2.7,53.3,6.8
								c9.8,2.8,17.4,6.2,22.9,10.3c2.6,1.9,6.3,0.1,6.3-3.2v-34c0-4.6-3.3-13.3-25.3-20.2C-24.6,310.7-46.5,307.9-70,307.9z"/>
							<g>
								<path class="st19" d="M-55.5,611.2h-30.3v-29h30.3V611.2z M-77,602.3h12.6V591H-77V602.3z"/>
								<path class="st20" d="M-152.4,592c0.8,1,1.2,3.9,1.2,5.4c0,1.6-0.5,4.6-1.3,5.6h73.2v-11H-152.4z"/>
								<path class="st19" d="M9.1,597.4c0-1.6,0.4-4.4,1.2-5.4h-69.6v11h69.7C9.5,602,9.1,599.1,9.1,597.4z"/>
								<path class="st19" d="M-160.8,610.1c-7.8,0-14.1-6-14.1-13.4s6.3-13.4,14.1-13.4s14.1,6,14.1,13.4S-152.9,610.1-160.8,610.1
									z M-160.8,592.1c-2.9,0-5.2,2.1-5.2,4.6s2.4,4.6,5.2,4.6c2.9,0,5.2-2.1,5.2-4.6C-155.6,594.1-157.9,592.1-160.8,592.1z"/>
								<g>
									<path class="st19" d="M18.8,610.1c-7.8,0-14.1-6-14.1-13.4s6.3-13.4,14.1-13.4c7.8,0,14.1,6,14.1,13.4
										S26.5,610.1,18.8,610.1z M18.8,592.1c-2.9,0-5.2,2.1-5.2,4.6s2.4,4.6,5.2,4.6c2.9,0,5.2-2.1,5.2-4.6
										C24,594.1,21.6,592.1,18.8,592.1z"/>
								</g>
							</g>
						</g>
					</g>
				</g>
			</g>
		</g>
	</g>
	<polygon class="st21" points="-54,342.7 -71.2,352.6 -88.5,342.7 -88.5,322.8 -71.2,312.9 -54,322.8 	"/>
	<g>
		<polygon class="st22" points="-54,341 -71.2,350.9 -88.5,341 -88.5,321.1 -71.2,311.1 -54,321.1 		"/>
		<polygon class="st23" points="-71.2,350.9 -88.5,341 -88.5,321.1 -71.2,311.1 		"/>
	</g>
	<g>
		<polygon class="st24" points="-54,339.8 -71.2,349.7 -88.5,339.8 -88.5,319.9 -71.2,309.9 -54,319.9 		"/>
		<polygon class="st25" points="-71.2,349.7 -88.5,339.8 -88.5,319.9 -71.2,309.9 		"/>
		<g>
			<path class="st26" d="M-73.9,316.8l-2.7,5.9l4.6,10.2c0.7,1.5-0.5,3.3-2.1,3.2h-0.1c-1.1-0.1-1.9-1-2.1-2.1
				c-0.2-1.4,1-2.6,2.3-2.6l0,0l-2.3-5c-3.1,1-5.4,3.9-5.5,7.3c0,4.1,3.3,7.6,7.4,7.8c3.3,0.1,6.1-1.8,7.4-4.6
				c0.7-1.5,0.7-3.2,0-4.7L-73.9,316.8z"/>
			<polygon class="st27" points="-67.5,316.7 -70.1,322.6 -65.1,333.7 -59.8,333.7 			"/>
			<polyline class="st26" points="-64.5,322.6 -67.5,316.7 -67.5,328.5 -65.1,333.7 -59.5,333.7 -62.2,328.3 -61.9,328.3 
				-64.8,322.6 -64.5,322.6 			"/>
		</g>
	</g>
</g>
<g id="_x32_f5V7P_1_">
	
		<image style="overflow:visible;" width="1667" height="1250" id="_x32_f5V7P" xlink:href="42DC4293E71EEEC6.jpg"  transform="matrix(0.24 0 0 0.24 32.5 452.5)">
	</image>
</g>
</svg>
