<?xml version="1.0" encoding="utf-8"?>
<!-- Generator: Adobe Illustrator 19.1.0, SVG Export Plug-In . SVG Version: 6.00 Build 0)  -->
<svg version="1.1" id="Layer_1" xmlns="http://www.w3.org/2000/svg" xmlns:xlink="http://www.w3.org/1999/xlink" x="0px" y="0px"
	 viewBox="0 0 360 360" style="enable-background:new 0 0 360 360;" xml:space="preserve">
<style type="text/css">
	.st0{fill:#1A333A;}
	.st1{font-family:'FuturaPT-Book';}
	.st2{font-size:75.0369px;}
</style>
<g>
	<g>
		<rect x="121.5" y="206.4" class="st0" width="14.2" height="30.8"/>
		<rect x="150.4" y="134" class="st0" width="14.2" height="67.7"/>
		<rect x="189.6" y="135.9" class="st0" width="14.2" height="23.7"/>
		<rect x="210.9" y="136.4" class="st0" width="14.2" height="59.2"/>
		<rect x="172.1" y="184.2" class="st0" width="14.2" height="51.6"/>
		<rect x="197.2" y="215.9" class="st0" width="14.2" height="17.5"/>
		<rect x="125.3" y="150.1" class="st0" width="14.2" height="39.8"/>
		<g>
			<path class="st0" d="M246.2,246H103.7V126.6h142.5V246z M117.9,231.8H232v-90.9H117.9V231.8z"/>
			<g>
				<g>
					<g>
						<path class="st0" d="M160.1,131.9c-9.5,0-18.9-0.8-28.1-2.3l-7-1.2l1.2-7c5.2-31.2,5.1-75.6,2.7-105.7l-0.5-5.9l5.7-1.5
							c19.3-5.1,39.9-6.8,59.8-5l5.9,0.6l0.5,5.9c2.5,28.2,10,72.8,20.6,103.8l2.3,6.7l-6.7,2.3
							C198.6,128.7,179.3,131.9,160.1,131.9z M141.3,116.6c21.2,2.6,43.5,0.7,64-5.3C196.1,82,189.6,44,186.8,17
							c-14.4-0.8-29.2,0.4-43.3,3.6C145.3,48.9,145.2,87,141.3,116.6z"/>
						<path class="st0" d="M199.2,70.3l-1-14.2l131-8.8L324.1,22c-7,2.3-14.3,3.8-21.6,4.3l-106.2,7.8l-1-14.2l106.2-7.8
							c8-0.6,15.9-2.5,23.5-5.6c2.4-1,5.1-0.9,7.4,0.4c2.3,1.2,3.9,3.4,4.4,5.9l9.5,47.5L199.2,70.3z"/>
						<polygon class="st0" points="105.8,76.9 100.9,26.6 133.3,24.4 134.3,38.6 116.5,39.8 118.6,61.9 130.4,61.2 131.3,75.3 
													"/>
					</g>
					<path class="st0" d="M158.2,106.2c-6.4,0-12.8-0.4-19.1-1.1l1.6-14.1c20.4,2.3,41.7,0.5,61.6-5.1l3.9,13.7
						C190.7,104,174.4,106.2,158.2,106.2z"/>
				</g>
				
					<rect x="210.9" y="25.5" transform="matrix(6.191620e-02 0.9981 -0.9981 6.191620e-02 241.141 -176.4534)" class="st0" width="7.1" height="29.1"/>
				
					<rect x="297.3" y="3.9" transform="matrix(6.913722e-02 0.9976 -0.9976 6.913722e-02 314.1302 -268.2757)" class="st0" width="7.1" height="60.5"/>
				
					<rect x="248.2" y="31.5" transform="matrix(6.191620e-02 0.9981 -0.9981 6.191620e-02 282.0934 -208.0876)" class="st0" width="7.1" height="29.1"/>
			</g>
		</g>
	</g>
	<g>
		<text transform="matrix(1 0 0 1 70.0322 349.3799)" class="st0 st1 st2">WORK</text>
	</g>
</g>
</svg>
