<?xml version="1.0" encoding="utf-8"?>
<!-- Generator: Adobe Illustrator 19.1.0, SVG Export Plug-In . SVG Version: 6.00 Build 0)  -->
<svg version="1.1" id="Layer_1" xmlns="http://www.w3.org/2000/svg" xmlns:xlink="http://www.w3.org/1999/xlink" x="0px" y="0px"
	 viewBox="-251 273 360 320" style="enable-background:new -251 273 360 320;" xml:space="preserve">
<style type="text/css">
	.st0{fill:#1A333A;}
</style>
<g>
	<g>
		<rect x="-137.9" y="539.9" class="st0" width="18.5" height="40.1"/>
		<rect x="-100.3" y="445.6" class="st0" width="18.5" height="88.2"/>
		<rect x="-49.3" y="448.1" class="st0" width="18.5" height="30.9"/>
		<rect x="-21.5" y="448.8" class="st0" width="18.5" height="77.1"/>
		<rect x="-72.1" y="511" class="st0" width="18.5" height="67.2"/>
		<rect x="-39.4" y="552.3" class="st0" width="18.5" height="22.8"/>
		<rect x="-133" y="466.6" class="st0" width="18.5" height="51.8"/>
		<g>
			<path class="st0" d="M21.8,591.5h-185.6V436H21.8V591.5z M-145.3,573H3.3V454.6h-148.6V573z"/>
			<g>
				<g>
					<g>
						<path class="st0" d="M-99.7,442.9c-10.4,0-20.8-0.9-30.9-2.5l-7.7-1.3l1.3-7.7c5.7-34.3,5.6-83,3-116.1l-0.5-6.5l6.3-1.6
							c21.2-5.6,43.8-7.5,65.7-5.5l6.5,0.7l0.5,6.5c2.7,31,11,80,22.6,114l2.5,7.4l-7.4,2.5C-57.5,439.4-78.7,442.9-99.7,442.9z
							 M-120.4,426.1c23.3,2.9,47.8,0.8,70.3-5.8c-10.1-32.2-17.2-73.9-20.3-103.6c-15.8-0.9-32.1,0.4-47.6,4
							C-116,351.7-116.1,393.6-120.4,426.1z"/>
						<path class="st0" d="M-56.8,375.2l-1.1-15.6L86,350l-5.6-27.8c-7.7,2.5-15.7,4.2-23.7,4.7L-60,335.5l-1.1-15.6l116.7-8.6
							c8.8-0.7,17.5-2.7,25.8-6.2c2.6-1.1,5.6-1,8.1,0.4c2.5,1.3,4.3,3.7,4.8,6.5l10.4,52.2L-56.8,375.2z"/>
						<polygon class="st0" points="-159.4,382.5 -164.8,327.2 -129.2,324.8 -128.1,340.4 -147.6,341.7 -145.3,366 -132.4,365.2 
							-131.4,380.7 						"/>
					</g>
					<path class="st0" d="M-101.8,414.7c-7,0-14.1-0.4-21-1.2l1.8-15.5c22.4,2.5,45.8,0.5,67.7-5.6l4.3,15
						C-66.1,412.2-84,414.7-101.8,414.7z"/>
				</g>
				
					<rect x="-44" y="326" transform="matrix(-6.191505e-02 -0.9981 0.9981 -6.191505e-02 -383.9058 323.2237)" class="st0" width="7.8" height="32"/>
				
					<rect x="51" y="302.4" transform="matrix(-6.913771e-02 -0.9976 0.9976 -6.913771e-02 -276.1331 413.5302)" class="st0" width="7.8" height="66.5"/>
				
					<rect x="-3" y="332.6" transform="matrix(-6.191505e-02 -0.9981 0.9981 -6.191505e-02 -346.9708 371.0456)" class="st0" width="7.8" height="32"/>
			</g>
		</g>
	</g>
</g>
</svg>
